<svg width="46" height="32" viewBox="0 0 46 32" fill="none" xmlns="http://www.w3.org/2000/svg">
<g clip-path="url(#clip0_153_491)">
<path fill-rule="evenodd" clip-rule="evenodd" d="M42.8004 13.5501V31.4626C42.7994 31.6048 42.7425 31.741 42.6419 31.8415C42.5414 31.9421 42.4053 31.999 42.263 32H37.6319C37.4897 31.999 37.3536 31.9421 37.253 31.8415C37.1524 31.741 37.0955 31.6048 37.0945 31.4626V18.1402C38.0424 17.2147 39.203 16.0952 40.3897 14.9532L42.2556 13.1545C42.4265 13.2988 42.6073 13.431 42.7967 13.5501H42.8004ZM11.2445 8.69878C10.2247 8.6243 9.20013 8.7511 8.22922 9.07195H8.20683C6.37618 9.69086 4.841 10.9682 3.8996 12.6559C2.9582 14.3435 2.67782 16.3208 3.11295 18.2036C3.25572 18.843 3.48023 19.4613 3.78094 20.0434L0.11633 23.5513C0.0468252 23.6212 0.0078125 23.7158 0.0078125 23.8143C0.0078125 23.9129 0.0468252 24.0075 0.11633 24.0774L2.1912 26.2493C2.26112 26.3188 2.3557 26.3578 2.45429 26.3578C2.55288 26.3578 2.64746 26.3188 2.71738 26.2493L6.24391 22.8459C6.77858 23.225 7.35915 23.5347 7.97172 23.7677C8.691 24.0358 9.44506 24.1992 10.2108 24.2528C11.4864 24.334 12.7623 24.1004 13.9265 23.5726C15.0906 23.0448 16.1071 22.2391 16.8867 21.2262C17.6663 20.2133 18.185 19.0243 18.3971 17.7639C18.6093 16.5035 18.5085 15.2102 18.1035 13.9979V13.9979C17.6124 12.5363 16.6984 11.2534 15.4773 10.312C14.2561 9.37058 12.7829 8.813 11.2445 8.70997V8.69878ZM6.62455 11.7999C7.23964 11.2619 7.95482 10.8505 8.72914 10.5893C9.50345 10.328 10.3217 10.2221 11.137 10.2776C11.9523 10.3331 12.7486 10.5488 13.4805 10.9125C14.2123 11.2762 14.8651 11.7806 15.4017 12.397V12.4156C15.93 13.0272 16.3343 13.7357 16.5921 14.5017V14.5017C17.1173 16.0656 17.0015 17.7738 16.2699 19.2524C15.5382 20.731 14.2505 21.8595 12.6887 22.3907C11.9151 22.648 11.0988 22.7519 10.2854 22.6967C9.47004 22.6446 8.67327 22.4302 7.94187 22.066V22.066C7.21607 21.6975 6.56949 21.1904 6.03866 20.5733L6.02 20.5509C5.4898 19.94 5.08414 19.2314 4.82583 18.4648V18.4462C4.57265 17.6782 4.47125 16.8683 4.52729 16.0616C4.58114 15.2465 4.79546 14.4502 5.15793 13.7182C5.5204 12.9862 6.02388 12.333 6.63948 11.7962L6.62455 11.7999ZM17.2937 8.78461L21.3987 5.2021C24.1079 7.85913 26.7351 11.0685 29.4183 13.718L39.1843 3.89225L36.031 0.746356L45.8567 0L45.3044 10.0124L42.2817 6.98962C40.1135 9.18764 34.9861 14.0278 32.8142 16.1997C30.0713 18.9425 28.7615 18.9948 26.0186 16.2482L21.3837 11.0946L19.9433 12.3708C19.7908 12.0262 19.6201 11.6898 19.432 11.3633C19.1107 10.808 18.7357 10.2855 18.3125 9.80338V9.80338C17.9933 9.44015 17.6478 9.10089 17.2788 8.78834L17.2937 8.78461ZM24.1676 20.48V31.4626C24.1667 31.6048 24.1097 31.741 24.0092 31.8415C23.9086 31.9421 23.7725 31.999 23.6303 32H18.9991C18.8569 31.999 18.7208 31.9421 18.6202 31.8415C18.5197 31.741 18.4627 31.6048 18.4618 31.4626V23.4804C18.7422 23.1918 19.0063 22.8878 19.2529 22.5698C19.6723 22.0281 20.0362 21.4454 20.3388 20.8308C20.8435 19.823 21.1777 18.7385 21.3278 17.6215L22.563 18.9948L22.7234 19.1627C23.1818 19.6264 23.6638 20.0661 24.1676 20.48V20.48ZM14.8382 25.8911V31.4626C14.8372 31.6048 14.7803 31.741 14.6797 31.8415C14.5792 31.9421 14.443 31.999 14.3008 32H9.68088C9.53866 31.999 9.40254 31.9421 9.30198 31.8415C9.20141 31.741 9.14448 31.6048 9.1435 31.4626V26.4695C9.52391 26.5367 9.90756 26.584 10.2929 26.6113C11.6549 26.6971 13.0208 26.5197 14.3157 26.0889C14.4949 26.0254 14.6889 25.962 14.8494 25.8911H14.8382ZM33.4822 21.2973V31.4626C33.4812 31.6048 33.4243 31.741 33.3237 31.8415C33.2231 31.9421 33.087 31.999 32.9448 32H28.3136C28.1714 31.999 28.0353 31.9421 27.9347 31.8415C27.8342 31.741 27.7772 31.6048 27.7763 31.4626V22.3571C28.3322 22.4814 28.9009 22.539 29.4705 22.5287C30.8987 22.5148 32.2921 22.087 33.4822 21.2973V21.2973Z" fill="#E6A31C"/>
</g>
<defs>
<clipPath id="clip0_153_491">
<rect width="45.8561" height="32" fill="white"/>
</clipPath>
</defs>
</svg>
