<svg width="45" height="32" viewBox="0 0 45 32" fill="none" xmlns="http://www.w3.org/2000/svg">
<g clip-path="url(#clip0_153_451)">
<path fill-rule="evenodd" clip-rule="evenodd" d="M30.4321 11.9962L30.3223 7.9235L23.5767 9.85629C22.9687 9.98708 22.3718 10.0525 21.7822 10.0525C21.1523 10.0561 20.5334 9.98708 19.9219 9.85629L13.4766 7.9017V12.0325C13.6597 14.176 19.8633 14.8336 21.7676 14.9244C23.2947 14.9971 29.3225 14.2087 30.1135 12.9735C30.2856 12.7046 30.3918 12.3776 30.4321 11.9962ZM0.930176 30.1578H5.54077C5.2002 30.0706 4.94385 29.7582 4.94385 29.3949V9.15874C4.94385 8.72641 5.30273 8.37037 5.73853 8.37037H9.2981C9.18457 8.77364 9.11865 9.18417 9.11133 9.60561H6.30615V29.1696H38.6023V9.60561H35.8813C35.874 9.18417 35.8118 8.77364 35.6982 8.37037H39.0564C39.4922 8.37037 39.8511 8.72641 39.8511 9.15874V29.3913C39.8511 29.7582 39.5984 30.067 39.2542 30.1542H44.0735C44.5862 30.1542 45.0037 30.5684 45.0037 31.077C45.0037 31.5856 44.5862 31.9998 44.0735 31.9998H0.930176C0.41748 31.9998 0 31.5856 0 31.077C0 30.572 0.41748 30.1578 0.930176 30.1578ZM9.93896 25.6819C9.64233 25.6819 9.40063 25.4421 9.40063 25.1478C9.40063 24.8536 9.64233 24.6138 9.93896 24.6138H30.9521C31.2488 24.6138 31.4905 24.8536 31.4905 25.1478C31.4905 25.4421 31.2488 25.6819 30.9521 25.6819H9.93896ZM9.93896 22.4957C9.64233 22.4957 9.40063 22.2559 9.40063 21.9616C9.40063 21.6674 9.64233 21.4276 9.93896 21.4276H26.0266C26.3232 21.4276 26.5649 21.6674 26.5649 21.9616C26.5649 22.2559 26.3232 22.4957 26.0266 22.4957H9.93896ZM9.93896 19.3095C9.64233 19.3095 9.40063 19.0697 9.40063 18.7755C9.40063 18.4812 9.64233 18.2414 9.93896 18.2414H31.1206C31.4172 18.2414 31.6589 18.4812 31.6589 18.7755C31.6589 19.0697 31.4172 19.3095 31.1206 19.3095H9.93896ZM21.1926 30.503H23.8074C24.0527 30.503 24.2542 30.7028 24.2542 30.9462C24.2542 31.1896 24.0527 31.3894 23.8074 31.3894H21.1926C20.9473 31.3894 20.7459 31.1896 20.7459 30.9462C20.7459 30.6992 20.9473 30.503 21.1926 30.503ZM33.1677 4.99162V9.96891H33.3252C33.4314 9.96891 33.5229 10.0561 33.5229 10.1651V11.5021C33.5229 11.6074 33.4351 11.6983 33.3252 11.6983H33.1641V12.1669C33.3655 12.2032 33.5193 12.3813 33.5193 12.592C33.5193 12.8281 33.3215 13.0243 33.0835 13.0243H32.3035C32.0654 13.0243 31.8677 12.8318 31.8677 12.592C31.8677 12.3813 32.0215 12.2069 32.2229 12.1669V11.6983H32.0654C31.9592 11.6983 31.8677 11.6111 31.8677 11.5021V10.1651C31.8677 10.0561 31.9556 9.96891 32.0654 9.96891H32.2266V5.28227L24.0161 7.81451C22.5293 8.16692 21.0425 8.18871 19.5557 7.81451L10.4956 5.12968L9.67529 4.88626C8.65356 4.47209 8.90991 3.50207 9.8584 3.27682L20.1086 0.239577C21.167 -0.0583343 22.2217 -0.105564 23.28 0.239577L33.3435 3.24049C34.4385 3.5057 34.6545 4.50842 33.3801 4.92259L33.1677 4.99162Z" fill="#309700"/>
</g>
<defs>
<clipPath id="clip0_153_451">
<rect width="45" height="32" fill="white"/>
</clipPath>
</defs>
</svg>
