<svg width="38" height="32" viewBox="0 0 38 32" fill="none" xmlns="http://www.w3.org/2000/svg">
<g clip-path="url(#clip0_153_481)">
<path fill-rule="evenodd" clip-rule="evenodd" d="M16.3494 13.1278H16.3373L13.9684 19.0031L13.1646 15.3178H13.4891C13.7834 15.3178 14.023 15.0781 14.023 14.7839V13.9164C14.023 13.6222 13.7834 13.3826 13.4891 13.3826H11.557C11.2628 13.3826 11.0232 13.6222 11.0232 13.9164V14.7839C11.0232 15.0781 11.2628 15.3178 11.557 15.3178H11.8846L11.0565 18.9515L8.80896 13.1278C6.17313 13.24 3.43114 15.527 1.82052 18.9303C0.874173 20.9261 0.622419 22.4305 0.467727 24.5659C0.15531 26.7134 -0.0115145 27.496 0.000618223 29.5979C0.519291 32.8677 4.66564 31.9001 5.02052 29.5979L5.52403 24.3505C5.59986 23.3557 5.66659 22.6823 6.07304 21.7329C6.26413 21.287 6.48858 20.9049 6.7555 20.5924L6.90413 32.0002H18.233L18.3422 19.6582L20.7263 22.0544C22.07 23.3284 23.8929 24.1595 26.5379 24.2292C27.5964 24.1898 30.0018 24.1109 31.0603 23.9896C36.8416 23.3375 34.233 18.5663 32.0218 19.0243C30.1686 19.1881 25.3974 19.7735 24.1356 18.2235C22.8253 16.9708 21.3815 15.4148 19.877 14.4381C18.5697 13.5888 17.8084 13.4281 16.3494 13.1278ZM29.1676 3.03643C28.8946 2.23264 28.649 1.41974 28.4427 0.594721C29.2162 -0.251535 32.1978 -0.139308 33.0562 0.582588L32.2615 2.47226C32.6891 1.91112 32.8317 1.6806 33.0865 1.36818C33.1927 1.43794 33.2927 1.51681 33.3898 1.60174C33.6143 1.80799 33.8175 2.03245 33.8569 2.3479C33.8842 2.55112 33.8266 2.76041 33.6446 2.97273L31.8217 5.09595C31.5881 5.05652 31.3576 5.00192 31.1362 4.92306C31.2393 4.68041 31.3636 4.41046 31.4668 4.1678L30.8025 4.88363C30.1109 4.73804 29.5559 4.826 29.0372 5.09899L27.193 2.88174C27.0838 2.74828 27.0323 2.61785 27.0323 2.48439C27.0353 1.94752 27.833 1.48647 28.2516 1.31055L29.1676 3.03643ZM31.5365 7.04629L31.1756 5.39624C32.7195 5.68439 35.1976 8.82676 35.9983 10.2554C36.4078 10.9864 36.7657 11.7902 37.0569 12.688C37.6393 14.8628 37.0782 16.895 34.7183 17.3712C33.2412 17.6685 30.484 17.6897 28.931 17.6078C27.2598 17.5229 24.6755 17.5229 23.9991 15.8091C22.9102 13.0398 24.906 9.73974 26.729 7.72268C26.9686 7.45576 27.2173 7.21008 27.4721 6.97956C28.1333 6.39719 28.8491 5.70562 29.7015 5.41747L28.8764 6.95226L30.0715 5.36591H30.7024L31.5365 7.04629ZM30.7691 8.39908V8.69027C31.0785 8.72363 31.3454 8.78733 31.5638 8.88136C31.7853 8.97842 31.9794 9.12098 32.1432 9.3151C32.2736 9.46373 32.3737 9.61538 32.4435 9.77008C32.5132 9.9278 32.5496 10.0673 32.5496 10.1978C32.5496 10.3433 32.495 10.4677 32.3919 10.5739C32.2857 10.68 32.1583 10.7316 32.0067 10.7316C31.7246 10.7316 31.5396 10.5769 31.4546 10.2706C31.3576 9.9096 31.1301 9.66998 30.7661 9.55169V11.3534C31.124 11.4505 31.4122 11.5415 31.6215 11.6233C31.8338 11.7022 32.0249 11.8205 32.1917 11.9722C32.3707 12.1299 32.5102 12.321 32.6073 12.5424C32.7043 12.7638 32.7528 13.0065 32.7528 13.2673C32.7528 13.5979 32.677 13.9043 32.5223 14.1924C32.3676 14.4806 32.1401 14.7142 31.8399 14.8961C31.5396 15.0781 31.1817 15.1843 30.7691 15.2207V15.5149C30.7691 15.6848 30.7509 15.8091 30.7176 15.888C30.6842 15.9669 30.6114 16.0033 30.4992 16.0033C30.3961 16.0033 30.3233 15.9729 30.2808 15.9092C30.2383 15.8455 30.2201 15.7454 30.2201 15.612V15.2268C29.8835 15.1904 29.5862 15.1085 29.3345 14.9902C29.0827 14.8688 28.8704 14.7172 28.7005 14.5382C28.5307 14.3562 28.4063 14.1682 28.3274 13.9741C28.2455 13.7799 28.2061 13.5858 28.2061 13.3978C28.2061 13.2613 28.2607 13.1339 28.3699 13.0247C28.4791 12.9124 28.6126 12.8578 28.7733 12.8578C28.9037 12.8578 29.0129 12.8882 29.1039 12.9488C29.1919 13.0095 29.2556 13.0944 29.289 13.2036C29.3648 13.4402 29.4346 13.6222 29.4922 13.7466C29.5528 13.8709 29.6378 13.9862 29.7561 14.0924C29.8713 14.1955 30.0291 14.2743 30.2201 14.3289V12.3149C29.8319 12.2057 29.5104 12.0874 29.2495 11.957C28.9887 11.8266 28.7763 11.6385 28.6156 11.3959C28.4548 11.1532 28.3729 10.8408 28.3729 10.4616C28.3729 9.9642 28.5307 9.55775 28.8461 9.2423C29.1616 8.92382 29.6196 8.7388 30.2171 8.68723V8.40515C30.2171 8.16249 30.3081 8.04117 30.4901 8.04117C30.6782 8.0442 30.7691 8.16249 30.7691 8.39908ZM30.2201 11.1957V9.53652C29.9775 9.60932 29.7894 9.70335 29.6529 9.82164C29.5164 9.93994 29.4497 10.1189 29.4497 10.3585C29.4497 10.586 29.5134 10.7589 29.6408 10.8772C29.7652 10.9924 29.9593 11.1016 30.2201 11.1957ZM30.7691 12.4817V14.3805C31.0603 14.3229 31.2848 14.2076 31.4455 14.0317C31.6033 13.8527 31.6821 13.6495 31.6821 13.416C31.6821 13.1642 31.6063 12.9701 31.4486 12.8336C31.2969 12.691 31.0694 12.5758 30.7691 12.4817ZM12.5216 0.342967C15.7883 0.342967 18.4332 2.99093 18.4332 6.25463C18.4332 9.52136 15.7853 12.1663 12.5216 12.1663C9.25483 12.1663 6.60991 9.51832 6.60991 6.25463C6.60991 2.99093 9.25787 0.342967 12.5216 0.342967Z" fill="#309700"/>
</g>
<defs>
<clipPath id="clip0_153_481">
<rect width="37.2717" height="32" fill="white"/>
</clipPath>
</defs>
</svg>
