<svg width="37" height="32" viewBox="0 0 37 32" fill="none" xmlns="http://www.w3.org/2000/svg">
<g clip-path="url(#clip0_153_459)">
<path fill-rule="evenodd" clip-rule="evenodd" d="M0.911597 16.6058H6.26355C6.50509 16.6066 6.7365 16.7029 6.90729 16.8736C7.07808 17.0444 7.17438 17.2759 7.17515 17.5174V28.4566C7.17438 28.6981 7.07808 28.9295 6.90729 29.1003C6.7365 29.2711 6.50509 29.3674 6.26355 29.3681H0.911597C0.670065 29.3674 0.438647 29.2711 0.267857 29.1003C0.0970674 28.9295 0.00077539 28.6981 0 28.4566L0 17.5174C0.00077539 17.2759 0.0970674 17.0444 0.267857 16.8736C0.438647 16.7029 0.670065 16.6066 0.911597 16.6058V16.6058ZM8.35729 28.2978V17.6438H14.0474C16.0823 18.0085 18.1173 19.1142 20.1492 20.3933H23.878C25.5629 20.4933 26.4481 22.2048 24.8101 23.334C23.5016 24.2926 21.7783 24.2367 20.011 24.0809C18.7907 24.0191 18.7377 25.6571 20.011 25.6629C20.4521 25.6982 20.9314 25.5953 21.352 25.5924C23.5574 25.5924 25.3747 25.1689 26.4863 23.4281L27.0538 22.1018L32.5969 19.3523C35.3729 18.4407 37.3431 21.3432 35.2994 23.3604C31.4321 26.1837 27.2951 28.6177 22.9487 30.6267C19.8905 32.4882 16.8293 32.4235 13.771 30.6267L8.36023 28.2978H8.35729ZM18.2319 2.2496C18.1981 2.22178 18.1591 2.20081 18.1173 2.18785C18.0863 2.18079 18.0541 2.18079 18.0232 2.18785C17.9399 2.19622 17.8631 2.23622 17.8085 2.29959L17.0645 3.18178C16.9982 3.26155 16.9064 3.31595 16.8045 3.33577C16.7027 3.3556 16.5972 3.33964 16.5058 3.29059C16.4058 3.23766 16.2999 3.18767 16.1941 3.14356C16.0882 3.09945 15.9618 3.0524 15.85 3.01417C15.7383 2.97594 15.6236 2.94359 15.4913 2.90537C15.3589 2.86714 15.2472 2.83773 15.1325 2.81126C15.0375 2.78713 14.9528 2.73279 14.8913 2.65643C14.8298 2.58007 14.7947 2.48581 14.7914 2.38781L14.6797 1.17627C14.675 1.1334 14.6631 1.09163 14.6444 1.05276C14.6263 1.02106 14.6035 0.992307 14.5767 0.967486C14.5501 0.943073 14.5177 0.925864 14.4826 0.917495C14.443 0.908426 14.4017 0.908426 14.3621 0.917495L12.8006 1.07041C12.7588 1.07602 12.7182 1.08792 12.68 1.1057C12.6418 1.12656 12.6079 1.15451 12.58 1.18803C12.5569 1.21704 12.5389 1.24988 12.5271 1.28507C12.5211 1.31714 12.5211 1.35005 12.5271 1.38212L12.6359 2.52602C12.646 2.63187 12.6186 2.7379 12.5583 2.82554C12.4981 2.91318 12.409 2.97683 12.3066 3.00535C12.2125 3.03769 12.1066 3.07592 11.986 3.12591C11.8655 3.1759 11.7625 3.22589 11.6684 3.27589H11.6508C11.5508 3.32882 11.445 3.38469 11.3567 3.4435H11.3273C11.2273 3.50231 11.1303 3.56407 11.0333 3.62582C10.953 3.6789 10.858 3.70521 10.7618 3.70098C10.6657 3.69676 10.5734 3.66221 10.4981 3.6023L9.48061 2.81421C9.44962 2.78929 9.41489 2.76944 9.37769 2.75539C9.34864 2.74892 9.31852 2.74892 9.28947 2.75539C9.24745 2.76141 9.20671 2.77432 9.1689 2.79362H9.15126C9.12398 2.81296 9.09928 2.83568 9.07774 2.86126L8.09263 4.05809C8.06295 4.09384 8.04003 4.1347 8.025 4.17866C8.01918 4.20976 8.01918 4.24166 8.025 4.27276V4.29335C8.02807 4.32829 8.03807 4.36228 8.0544 4.39333V4.40803C8.07388 4.43697 8.09768 4.46276 8.12498 4.48449L9.00717 5.22847C9.08811 5.29459 9.14332 5.387 9.1632 5.48961C9.18308 5.59222 9.16637 5.69856 9.11597 5.79013C9.06318 5.88574 9.01509 5.98388 8.97188 6.08419C8.92298 6.19662 8.87979 6.31146 8.84249 6.42825C8.8072 6.53705 8.76898 6.65468 8.73075 6.787C8.69252 6.91933 8.66311 7.03402 8.63665 7.14576C8.61843 7.24215 8.56921 7.32994 8.49648 7.39577C8.42375 7.4616 8.3315 7.50185 8.23378 7.5104L7.0193 7.62215C6.97736 7.62679 6.93655 7.63873 6.89873 7.65743C6.86551 7.67575 6.83567 7.69962 6.81051 7.72801C6.78764 7.75566 6.77063 7.78768 6.76052 7.82211C6.7526 7.86092 6.7526 7.90093 6.76052 7.93973L6.91343 9.50121C6.91767 9.54417 6.92963 9.58601 6.94872 9.62472C6.96835 9.66295 6.99533 9.69692 7.02812 9.7247C7.05784 9.74678 7.0905 9.7646 7.12516 9.77763C7.16116 9.78383 7.19796 9.78383 7.23396 9.77763L8.37787 9.66883C8.48093 9.66241 8.58307 9.69163 8.66714 9.7516C8.7512 9.81157 8.81208 9.89864 8.83955 9.99818C8.8719 10.0923 8.91307 10.2011 8.96306 10.3187C9.01305 10.4363 9.0601 10.5393 9.11303 10.6392L9.13361 10.6804C9.18066 10.7716 9.2336 10.8715 9.29241 10.9745L9.48943 11.2979C9.54034 11.3782 9.56487 11.4724 9.5596 11.5673C9.55432 11.6622 9.51951 11.7531 9.46002 11.8273L8.64547 12.83C8.62404 12.8591 8.60626 12.8907 8.59254 12.9241C8.58793 12.9524 8.58793 12.9812 8.59254 13.0094C8.59637 13.0524 8.60835 13.0943 8.62783 13.1329C8.64683 13.1682 8.67285 13.1992 8.70428 13.2241C9.11009 13.5622 9.52766 13.8945 9.93053 14.2356C9.95738 14.255 9.98717 14.2699 10.0187 14.2797C10.0556 14.2874 10.0936 14.2874 10.1305 14.2797V14.2797C10.1752 14.275 10.2189 14.2631 10.2599 14.2445H10.2746C10.3024 14.2257 10.329 14.2051 10.354 14.1827L11.0891 13.3005C11.1552 13.2196 11.2474 13.1641 11.3499 13.1437C11.4524 13.1234 11.5588 13.1393 11.6508 13.1888C11.7521 13.2431 11.8562 13.2921 11.9625 13.3358C12.0772 13.3858 12.1919 13.427 12.3066 13.4652C12.4212 13.5034 12.53 13.5387 12.6653 13.5769C12.8006 13.6152 12.9094 13.6446 13.0241 13.671C13.121 13.6931 13.2079 13.7465 13.2712 13.8232C13.3345 13.8998 13.3706 13.9952 13.374 14.0945L13.4858 15.2913C13.4904 15.3336 13.5034 15.3746 13.524 15.4119C13.5403 15.4456 13.5633 15.4756 13.5916 15.5001C13.62 15.5218 13.6518 15.5387 13.6857 15.5501C13.7255 15.5577 13.7665 15.5577 13.8063 15.5501L15.3648 15.3972C15.4087 15.3929 15.4515 15.381 15.4913 15.3619V15.3619C15.5262 15.3436 15.558 15.3198 15.5854 15.2913C15.6119 15.2588 15.6328 15.222 15.6471 15.1825C15.6561 15.1478 15.6561 15.1114 15.6471 15.0767L15.5413 13.9298C15.5306 13.8298 15.5538 13.7291 15.6071 13.6438C15.6604 13.5585 15.7408 13.4936 15.8353 13.4593C15.95 13.4211 16.0647 13.377 16.1764 13.3299H16.2117C16.3058 13.2888 16.3999 13.2417 16.5058 13.1888H16.5234C16.6352 13.1329 16.744 13.0741 16.841 13.0153L17.1674 12.8182C17.2473 12.7671 17.3413 12.7427 17.4359 12.7485C17.5305 12.7543 17.6208 12.7901 17.6938 12.8506L18.6877 13.6622C18.7175 13.6843 18.7501 13.7021 18.7848 13.7151C18.8157 13.7225 18.8479 13.7225 18.8789 13.7151C18.9209 13.7131 18.962 13.7021 18.9994 13.6828C19.0331 13.6614 19.0629 13.6346 19.0877 13.6034C19.4258 13.1976 19.7581 12.78 20.0992 12.3772C20.1191 12.3517 20.134 12.3228 20.1434 12.2919C20.1496 12.2549 20.1496 12.2171 20.1434 12.1801V12.1801C20.1383 12.1355 20.1264 12.0918 20.1081 12.0507C20.089 12.0155 20.0642 11.9836 20.0346 11.9566L19.1524 11.2391C19.0697 11.1737 19.0129 11.0811 18.9919 10.9778C18.9709 10.8745 18.9871 10.767 19.0377 10.6745C19.092 10.5732 19.141 10.4692 19.1847 10.3628C19.2347 10.2423 19.2788 10.1276 19.3141 10.0217C19.3494 9.91584 19.3847 9.79233 19.4229 9.66001C19.4611 9.52768 19.4905 9.41887 19.517 9.30125C19.5394 9.20291 19.5942 9.11495 19.6726 9.05149C19.751 8.98803 19.8484 8.95275 19.9493 8.95131L21.1726 8.82192C21.2155 8.81727 21.2572 8.80533 21.2961 8.78664C21.3271 8.7676 21.3558 8.74489 21.3814 8.719C21.4031 8.69059 21.42 8.6588 21.4314 8.6249V8.6249C21.4377 8.58792 21.4377 8.55014 21.4314 8.51316L21.2784 6.95462C21.2734 6.91277 21.2614 6.87204 21.2432 6.83405V6.81641C21.2229 6.78545 21.1981 6.75769 21.1696 6.73407C21.1406 6.71089 21.1078 6.69298 21.0726 6.68114V6.68114C21.0405 6.67509 21.0076 6.67509 20.9756 6.68114L19.8199 6.76348C19.72 6.77307 19.6198 6.74945 19.5347 6.69629C19.4497 6.64312 19.3845 6.56338 19.3494 6.46942C19.3112 6.36061 19.27 6.24593 19.2171 6.1283C19.1641 6.01068 19.1141 5.88717 19.0641 5.79013V5.76955C19.0143 5.66879 18.9593 5.57064 18.8995 5.47548C18.8407 5.3755 18.773 5.27552 18.7054 5.18142C18.6502 5.10014 18.6229 5.00312 18.6277 4.90499C18.6325 4.80685 18.669 4.71293 18.7318 4.6374L19.5376 3.64052C19.5631 3.60995 19.583 3.5751 19.5964 3.5376C19.6026 3.50952 19.6026 3.48041 19.5964 3.45232C19.5903 3.40938 19.5774 3.36768 19.5582 3.32882V3.30823C19.5409 3.282 19.5201 3.25825 19.4964 3.23766L18.3937 2.33194C18.3345 2.31633 18.2794 2.28826 18.2319 2.2496V2.2496ZM30.4003 9.48357C30.3539 9.44409 30.3001 9.41438 30.242 9.39619C30.1839 9.378 30.1227 9.37171 30.0621 9.3777C29.9405 9.39148 29.8289 9.45149 29.7504 9.54532L29.3005 10.0893C29.1575 10.0153 29.0091 9.95241 28.8565 9.90114C28.6977 9.85115 28.5624 9.80704 28.3918 9.76881L28.3213 9.01013C28.3105 8.88898 28.2524 8.77696 28.1595 8.69842C28.1137 8.65951 28.0601 8.63075 28.0023 8.61403C27.9445 8.5973 27.8839 8.59299 27.8243 8.60138L26.8656 8.69548C26.7516 8.7109 26.647 8.76735 26.5716 8.85427C26.5317 8.90035 26.5017 8.95416 26.4835 9.01234C26.4652 9.07052 26.4592 9.13183 26.4657 9.19245L26.5304 9.88938C26.3751 9.93963 26.2245 10.0036 26.0805 10.0805C25.9377 10.151 25.8001 10.2316 25.6688 10.3216L25.063 9.8335C25.0191 9.79283 24.967 9.76206 24.9102 9.74329C24.8534 9.72451 24.7932 9.71818 24.7337 9.7247C24.6115 9.73863 24.4996 9.79985 24.422 9.89526L23.8339 10.6275C23.7945 10.6739 23.7648 10.7277 23.7466 10.7857C23.7284 10.8438 23.7219 10.9049 23.7277 10.9654C23.7334 11.026 23.7513 11.0848 23.7801 11.1384C23.8089 11.1919 23.8482 11.2392 23.8956 11.2774L24.4073 11.7273C24.333 11.8697 24.271 12.0183 24.222 12.1713C24.1691 12.3301 24.125 12.4654 24.0867 12.6359L23.3281 12.7065C23.2072 12.7182 23.0955 12.7761 23.0164 12.8682C22.9803 12.916 22.9546 12.9707 22.9409 13.0289C22.9273 13.0872 22.9259 13.1476 22.937 13.2064L23.0311 14.1621C23.0429 14.2821 23.1009 14.3929 23.1928 14.4709C23.2381 14.511 23.2914 14.5412 23.3492 14.5594C23.4069 14.5777 23.4679 14.5836 23.528 14.5767L24.225 14.5121C24.2731 14.6659 24.3341 14.8154 24.4073 14.959C24.4801 15.1043 24.5606 15.2457 24.6484 15.3825L24.1603 15.9706C24.1199 16.0146 24.0896 16.0669 24.0713 16.1237C24.0531 16.1806 24.0473 16.2407 24.0544 16.3C24.0713 16.4156 24.1312 16.5206 24.222 16.594L24.966 17.2321C25.0127 17.2707 25.0668 17.2991 25.125 17.3158C25.1832 17.3325 25.2442 17.3371 25.3042 17.3292C25.4261 17.3174 25.5392 17.2609 25.6218 17.1704L26.0746 16.6175C26.2168 16.6933 26.3654 16.7563 26.5187 16.8058C26.671 16.8584 26.8261 16.9026 26.9833 16.9381L27.0538 17.6997C27.0665 17.8194 27.1244 17.9299 27.2156 18.0085C27.262 18.0477 27.316 18.0768 27.3742 18.094C27.4324 18.1112 27.4935 18.1161 27.5538 18.1085L28.5095 18.0144C28.6291 18.0014 28.7394 17.9436 28.8182 17.8526C28.8581 17.8065 28.8881 17.7527 28.9064 17.6945C28.9246 17.6364 28.9306 17.5751 28.9241 17.5144L28.8565 16.8175C29.0122 16.7683 29.1629 16.7043 29.3064 16.6264C29.4509 16.555 29.5913 16.4755 29.7269 16.3882L30.315 16.8763C30.3611 16.9162 30.4149 16.9462 30.4731 16.9645C30.5313 16.9827 30.5926 16.9887 30.6532 16.9822C30.7137 16.9766 30.7725 16.9589 30.8261 16.9301C30.8796 16.9013 30.9269 16.862 30.9649 16.8146L31.5765 16.0735C31.6151 16.0268 31.6439 15.9728 31.661 15.9146C31.6782 15.8565 31.6835 15.7956 31.6765 15.7354C31.6651 15.6127 31.6073 15.4991 31.5148 15.4178L30.962 14.9708C31.0453 14.8296 31.1152 14.681 31.1707 14.5268C31.223 14.3753 31.2671 14.2212 31.3031 14.0651L32.0647 13.9945C32.1795 13.9794 32.2845 13.9217 32.3588 13.8328C32.3981 13.7865 32.4273 13.7325 32.4445 13.6743C32.4618 13.616 32.4666 13.5548 32.4587 13.4946L32.3646 12.5389C32.3482 12.4245 32.2907 12.32 32.2029 12.2448C32.1571 12.2044 32.1034 12.1739 32.0452 12.1551C31.987 12.1364 31.9255 12.1299 31.8647 12.136L31.1678 12.2037C31.1154 12.0491 31.0515 11.8987 30.9767 11.7537C30.9092 11.6093 30.8285 11.4715 30.7355 11.342L31.2266 10.7363C31.2661 10.6917 31.296 10.6394 31.3142 10.5827C31.3324 10.526 31.3386 10.4662 31.3325 10.4069C31.3187 10.2854 31.2587 10.1737 31.1649 10.0952L30.4297 9.49239H30.4062L30.4003 9.48357ZM27.4949 11.492C27.7444 11.4694 27.9958 11.4944 28.236 11.5655C28.4662 11.6388 28.6806 11.7545 28.8682 11.9067C29.0547 12.0607 29.2095 12.2494 29.324 12.4624C29.4439 12.6811 29.516 12.9226 29.5357 13.1711C29.5585 13.4206 29.5335 13.6721 29.4622 13.9122C29.3944 14.1432 29.2815 14.3585 29.1301 14.5458C28.9787 14.733 28.7918 14.8884 28.58 15.0031C28.3606 15.1206 28.1194 15.1917 27.8713 15.2119C27.6219 15.2362 27.3701 15.2112 27.1303 15.1384C26.8994 15.0662 26.684 14.9515 26.4951 14.8002C26.3103 14.6442 26.1567 14.4546 26.0423 14.2415C25.9158 14.0226 25.8385 13.7787 25.8158 13.5269C25.7763 13.16 25.8476 12.7896 26.0206 12.4636C26.1936 12.1376 26.4602 11.8709 26.7862 11.6979C27.0046 11.5773 27.2463 11.5051 27.4949 11.4861V11.492ZM18.3966 1.3233C18.4995 1.35563 18.5982 1.40005 18.6907 1.45563C18.7555 1.47115 18.8158 1.50133 18.8671 1.54385L20.0522 2.52896C20.1621 2.61906 20.2557 2.72751 20.3286 2.84949L20.3521 2.88772C20.4271 3.02642 20.475 3.17811 20.4933 3.3347C20.5138 3.4991 20.4967 3.66601 20.4433 3.82284C20.3966 3.96062 20.326 4.08905 20.2345 4.20219L19.6287 4.95499L19.667 5.01674C19.7441 5.14598 19.8138 5.27951 19.8758 5.41667C19.9463 5.5539 20.0051 5.68035 20.0522 5.79601L20.0757 5.85482L20.8697 5.77837C21.0238 5.76051 21.18 5.77452 21.3284 5.81954H21.352C21.4883 5.86472 21.6157 5.93338 21.7284 6.02244L21.7695 6.05773C21.8745 6.14989 21.963 6.25928 22.0312 6.3812L22.0548 6.41943C22.1224 6.55273 22.1652 6.69721 22.1812 6.84582C22.1812 7.23986 22.2812 8.00443 22.3341 8.41612C22.3517 8.56484 22.3407 8.71555 22.3018 8.86015V8.88662C22.2569 9.03825 22.1819 9.17927 22.0812 9.30125V9.30125C21.9846 9.42089 21.8658 9.52074 21.7313 9.59531C21.5917 9.66702 21.4403 9.71285 21.2843 9.73058L20.3492 9.81292L20.3257 9.8982C20.2933 10.0158 20.2522 10.1482 20.1992 10.2981C20.1463 10.4481 20.1022 10.5922 20.0522 10.701L20.0287 10.751L20.6727 11.2715C20.7949 11.3772 20.8949 11.5061 20.9667 11.6508C21.0204 11.7799 21.0522 11.9171 21.0608 12.0566V12.0713C21.0806 12.2291 21.0676 12.3893 21.0226 12.5418C20.9818 12.6851 20.915 12.8197 20.8256 12.9388L19.7993 14.1798C19.7013 14.3003 19.5803 14.4003 19.4435 14.4738C19.3048 14.5514 19.1517 14.5994 18.9936 14.615C18.8367 14.6332 18.6778 14.6202 18.526 14.5767H18.5025C18.3686 14.5313 18.2434 14.4637 18.132 14.3768L17.3703 13.7563L17.2939 13.8004C17.1645 13.8769 17.038 13.9445 16.9175 14.0033C16.7969 14.0621 16.694 14.1151 16.5734 14.168L16.4676 14.2033L16.5499 14.9973C16.5681 15.1607 16.5511 15.3262 16.4999 15.4825C16.4503 15.6273 16.3746 15.7619 16.2764 15.8795L16.2588 15.8971C16.1636 16.0041 16.0513 16.0945 15.9265 16.1647H15.8971C15.7645 16.2315 15.6211 16.2743 15.4736 16.2911C15.0796 16.2911 14.315 16.3941 13.9033 16.447C13.7455 16.4644 13.5858 16.4514 13.4328 16.4088C13.281 16.363 13.1399 16.287 13.0182 16.1853H13.0035C12.8904 16.085 12.7958 15.9655 12.7241 15.8324C12.6507 15.6935 12.6048 15.5417 12.5889 15.3854L12.5036 14.4532L12.4212 14.4297L12.0213 14.3033C11.8802 14.2562 11.7273 14.2062 11.6185 14.1533L11.5626 14.1298L11.0333 14.7738C10.9363 14.8836 10.8196 14.9744 10.6892 15.0414L10.6569 15.062C10.5277 15.1225 10.3897 15.1622 10.2481 15.1796H10.2334C10.0746 15.1992 9.91354 15.1862 9.75997 15.1414C9.6187 15.0986 9.48624 15.0309 9.36887 14.9414L8.12498 13.9151C8.00506 13.8164 7.90522 13.6956 7.83091 13.5593C7.75592 13.4217 7.708 13.2709 7.68976 13.1153C7.67072 12.9567 7.68781 12.7958 7.73975 12.6448C7.78326 12.5092 7.85101 12.3826 7.93972 12.2713L8.56019 11.5097L8.52784 11.4361C8.46315 11.3273 8.4014 11.2097 8.33964 11.0862C8.26613 10.9509 8.20437 10.8216 8.1485 10.6892L8.12204 10.6216L7.33395 10.6951C7.17168 10.7142 7.00719 10.6982 6.85168 10.6481C6.71466 10.6031 6.58707 10.5333 6.47528 10.4422L6.43117 10.4099C6.3113 10.3065 6.2116 10.1819 6.13711 10.0423C6.0699 9.90986 6.02707 9.76643 6.01066 9.61884C6.01066 9.22185 5.90774 8.46905 5.85481 8.05148C5.83061 7.88962 5.83961 7.72454 5.88127 7.56627C5.92705 7.41441 6.00307 7.27337 6.10476 7.15164C6.20399 7.03345 6.32349 6.93387 6.45764 6.85758C6.59674 6.78516 6.7485 6.74023 6.90461 6.72525L7.83679 6.63997L7.86032 6.55469C7.89561 6.44001 7.93678 6.30474 7.98677 6.15771C8.03676 6.01068 8.08675 5.86364 8.13674 5.7519L8.16026 5.69603L7.55743 5.18436C7.44078 5.09391 7.3412 4.98337 7.26337 4.85795L7.24573 4.82854C7.1784 4.69846 7.13649 4.55674 7.12222 4.41097V4.38745C7.10549 4.22807 7.1215 4.06696 7.16927 3.914C7.21811 3.76223 7.29601 3.6214 7.39864 3.49937L8.38375 2.29665C8.47376 2.1863 8.58343 2.09357 8.70722 2.02317L8.74251 1.99965C8.88052 1.92309 9.03253 1.87509 9.18949 1.8585C9.35098 1.83798 9.51503 1.85509 9.66881 1.90849C9.80637 1.95565 9.93472 2.02629 10.0482 2.11727L10.8039 2.72599L10.8804 2.66717C11.0009 2.5966 11.1244 2.5319 11.2479 2.47015C11.3714 2.4084 11.5067 2.34076 11.6273 2.28783L11.6978 2.26137L11.6185 1.47033C11.6006 1.31622 11.6146 1.16007 11.6596 1.0116V0.98807C11.7048 0.851736 11.7735 0.724351 11.8625 0.611669L11.9066 0.588144C12.0078 0.468456 12.1305 0.368724 12.2683 0.29408C12.4011 0.224001 12.5456 0.179134 12.6947 0.161752C13.0888 0.161752 13.8533 0.0617701 14.265 0.00883862C14.4228 -0.010343 14.5829 0.00266158 14.7355 0.0470669C14.8872 0.0919637 15.0282 0.166974 15.1502 0.267615V0.267615C15.2684 0.365613 15.3681 0.484159 15.4442 0.61755C15.5193 0.760375 15.5672 0.91594 15.5854 1.07629L15.6677 2.01141L15.753 2.03494C15.8677 2.06728 16.0029 2.10845 16.1529 2.15844L16.5558 2.30842L16.6146 2.33488L17.1233 1.72029C17.2226 1.59986 17.3445 1.49997 17.4821 1.42623C17.6228 1.34759 17.7777 1.29762 17.9379 1.27919C18.097 1.25948 18.2586 1.27453 18.4113 1.3233H18.3966ZM13.7357 4.73738C13.9617 4.71829 14.189 4.71829 14.415 4.73738C14.6503 4.76043 14.8828 4.80673 15.109 4.87559V4.87559C15.3245 4.94324 15.5332 5.03086 15.7324 5.13731L15.7589 5.15201C15.9452 5.25517 16.1223 5.37422 16.2882 5.50783V5.50783C16.6334 5.80043 16.9215 6.15436 17.138 6.55175C17.2521 6.75557 17.3429 6.9716 17.4086 7.19575C17.477 7.42163 17.5204 7.65436 17.538 7.88974V7.88974C17.5585 8.11472 17.5585 8.34111 17.538 8.56609C17.5179 8.8016 17.4725 9.03427 17.4027 9.26008V9.28949C17.336 9.49265 17.2514 9.68946 17.1498 9.87761C17.0435 10.074 16.9205 10.261 16.7822 10.4363L16.7528 10.4687C16.4664 10.8045 16.1205 11.0847 15.7324 11.295C15.5267 11.4074 15.3099 11.498 15.0855 11.5655C14.8598 11.6309 14.6284 11.6743 14.3944 11.6949C14.1645 11.714 13.9333 11.714 13.7034 11.6949C13.468 11.6722 13.2355 11.6259 13.0094 11.5567V11.5567C12.795 11.4885 12.5873 11.4009 12.3889 11.295C12.1926 11.1873 12.0057 11.0634 11.8302 10.9245V10.9245C11.6589 10.7806 11.5014 10.6212 11.3597 10.4481C11.2159 10.2715 11.088 10.0825 10.9774 9.88349C10.8658 9.67782 10.7761 9.46099 10.7098 9.23655C10.6413 9.01068 10.5979 8.77794 10.5804 8.54256V8.54256C10.5599 8.31758 10.5599 8.0912 10.5804 7.86622C10.6005 7.6307 10.6458 7.39803 10.7157 7.17223V7.17223C10.7828 6.95653 10.8704 6.74776 10.9774 6.54881L10.9921 6.52235C11.0938 6.33421 11.213 6.15602 11.3479 5.99009L11.3714 5.96069C11.5094 5.79622 11.6631 5.64554 11.8302 5.51077C12.0069 5.36798 12.1958 5.24104 12.3948 5.13143C12.5993 5.01887 12.8152 4.92819 13.0388 4.86089C13.2655 4.79575 13.4978 4.75243 13.7328 4.7315L13.7357 4.73738ZM14.3238 5.64016C14.1497 5.62398 13.9745 5.62398 13.8004 5.64016V5.64016C13.6281 5.65449 13.4577 5.68601 13.2917 5.73426C13.1294 5.78237 12.9727 5.84742 12.8241 5.92834C12.6719 6.01389 12.5273 6.11227 12.3918 6.2224C12.2711 6.3205 12.1589 6.42871 12.0566 6.54587V6.54587C11.957 6.67026 11.8685 6.80309 11.7919 6.94286V6.96638C11.7132 7.11601 11.6482 7.27252 11.5979 7.43394C11.5367 7.60347 11.4934 7.77889 11.4685 7.95738C11.4538 8.13155 11.4538 8.30664 11.4685 8.48081V8.48081C11.4826 8.65432 11.5151 8.82584 11.5655 8.99248C11.6132 9.15813 11.6793 9.31792 11.7625 9.46886C11.8471 9.62078 11.9455 9.76451 12.0566 9.8982C12.1601 10.0272 12.2764 10.1454 12.4036 10.2511C12.5335 10.3543 12.6722 10.4458 12.8182 10.5246C12.9691 10.6036 13.1265 10.6695 13.2887 10.7216C13.4541 10.7735 13.6247 10.8071 13.7975 10.8216C13.9745 10.8377 14.1527 10.8377 14.3297 10.8216C14.5029 10.807 14.6743 10.7754 14.8414 10.7275C14.9977 10.6786 15.1485 10.6136 15.2913 10.5334C15.4441 10.4489 15.5889 10.3504 15.7236 10.2393C15.8446 10.1393 15.9567 10.0292 16.0588 9.90996V9.90996C16.1697 9.77819 16.2681 9.63643 16.3529 9.48651C16.4279 9.34259 16.4918 9.19316 16.544 9.03953V9.02189C16.5951 8.85514 16.6296 8.68375 16.6469 8.51022C16.6617 8.33605 16.6617 8.16095 16.6469 7.98678V7.98678C16.6328 7.81327 16.6003 7.64175 16.5499 7.47511C16.502 7.31281 16.4369 7.15607 16.3558 7.00755C16.272 6.85521 16.1735 6.71141 16.0618 6.57822C15.9582 6.44925 15.842 6.33103 15.7148 6.22534C15.5919 6.12742 15.461 6.03988 15.3237 5.96363H15.3001C15.1493 5.88445 14.9919 5.81853 14.8296 5.7666C14.6652 5.71498 14.4956 5.68146 14.3238 5.66662V5.64016ZM4.77853 25.2454C4.98571 25.2448 5.1884 25.3057 5.36094 25.4204C5.53348 25.5351 5.66812 25.6983 5.74781 25.8896C5.82749 26.0808 5.84864 26.2914 5.80858 26.4947C5.76852 26.6979 5.66905 26.8847 5.52276 27.0314C5.37647 27.1781 5.18994 27.2781 4.98679 27.3188C4.78364 27.3594 4.573 27.3388 4.38154 27.2597C4.19008 27.1806 4.0264 27.0464 3.91124 26.8742C3.79608 26.7019 3.73461 26.4994 3.73461 26.2922C3.73461 26.0151 3.8445 25.7493 4.04019 25.553C4.23588 25.3568 4.5014 25.2462 4.77853 25.2454V25.2454Z" fill="#E6A31C"/>
</g>
<defs>
<clipPath id="clip0_153_459">
<rect width="36.1345" height="32" fill="white"/>
</clipPath>
</defs>
</svg>
