<svg width="20" height="20" viewBox="0 0 20 20" fill="none" xmlns="http://www.w3.org/2000/svg">
<g clip-path="url(#clip0_153_708)">
<path fill-rule="evenodd" clip-rule="evenodd" d="M10 0C15.523 0 20 4.47695 20 10C20 15.523 15.523 20 10 20C4.47695 20 0 15.523 0 10C0 4.47695 4.47695 0 10 0Z" fill="#3AAF3C"/>
<path d="M6.17353 9.18979C6.94189 9.63237 7.4415 10.0003 8.03721 10.6566C9.58135 8.17104 11.2575 6.7937 13.4372 4.83901L13.6501 4.75659H16.0353C12.8372 8.30854 10.3579 11.2371 8.1376 15.5195C6.98174 13.0484 5.95166 11.3425 3.64697 9.7605L6.17353 9.18979V9.18979Z" fill="white"/>
</g>
<defs>
<clipPath id="clip0_153_708">
<rect width="20" height="20" fill="white"/>
</clipPath>
</defs>
</svg>
