<svg width="14" height="16" viewBox="0 0 14 16" fill="none" xmlns="http://www.w3.org/2000/svg">
<g clip-path="url(#clip0_757_225)">
<path d="M6.12746 15.1797C6.35542 15.1797 6.54015 15.3633 6.54015 15.5898C6.54015 15.8164 6.35542 16 6.12746 16H0.960322C0.695677 16 0.455924 15.8932 0.281677 15.7201C0.10743 15.5469 0 15.3086 0 15.0456V0.954427C0 0.691406 0.10743 0.453125 0.281677 0.279948C0.455924 0.106771 0.695677 0 0.960322 0H12.7541C13.0187 0 13.2585 0.108073 13.4327 0.279948C13.607 0.453125 13.7144 0.691406 13.7144 0.954427V7.48307C13.7144 7.70964 13.5297 7.89323 13.3017 7.89323C13.0737 7.89323 12.889 7.70964 12.889 7.48307V0.954427C12.889 0.917969 12.8733 0.884115 12.8484 0.860677C12.8235 0.835938 12.7894 0.820313 12.7541 0.820313H0.960322C0.923638 0.820313 0.889575 0.835938 0.864683 0.859375C0.841101 0.885417 0.825379 0.917969 0.825379 0.954427V15.0443C0.825379 15.0807 0.841101 15.1146 0.865993 15.138C0.890885 15.1628 0.924949 15.1784 0.961632 15.1784H6.12746V15.1797ZM12.9309 9.67969C12.8641 9.61589 12.7868 9.58594 12.6977 9.58724C12.6086 9.58854 12.5327 9.6237 12.4698 9.6888L11.9575 10.2188L13.3947 11.5977L13.9122 11.0625C13.9738 11 14 10.9193 13.9987 10.8307C13.9974 10.7435 13.9659 10.6641 13.9031 10.6042L12.9309 9.67969ZM10.2465 14.8451C10.0565 14.9049 9.86786 14.9674 9.67921 15.0286C9.48924 15.0911 9.30058 15.1549 9.11192 15.2174C8.66517 15.3633 8.41494 15.444 8.36253 15.4583C8.31144 15.474 8.34157 15.2656 8.45424 14.832L8.80928 13.4714L11.5016 10.6875L12.9375 12.0612L10.2465 14.8451ZM4.13738 5.34896C3.90941 5.34896 3.72469 5.16537 3.72469 4.9388C3.72469 4.71224 3.90941 4.52865 4.13738 4.52865H9.57964C9.8076 4.52865 9.99233 4.71224 9.99233 4.9388C9.99233 5.16537 9.8076 5.34896 9.57964 5.34896H4.13738ZM4.13738 11.168C3.90941 11.168 3.72338 10.9818 3.72338 10.7526C3.72338 10.5234 3.9081 10.3372 4.13738 10.3372H6.8192C7.04716 10.3372 7.2332 10.5234 7.2332 10.7526C7.2332 10.9818 7.04847 11.168 6.8192 11.168H4.13738ZM4.13738 8.25651C3.90941 8.25651 3.72469 8.07292 3.72469 7.84635C3.72469 7.61979 3.90941 7.4362 4.13738 7.4362H9.57964C9.8076 7.4362 9.99233 7.61979 9.99233 7.84635C9.99233 8.07292 9.8076 8.25651 9.57964 8.25651H4.13738Z" fill="white"/>
</g>
<defs>
<clipPath id="clip0_757_225">
<rect width="14" height="16" fill="white"/>
</clipPath>
</defs>
</svg>
