<svg width="28" height="32" viewBox="0 0 28 32" fill="none" xmlns="http://www.w3.org/2000/svg">
<g clip-path="url(#clip0_153_474)">
<path fill-rule="evenodd" clip-rule="evenodd" d="M20.3036 17.4849C22.3041 17.4849 24.1166 18.298 25.4303 19.6111C26.7483 20.9236 27.5614 22.7391 27.5614 24.7422C27.5614 26.7458 26.7483 28.5614 25.4353 29.8738L25.3528 29.9501C24.0453 31.2182 22.2648 32 20.3036 32C18.2999 32 16.485 31.1869 15.1725 29.8738C13.8595 28.5614 13.0464 26.7458 13.0464 24.7422C13.0464 22.7385 13.8595 20.9236 15.1725 19.6111C16.485 18.298 18.2999 17.4849 20.3036 17.4849ZM15.1938 2.37991V5.76602C15.2557 6.57412 15.5375 7.20909 16.0325 7.63158C16.545 8.06968 17.3112 8.3153 18.3255 8.33342L20.6954 8.33092L15.1938 2.37991V2.37991ZM20.8942 9.91024L18.313 9.90774C16.9075 9.88586 15.8 9.50775 15.0069 8.83028C14.1801 8.12343 13.7145 7.12097 13.6201 5.87852L13.6132 5.76977V1.58056H3.92922C3.283 1.58056 2.69489 1.84493 2.26991 2.26991C1.84493 2.69489 1.58056 3.283 1.58056 3.92922V24.959C1.58056 25.6027 1.84618 26.1909 2.27179 26.6165C2.69677 27.0414 3.2855 27.3071 3.92922 27.3071H11.3921C11.5508 27.8564 11.7589 28.3851 12.012 28.8876H3.92922C2.84926 28.8876 1.86555 28.4451 1.1537 27.7339C0.442483 27.0221 0 26.039 0 24.959V3.92922C0 2.85051 0.442483 1.86805 1.15308 1.15683C1.86805 0.442483 2.85051 0 3.92922 0H14.7963C15.0532 0 15.2813 0.122495 15.4256 0.312488L22.2623 7.70845C22.4022 7.86032 22.471 8.05156 22.471 8.2428L22.4729 15.725C21.9616 15.6019 21.4342 15.5219 20.8942 15.4881V9.91024V9.91024ZM6.53474 13.3157C6.09851 13.3157 5.74478 12.962 5.74478 12.5258C5.74478 12.0889 6.09851 11.7352 6.53474 11.7352H15.94C16.3762 11.7352 16.7306 12.0889 16.7306 12.5258C16.7306 12.962 16.3762 13.3157 15.94 13.3157H6.53474ZM6.53474 17.8343C6.09851 17.8343 5.74478 17.4806 5.74478 17.0437C5.74478 16.6075 6.09851 16.2537 6.53474 16.2537H15.4419C15.6738 16.2537 15.8825 16.3537 16.0275 16.5131C15.3387 16.8722 14.6975 17.316 14.1188 17.8343H6.53474ZM6.53474 22.3529C6.09851 22.3529 5.74478 21.9991 5.74478 21.5623C5.74478 21.126 6.09851 20.7723 6.53474 20.7723H11.922C11.6833 21.2754 11.4877 21.8041 11.3414 22.3529H6.53474V22.3529ZM23.0847 25.2921C23.3072 25.2834 23.4653 25.209 23.556 25.0703C23.8047 24.699 23.466 24.3322 23.2316 24.0741L20.7292 21.5298C20.4592 21.2635 20.1467 21.2604 19.8767 21.5298L17.3137 24.1434C17.0943 24.3909 16.8225 24.7284 17.0518 25.0703C17.145 25.209 17.3018 25.2834 17.5243 25.2921H18.758V27.2102C18.758 27.5752 19.0586 27.8783 19.4267 27.8783H21.1804C21.5492 27.8783 21.8498 27.5777 21.8498 27.2102V25.2921H23.0847Z" fill="#E6A31C"/>
</g>
<defs>
<clipPath id="clip0_153_474">
<rect width="27.5614" height="32" fill="white"/>
</clipPath>
</defs>
</svg>
