<svg width="33" height="32" viewBox="0 0 33 32" fill="none" xmlns="http://www.w3.org/2000/svg">
<g clip-path="url(#clip0_153_505)">
<path fill-rule="evenodd" clip-rule="evenodd" d="M4.06565 27.2705V25.8496H4.89211C4.89211 25.623 4.89211 25.3963 4.89211 25.1697H5.75856V16.8038H3.98834V14.8496H28.7715V16.8038H27.0013V25.1697H27.8677V25.8496H28.6942V27.2705H4.06565V27.2705ZM17.161 0.581216C20.0323 -1.40229 20.2456 2.52473 23.0662 0.0720097V4.07368C20.3762 6.49174 19.7977 2.58605 17.161 4.56955V0.581216ZM16.7558 0.215974V4.88681L29.6619 11.4878V13.57H3.17521V11.4905L16.0413 4.87081V0.215974H16.7558ZM30.3391 30.0379H30.2085V28.0703C20.9921 28.0703 11.7677 28.0703 2.55136 28.0703V30.0379H2.42073V30.0432H0V32H32.7598V30.0432H30.3391V30.0379ZM9.88553 25.8496H10.8853V25.1697H11.7517V16.8038H9.01908V25.1697H9.88553V25.8496ZM15.8814 25.8496H16.8838V25.1697H17.7476V16.8038H15.0149V25.1697H15.8814V25.8496ZM21.8745 25.8496H22.8769V25.1697H23.7434V16.8038H21.0081V25.1697H21.8745V25.8496Z" fill="#309700"/>
</g>
<defs>
<clipPath id="clip0_153_505">
<rect width="32.7598" height="32" fill="white"/>
</clipPath>
</defs>
</svg>
