<svg width="1439" height="375" viewBox="0 0 1439 375" fill="none" xmlns="http://www.w3.org/2000/svg">
<path d="M67.5714 52.625L33.2856 104.75H101.857L67.5714 52.625Z" fill="#444444" fill-opacity="0.1"/>
<path d="M67.5714 52.625L101.857 0.5H33.2856L67.5714 52.625Z" fill="black" fill-opacity="0.1"/>
<path d="M136.143 52.625L170.429 0.5H101.857L136.143 52.625Z" fill="#AAAAAA" fill-opacity="0.1"/>
<path d="M204.714 52.625L170.429 104.75H239L204.714 52.625Z" fill="#DDDDDD" fill-opacity="0.1"/>
<path d="M204.714 52.625L239 0.5H170.429L204.714 52.625Z" fill="#999999" fill-opacity="0.1"/>
<path d="M273.286 52.625L239 104.75H307.571L273.286 52.625Z" fill="black" fill-opacity="0.1"/>
<path d="M273.286 52.625L307.571 0.5H239L273.286 52.625Z" fill="#DDDDDD" fill-opacity="0.1"/>
<path d="M341.857 52.625L307.571 104.75H376.143L341.857 52.625Z" fill="#444444" fill-opacity="0.1"/>
<path d="M341.857 52.625L376.143 0.5H307.571L341.857 52.625Z" fill="white" fill-opacity="0.1"/>
<path d="M410.428 52.625L376.143 104.75H444.714L410.428 52.625Z" fill="#DDDDDD" fill-opacity="0.1"/>
<path d="M410.428 52.625L444.714 0.5H376.143L410.428 52.625Z" fill="#444444" fill-opacity="0.1"/>
<path d="M67.5714 156.875L33.2856 209H101.857L67.5714 156.875Z" fill="#DDDDDD" fill-opacity="0.1"/>
<path d="M67.5714 156.875L101.857 104.75H33.2856L67.5714 156.875Z" fill="black" fill-opacity="0.1"/>
<path d="M136.143 156.875L101.857 209H170.429L136.143 156.875Z" fill="#666666" fill-opacity="0.1"/>
<path d="M136.143 156.875L170.429 104.75H101.857L136.143 156.875Z" fill="#AAAAAA" fill-opacity="0.1"/>
<path d="M204.714 156.875L170.429 209H239L204.714 156.875Z" fill="#DDDDDD" fill-opacity="0.1"/>
<path d="M204.714 156.875L239 104.75H170.429L204.714 156.875Z" fill="#999999" fill-opacity="0.1"/>
<path d="M273.286 156.875L239 209H307.571L273.286 156.875Z" fill="#999999" fill-opacity="0.1"/>
<path d="M273.286 156.875L307.571 104.75H239L273.286 156.875Z" fill="white" fill-opacity="0.1"/>
<path d="M341.857 156.875L307.571 209H376.143L341.857 156.875Z" fill="black" fill-opacity="0.1"/>
<path d="M341.857 156.875L376.143 104.75H307.571L341.857 156.875Z" fill="#DDDDDD" fill-opacity="0.1"/>
<path d="M410.428 156.875L376.143 209H444.714L410.428 156.875Z" fill="#AAAAAA" fill-opacity="0.1"/>
<path d="M410.428 156.875L444.714 104.75H376.143L410.428 156.875Z" fill="#444444" fill-opacity="0.1"/>
<path d="M67.5714 261.125L33.2856 313.25H101.857L67.5714 261.125Z" fill="#222222" fill-opacity="0.1"/>
<path d="M136.143 261.125L101.857 313.25H170.429L136.143 261.125Z" fill="black" fill-opacity="0.1"/>
<path d="M136.143 261.125L170.429 209H101.857L136.143 261.125Z" fill="#DDDDDD" fill-opacity="0.1"/>
<path d="M204.714 261.125L239 209H170.429L204.714 261.125Z" fill="black" fill-opacity="0.1"/>
<path d="M273.286 261.125L239 313.25H307.571L273.286 261.125Z" fill="black" fill-opacity="0.1"/>
<path d="M273.286 261.125L307.571 209H239L273.286 261.125Z" fill="#444444" fill-opacity="0.1"/>
<path d="M341.857 261.125L307.571 313.25H376.143L341.857 261.125Z" fill="#AAAAAA" fill-opacity="0.1"/>
<path d="M341.857 261.125L376.143 209H307.571L341.857 261.125Z" fill="#666666" fill-opacity="0.1"/>
<path d="M410.428 261.125L376.143 313.25H444.714L410.428 261.125Z" fill="#999999" fill-opacity="0.1"/>
<path d="M101.857 0.5L67.5713 52.625H136.143L101.857 0.5Z" fill="#999999" fill-opacity="0.1"/>
<path d="M170.429 0.5L136.143 52.625H204.714L170.429 0.5Z" fill="#444444" fill-opacity="0.1"/>
<path d="M239 0.5L204.714 52.625H273.286L239 0.5Z" fill="white" fill-opacity="0.1"/>
<path d="M376.143 0.5L341.857 52.625H410.429L376.143 0.5Z" fill="black" fill-opacity="0.1"/>
<path d="M33.2857 104.75L-1 156.875H67.5714L33.2857 104.75Z" fill="#222222" fill-opacity="0.1"/>
<path d="M33.2857 104.75L67.5714 52.625H-1L33.2857 104.75Z" fill="white" fill-opacity="0.1"/>
<path d="M101.857 104.75L67.5713 156.875H136.143L101.857 104.75Z" fill="white" fill-opacity="0.1"/>
<path d="M101.857 104.75L136.143 52.625H67.5713L101.857 104.75Z" fill="#666666" fill-opacity="0.1"/>
<path d="M170.429 104.75L136.143 156.875H204.714L170.429 104.75Z" fill="#222222" fill-opacity="0.1"/>
<path d="M170.429 104.75L204.714 52.625H136.143L170.429 104.75Z" fill="white" fill-opacity="0.1"/>
<path d="M239 104.75L204.714 156.875H273.286L239 104.75Z" fill="#444444" fill-opacity="0.1"/>
<path d="M239 104.75L273.286 52.625H204.714L239 104.75Z" fill="#222222" fill-opacity="0.1"/>
<path d="M307.572 104.75L273.286 156.875H341.858L307.572 104.75Z" fill="#AAAAAA" fill-opacity="0.1"/>
<path d="M307.572 104.75L341.858 52.625H273.286L307.572 104.75Z" fill="#666666" fill-opacity="0.1"/>
<path d="M376.143 104.75L341.857 156.875H410.429L376.143 104.75Z" fill="white" fill-opacity="0.1"/>
<path d="M376.143 104.75L410.429 52.625H341.857L376.143 104.75Z" fill="#999999" fill-opacity="0.1"/>
<path d="M33.2857 209L-1 261.125H67.5714L33.2857 209Z" fill="black" fill-opacity="0.1"/>
<path d="M33.2857 209L67.5714 156.875H-1L33.2857 209Z" fill="#666666" fill-opacity="0.1"/>
<path d="M101.857 209L67.5713 261.125H136.143L101.857 209Z" fill="#AAAAAA" fill-opacity="0.1"/>
<path d="M101.857 209L136.143 156.875H67.5713L101.857 209Z" fill="#444444" fill-opacity="0.1"/>
<path d="M170.429 209L136.143 261.125H204.714L170.429 209Z" fill="#444444" fill-opacity="0.1"/>
<path d="M170.429 209L204.714 156.875H136.143L170.429 209Z" fill="#999999" fill-opacity="0.1"/>
<path d="M239 209L273.286 156.875H204.714L239 209Z" fill="#666666" fill-opacity="0.1"/>
<path d="M307.572 209L273.286 261.125H341.858L307.572 209Z" fill="#222222" fill-opacity="0.1"/>
<path d="M376.143 209L341.857 261.125H410.429L376.143 209Z" fill="white" fill-opacity="0.1"/>
<path d="M376.143 209L410.429 156.875H341.857L376.143 209Z" fill="#222222" fill-opacity="0.1"/>
<path d="M33.2857 313.25L67.5714 261.125H-1L33.2857 313.25Z" fill="#DDDDDD" fill-opacity="0.1"/>
<path d="M101.857 313.25L136.143 261.125H67.5713L101.857 313.25Z" fill="#444444" fill-opacity="0.1"/>
<path d="M170.429 313.25L204.714 261.125H136.143L170.429 313.25Z" fill="white" fill-opacity="0.1"/>
<path d="M239 313.25L273.286 261.125H204.714L239 313.25Z" fill="#AAAAAA" fill-opacity="0.1"/>
<path d="M307.572 313.25L341.858 261.125H273.286L307.572 313.25Z" fill="white" fill-opacity="0.1"/>
<path d="M376.143 313.25L410.429 261.125H341.857L376.143 313.25Z" fill="#222222" fill-opacity="0.1"/>
<path d="M444.714 104.75L410.429 156.875H479L444.714 104.75Z" fill="#222222" fill-opacity="0.1"/>
<path d="M444.714 104.75L479 52.625H410.429L444.714 104.75Z" fill="white" fill-opacity="0.1"/>
<path d="M444.714 209L410.429 261.125H479L444.714 209Z" fill="black" fill-opacity="0.1"/>
<path d="M444.714 209L479 156.875H410.429L444.714 209Z" fill="#666666" fill-opacity="0.1"/>
<path d="M444.714 313.25L479 261.125H410.429L444.714 313.25Z" fill="#DDDDDD" fill-opacity="0.1"/>
<path d="M67.5714 365.375L33.2856 417.5H101.857L67.5714 365.375Z" fill="#444444" fill-opacity="0.1"/>
<path d="M67.5714 365.375L101.857 313.25H33.2856L67.5714 365.375Z" fill="black" fill-opacity="0.1"/>
<path d="M136.143 365.375L170.429 313.25H101.857L136.143 365.375Z" fill="#AAAAAA" fill-opacity="0.1"/>
<path d="M204.714 365.375L170.429 417.5H239L204.714 365.375Z" fill="#DDDDDD" fill-opacity="0.1"/>
<path d="M204.714 365.375L239 313.25H170.429L204.714 365.375Z" fill="#999999" fill-opacity="0.1"/>
<path d="M273.286 365.375L239 417.5H307.571L273.286 365.375Z" fill="black" fill-opacity="0.1"/>
<path d="M273.286 365.375L307.571 313.25H239L273.286 365.375Z" fill="#DDDDDD" fill-opacity="0.1"/>
<path d="M341.857 365.375L307.571 417.5H376.143L341.857 365.375Z" fill="#444444" fill-opacity="0.1"/>
<path d="M341.857 365.375L376.143 313.25H307.571L341.857 365.375Z" fill="white" fill-opacity="0.1"/>
<path d="M410.428 365.375L376.143 417.5H444.714L410.428 365.375Z" fill="#DDDDDD" fill-opacity="0.1"/>
<path d="M410.428 365.375L444.714 313.25H376.143L410.428 365.375Z" fill="#444444" fill-opacity="0.1"/>
<path d="M101.857 313.25L67.5713 365.375H136.143L101.857 313.25Z" fill="#999999" fill-opacity="0.1"/>
<path d="M170.429 313.25L136.143 365.375H204.714L170.429 313.25Z" fill="#444444" fill-opacity="0.1"/>
<path d="M239 313.25L204.714 365.375H273.286L239 313.25Z" fill="white" fill-opacity="0.1"/>
<path d="M376.143 313.25L341.857 365.375H410.429L376.143 313.25Z" fill="black" fill-opacity="0.1"/>
<path d="M33.2857 417.5L67.5714 365.375H-1L33.2857 417.5Z" fill="white" fill-opacity="0.1"/>
<path d="M101.857 417.5L136.143 365.375H67.5713L101.857 417.5Z" fill="#666666" fill-opacity="0.1"/>
<path d="M170.429 417.5L204.714 365.375H136.143L170.429 417.5Z" fill="white" fill-opacity="0.1"/>
<path d="M239 417.5L273.286 365.375H204.714L239 417.5Z" fill="#222222" fill-opacity="0.1"/>
<path d="M307.572 417.5L341.858 365.375H273.286L307.572 417.5Z" fill="#666666" fill-opacity="0.1"/>
<path d="M376.143 417.5L410.429 365.375H341.857L376.143 417.5Z" fill="#999999" fill-opacity="0.1"/>
<path d="M444.714 417.5L479 365.375H410.429L444.714 417.5Z" fill="white" fill-opacity="0.1"/>
<path d="M547.571 52.625L513.286 104.75H581.857L547.571 52.625Z" fill="#444444" fill-opacity="0.1"/>
<path d="M547.572 52.625L581.857 0.5H513.286L547.572 52.625Z" fill="black" fill-opacity="0.1"/>
<path d="M616.143 52.625L650.429 0.5H581.857L616.143 52.625Z" fill="#AAAAAA" fill-opacity="0.1"/>
<path d="M684.715 52.625L650.429 104.75H719L684.715 52.625Z" fill="#DDDDDD" fill-opacity="0.1"/>
<path d="M684.715 52.625L719 0.5H650.429L684.715 52.625Z" fill="#999999" fill-opacity="0.1"/>
<path d="M753.286 52.625L719 104.75H787.572L753.286 52.625Z" fill="black" fill-opacity="0.1"/>
<path d="M753.286 52.625L787.572 0.5H719L753.286 52.625Z" fill="#DDDDDD" fill-opacity="0.1"/>
<path d="M821.857 52.625L787.571 104.75H856.143L821.857 52.625Z" fill="#444444" fill-opacity="0.1"/>
<path d="M821.857 52.625L856.143 0.5H787.571L821.857 52.625Z" fill="white" fill-opacity="0.1"/>
<path d="M890.429 52.625L856.143 104.75H924.714L890.429 52.625Z" fill="#DDDDDD" fill-opacity="0.1"/>
<path d="M890.429 52.625L924.714 0.5H856.143L890.429 52.625Z" fill="#444444" fill-opacity="0.1"/>
<path d="M547.571 156.875L513.286 209H581.857L547.571 156.875Z" fill="#DDDDDD" fill-opacity="0.1"/>
<path d="M547.571 156.875L581.857 104.75H513.286L547.571 156.875Z" fill="black" fill-opacity="0.1"/>
<path d="M616.143 156.875L581.857 209H650.428L616.143 156.875Z" fill="#666666" fill-opacity="0.1"/>
<path d="M616.143 156.875L650.428 104.75H581.857L616.143 156.875Z" fill="#AAAAAA" fill-opacity="0.1"/>
<path d="M684.715 156.875L650.429 209H719L684.715 156.875Z" fill="#DDDDDD" fill-opacity="0.1"/>
<path d="M684.715 156.875L719 104.75H650.429L684.715 156.875Z" fill="#999999" fill-opacity="0.1"/>
<path d="M753.286 156.875L719 209H787.572L753.286 156.875Z" fill="#999999" fill-opacity="0.1"/>
<path d="M753.286 156.875L787.572 104.75H719L753.286 156.875Z" fill="white" fill-opacity="0.1"/>
<path d="M821.857 156.875L787.571 209H856.143L821.857 156.875Z" fill="black" fill-opacity="0.1"/>
<path d="M821.857 156.875L856.143 104.75H787.571L821.857 156.875Z" fill="#DDDDDD" fill-opacity="0.1"/>
<path d="M890.429 156.875L856.143 209H924.714L890.429 156.875Z" fill="#AAAAAA" fill-opacity="0.1"/>
<path d="M890.429 156.875L924.714 104.75H856.143L890.429 156.875Z" fill="#444444" fill-opacity="0.1"/>
<path d="M547.571 261.125L513.286 313.25H581.857L547.571 261.125Z" fill="#222222" fill-opacity="0.1"/>
<path d="M616.143 261.125L581.857 313.25H650.428L616.143 261.125Z" fill="black" fill-opacity="0.1"/>
<path d="M616.143 261.125L650.428 209H581.857L616.143 261.125Z" fill="#DDDDDD" fill-opacity="0.1"/>
<path d="M684.715 261.125L719 209H650.429L684.715 261.125Z" fill="black" fill-opacity="0.1"/>
<path d="M753.286 261.125L719 313.25H787.572L753.286 261.125Z" fill="black" fill-opacity="0.1"/>
<path d="M753.286 261.125L787.572 209H719L753.286 261.125Z" fill="#444444" fill-opacity="0.1"/>
<path d="M821.857 261.125L787.571 313.25H856.143L821.857 261.125Z" fill="#AAAAAA" fill-opacity="0.1"/>
<path d="M821.857 261.125L856.143 209H787.571L821.857 261.125Z" fill="#666666" fill-opacity="0.1"/>
<path d="M890.429 261.125L856.143 313.25H924.714L890.429 261.125Z" fill="#999999" fill-opacity="0.1"/>
<path d="M581.857 0.5L547.572 52.625H616.143L581.857 0.5Z" fill="#999999" fill-opacity="0.1"/>
<path d="M650.429 0.5L616.143 52.625H684.714L650.429 0.5Z" fill="#444444" fill-opacity="0.1"/>
<path d="M719 0.5L684.714 52.625H753.286L719 0.5Z" fill="white" fill-opacity="0.1"/>
<path d="M856.143 0.5L821.857 52.625H890.429L856.143 0.5Z" fill="black" fill-opacity="0.1"/>
<path d="M513.286 104.75L479 156.875H547.572L513.286 104.75Z" fill="#222222" fill-opacity="0.1"/>
<path d="M513.286 104.75L547.572 52.625H479L513.286 104.75Z" fill="white" fill-opacity="0.1"/>
<path d="M581.857 104.75L547.571 156.875H616.143L581.857 104.75Z" fill="white" fill-opacity="0.1"/>
<path d="M581.857 104.75L616.143 52.625H547.571L581.857 104.75Z" fill="#666666" fill-opacity="0.1"/>
<path d="M650.428 104.75L616.143 156.875H684.714L650.428 104.75Z" fill="#222222" fill-opacity="0.1"/>
<path d="M650.428 104.75L684.714 52.625H616.143L650.428 104.75Z" fill="white" fill-opacity="0.1"/>
<path d="M719 104.75L684.714 156.875H753.286L719 104.75Z" fill="#444444" fill-opacity="0.1"/>
<path d="M719 104.75L753.286 52.625H684.714L719 104.75Z" fill="#222222" fill-opacity="0.1"/>
<path d="M787.571 104.75L753.286 156.875H821.857L787.571 104.75Z" fill="#AAAAAA" fill-opacity="0.1"/>
<path d="M787.571 104.75L821.857 52.625H753.286L787.571 104.75Z" fill="#666666" fill-opacity="0.1"/>
<path d="M856.143 104.75L821.857 156.875H890.429L856.143 104.75Z" fill="white" fill-opacity="0.1"/>
<path d="M856.143 104.75L890.429 52.625H821.857L856.143 104.75Z" fill="#999999" fill-opacity="0.1"/>
<path d="M513.286 209L479 261.125H547.572L513.286 209Z" fill="black" fill-opacity="0.1"/>
<path d="M513.286 209L547.572 156.875H479L513.286 209Z" fill="#666666" fill-opacity="0.1"/>
<path d="M581.857 209L547.571 261.125H616.143L581.857 209Z" fill="#AAAAAA" fill-opacity="0.1"/>
<path d="M581.857 209L616.143 156.875H547.571L581.857 209Z" fill="#444444" fill-opacity="0.1"/>
<path d="M650.428 209L616.143 261.125H684.714L650.428 209Z" fill="#444444" fill-opacity="0.1"/>
<path d="M650.428 209L684.714 156.875H616.143L650.428 209Z" fill="#999999" fill-opacity="0.1"/>
<path d="M719 209L753.286 156.875H684.714L719 209Z" fill="#666666" fill-opacity="0.1"/>
<path d="M787.571 209L753.286 261.125H821.857L787.571 209Z" fill="#222222" fill-opacity="0.1"/>
<path d="M856.143 209L821.857 261.125H890.429L856.143 209Z" fill="white" fill-opacity="0.1"/>
<path d="M856.143 209L890.429 156.875H821.857L856.143 209Z" fill="#222222" fill-opacity="0.1"/>
<path d="M513.286 313.25L547.572 261.125H479L513.286 313.25Z" fill="#DDDDDD" fill-opacity="0.1"/>
<path d="M581.857 313.25L616.143 261.125H547.571L581.857 313.25Z" fill="#444444" fill-opacity="0.1"/>
<path d="M650.428 313.25L684.714 261.125H616.143L650.428 313.25Z" fill="white" fill-opacity="0.1"/>
<path d="M719 313.25L753.286 261.125H684.714L719 313.25Z" fill="#AAAAAA" fill-opacity="0.1"/>
<path d="M787.571 313.25L821.857 261.125H753.286L787.571 313.25Z" fill="white" fill-opacity="0.1"/>
<path d="M856.143 313.25L890.429 261.125H821.857L856.143 313.25Z" fill="#222222" fill-opacity="0.1"/>
<path d="M924.714 104.75L890.429 156.875H959L924.714 104.75Z" fill="#222222" fill-opacity="0.1"/>
<path d="M924.714 104.75L959 52.625H890.429L924.714 104.75Z" fill="white" fill-opacity="0.1"/>
<path d="M924.714 209L890.429 261.125H959L924.714 209Z" fill="black" fill-opacity="0.1"/>
<path d="M924.714 209L959 156.875H890.429L924.714 209Z" fill="#666666" fill-opacity="0.1"/>
<path d="M924.714 313.25L959 261.125H890.429L924.714 313.25Z" fill="#DDDDDD" fill-opacity="0.1"/>
<path d="M547.571 365.375L513.286 417.5H581.857L547.571 365.375Z" fill="#444444" fill-opacity="0.1"/>
<path d="M547.571 365.375L581.857 313.25H513.286L547.571 365.375Z" fill="black" fill-opacity="0.1"/>
<path d="M616.143 365.375L650.428 313.25H581.857L616.143 365.375Z" fill="#AAAAAA" fill-opacity="0.1"/>
<path d="M684.714 365.375L650.429 417.5H719L684.714 365.375Z" fill="#DDDDDD" fill-opacity="0.1"/>
<path d="M684.714 365.375L719 313.25H650.429L684.714 365.375Z" fill="#999999" fill-opacity="0.1"/>
<path d="M753.286 365.375L719 417.5H787.571L753.286 365.375Z" fill="black" fill-opacity="0.1"/>
<path d="M753.286 365.375L787.571 313.25H719L753.286 365.375Z" fill="#DDDDDD" fill-opacity="0.1"/>
<path d="M821.857 365.375L787.571 417.5H856.143L821.857 365.375Z" fill="#444444" fill-opacity="0.1"/>
<path d="M821.857 365.375L856.143 313.25H787.571L821.857 365.375Z" fill="white" fill-opacity="0.1"/>
<path d="M890.429 365.375L856.143 417.5H924.714L890.429 365.375Z" fill="#DDDDDD" fill-opacity="0.1"/>
<path d="M890.429 365.375L924.714 313.25H856.143L890.429 365.375Z" fill="#444444" fill-opacity="0.1"/>
<path d="M581.857 313.25L547.571 365.375H616.143L581.857 313.25Z" fill="#999999" fill-opacity="0.1"/>
<path d="M650.428 313.25L616.143 365.375H684.714L650.428 313.25Z" fill="#444444" fill-opacity="0.1"/>
<path d="M719 313.25L684.714 365.375H753.286L719 313.25Z" fill="white" fill-opacity="0.1"/>
<path d="M856.143 313.25L821.857 365.375H890.429L856.143 313.25Z" fill="black" fill-opacity="0.1"/>
<path d="M513.286 417.5L547.571 365.375H479L513.286 417.5Z" fill="white" fill-opacity="0.1"/>
<path d="M581.857 417.5L616.143 365.375H547.571L581.857 417.5Z" fill="#666666" fill-opacity="0.1"/>
<path d="M650.428 417.5L684.714 365.375H616.143L650.428 417.5Z" fill="white" fill-opacity="0.1"/>
<path d="M719 417.5L753.286 365.375H684.714L719 417.5Z" fill="#222222" fill-opacity="0.1"/>
<path d="M787.571 417.5L821.857 365.375H753.286L787.571 417.5Z" fill="#666666" fill-opacity="0.1"/>
<path d="M856.143 417.5L890.429 365.375H821.857L856.143 417.5Z" fill="#999999" fill-opacity="0.1"/>
<path d="M924.714 417.5L959 365.375H890.429L924.714 417.5Z" fill="white" fill-opacity="0.1"/>
<path d="M1027.57 52.625L993.286 104.75H1061.86L1027.57 52.625Z" fill="#444444" fill-opacity="0.1"/>
<path d="M1027.57 52.625L1061.86 0.5H993.286L1027.57 52.625Z" fill="black" fill-opacity="0.1"/>
<path d="M1096.14 52.625L1130.43 0.5H1061.86L1096.14 52.625Z" fill="#AAAAAA" fill-opacity="0.1"/>
<path d="M1164.71 52.625L1130.43 104.75H1199L1164.71 52.625Z" fill="#DDDDDD" fill-opacity="0.1"/>
<path d="M1164.71 52.625L1199 0.5H1130.43L1164.71 52.625Z" fill="#999999" fill-opacity="0.1"/>
<path d="M1233.29 52.625L1199 104.75H1267.57L1233.29 52.625Z" fill="black" fill-opacity="0.1"/>
<path d="M1233.29 52.625L1267.57 0.5H1199L1233.29 52.625Z" fill="#DDDDDD" fill-opacity="0.1"/>
<path d="M1301.86 52.625L1267.57 104.75H1336.14L1301.86 52.625Z" fill="#444444" fill-opacity="0.1"/>
<path d="M1301.86 52.625L1336.14 0.5H1267.57L1301.86 52.625Z" fill="white" fill-opacity="0.1"/>
<path d="M1370.43 52.625L1336.14 104.75H1404.71L1370.43 52.625Z" fill="#DDDDDD" fill-opacity="0.1"/>
<path d="M1370.43 52.625L1404.71 0.5H1336.14L1370.43 52.625Z" fill="#444444" fill-opacity="0.1"/>
<path d="M1027.57 156.875L993.286 209H1061.86L1027.57 156.875Z" fill="#DDDDDD" fill-opacity="0.1"/>
<path d="M1027.57 156.875L1061.86 104.75H993.286L1027.57 156.875Z" fill="black" fill-opacity="0.1"/>
<path d="M1096.14 156.875L1061.86 209H1130.43L1096.14 156.875Z" fill="#666666" fill-opacity="0.1"/>
<path d="M1096.14 156.875L1130.43 104.75H1061.86L1096.14 156.875Z" fill="#AAAAAA" fill-opacity="0.1"/>
<path d="M1164.71 156.875L1130.43 209H1199L1164.71 156.875Z" fill="#DDDDDD" fill-opacity="0.1"/>
<path d="M1164.71 156.875L1199 104.75H1130.43L1164.71 156.875Z" fill="#999999" fill-opacity="0.1"/>
<path d="M1233.29 156.875L1199 209H1267.57L1233.29 156.875Z" fill="#999999" fill-opacity="0.1"/>
<path d="M1233.29 156.875L1267.57 104.75H1199L1233.29 156.875Z" fill="white" fill-opacity="0.1"/>
<path d="M1301.86 156.875L1267.57 209H1336.14L1301.86 156.875Z" fill="black" fill-opacity="0.1"/>
<path d="M1301.86 156.875L1336.14 104.75H1267.57L1301.86 156.875Z" fill="#DDDDDD" fill-opacity="0.1"/>
<path d="M1370.43 156.875L1336.14 209H1404.71L1370.43 156.875Z" fill="#AAAAAA" fill-opacity="0.1"/>
<path d="M1370.43 156.875L1404.71 104.75H1336.14L1370.43 156.875Z" fill="#444444" fill-opacity="0.1"/>
<path d="M1027.57 261.125L993.286 313.25H1061.86L1027.57 261.125Z" fill="#222222" fill-opacity="0.1"/>
<path d="M1096.14 261.125L1061.86 313.25H1130.43L1096.14 261.125Z" fill="black" fill-opacity="0.1"/>
<path d="M1096.14 261.125L1130.43 209H1061.86L1096.14 261.125Z" fill="#DDDDDD" fill-opacity="0.1"/>
<path d="M1164.71 261.125L1199 209H1130.43L1164.71 261.125Z" fill="black" fill-opacity="0.1"/>
<path d="M1233.29 261.125L1199 313.25H1267.57L1233.29 261.125Z" fill="black" fill-opacity="0.1"/>
<path d="M1233.29 261.125L1267.57 209H1199L1233.29 261.125Z" fill="#444444" fill-opacity="0.1"/>
<path d="M1301.86 261.125L1267.57 313.25H1336.14L1301.86 261.125Z" fill="#AAAAAA" fill-opacity="0.1"/>
<path d="M1301.86 261.125L1336.14 209H1267.57L1301.86 261.125Z" fill="#666666" fill-opacity="0.1"/>
<path d="M1370.43 261.125L1336.14 313.25H1404.71L1370.43 261.125Z" fill="#999999" fill-opacity="0.1"/>
<path d="M1061.86 0.5L1027.57 52.625H1096.14L1061.86 0.5Z" fill="#999999" fill-opacity="0.1"/>
<path d="M1130.43 0.5L1096.14 52.625H1164.71L1130.43 0.5Z" fill="#444444" fill-opacity="0.1"/>
<path d="M1199 0.5L1164.71 52.625H1233.29L1199 0.5Z" fill="white" fill-opacity="0.1"/>
<path d="M1336.14 0.5L1301.86 52.625H1370.43L1336.14 0.5Z" fill="black" fill-opacity="0.1"/>
<path d="M993.286 104.75L959 156.875H1027.57L993.286 104.75Z" fill="#222222" fill-opacity="0.1"/>
<path d="M993.286 104.75L1027.57 52.625H959L993.286 104.75Z" fill="white" fill-opacity="0.1"/>
<path d="M1061.86 104.75L1027.57 156.875H1096.14L1061.86 104.75Z" fill="white" fill-opacity="0.1"/>
<path d="M1061.86 104.75L1096.14 52.625H1027.57L1061.86 104.75Z" fill="#666666" fill-opacity="0.1"/>
<path d="M1130.43 104.75L1096.14 156.875H1164.71L1130.43 104.75Z" fill="#222222" fill-opacity="0.1"/>
<path d="M1130.43 104.75L1164.71 52.625H1096.14L1130.43 104.75Z" fill="white" fill-opacity="0.1"/>
<path d="M1199 104.75L1164.71 156.875H1233.29L1199 104.75Z" fill="#444444" fill-opacity="0.1"/>
<path d="M1199 104.75L1233.29 52.625H1164.71L1199 104.75Z" fill="#222222" fill-opacity="0.1"/>
<path d="M1267.57 104.75L1233.29 156.875H1301.86L1267.57 104.75Z" fill="#AAAAAA" fill-opacity="0.1"/>
<path d="M1267.57 104.75L1301.86 52.625H1233.29L1267.57 104.75Z" fill="#666666" fill-opacity="0.1"/>
<path d="M1336.14 104.75L1301.86 156.875H1370.43L1336.14 104.75Z" fill="white" fill-opacity="0.1"/>
<path d="M1336.14 104.75L1370.43 52.625H1301.86L1336.14 104.75Z" fill="#999999" fill-opacity="0.1"/>
<path d="M993.286 209L959 261.125H1027.57L993.286 209Z" fill="black" fill-opacity="0.1"/>
<path d="M993.286 209L1027.57 156.875H959L993.286 209Z" fill="#666666" fill-opacity="0.1"/>
<path d="M1061.86 209L1027.57 261.125H1096.14L1061.86 209Z" fill="#AAAAAA" fill-opacity="0.1"/>
<path d="M1061.86 209L1096.14 156.875H1027.57L1061.86 209Z" fill="#444444" fill-opacity="0.1"/>
<path d="M1130.43 209L1096.14 261.125H1164.71L1130.43 209Z" fill="#444444" fill-opacity="0.1"/>
<path d="M1130.43 209L1164.71 156.875H1096.14L1130.43 209Z" fill="#999999" fill-opacity="0.1"/>
<path d="M1199 209L1233.29 156.875H1164.71L1199 209Z" fill="#666666" fill-opacity="0.1"/>
<path d="M1267.57 209L1233.29 261.125H1301.86L1267.57 209Z" fill="#222222" fill-opacity="0.1"/>
<path d="M1336.14 209L1301.86 261.125H1370.43L1336.14 209Z" fill="white" fill-opacity="0.1"/>
<path d="M1336.14 209L1370.43 156.875H1301.86L1336.14 209Z" fill="#222222" fill-opacity="0.1"/>
<path d="M993.286 313.25L1027.57 261.125H959L993.286 313.25Z" fill="#DDDDDD" fill-opacity="0.1"/>
<path d="M1061.86 313.25L1096.14 261.125H1027.57L1061.86 313.25Z" fill="#444444" fill-opacity="0.1"/>
<path d="M1130.43 313.25L1164.71 261.125H1096.14L1130.43 313.25Z" fill="white" fill-opacity="0.1"/>
<path d="M1199 313.25L1233.29 261.125H1164.71L1199 313.25Z" fill="#AAAAAA" fill-opacity="0.1"/>
<path d="M1267.57 313.25L1301.86 261.125H1233.29L1267.57 313.25Z" fill="white" fill-opacity="0.1"/>
<path d="M1336.14 313.25L1370.43 261.125H1301.86L1336.14 313.25Z" fill="#222222" fill-opacity="0.1"/>
<path d="M1404.71 104.75L1370.43 156.875H1439L1404.71 104.75Z" fill="#222222" fill-opacity="0.1"/>
<path d="M1404.71 104.75L1439 52.625H1370.43L1404.71 104.75Z" fill="white" fill-opacity="0.1"/>
<path d="M1404.71 209L1370.43 261.125H1439L1404.71 209Z" fill="black" fill-opacity="0.1"/>
<path d="M1404.71 209L1439 156.875H1370.43L1404.71 209Z" fill="#666666" fill-opacity="0.1"/>
<path d="M1404.71 313.25L1439 261.125H1370.43L1404.71 313.25Z" fill="#DDDDDD" fill-opacity="0.1"/>
<path d="M1027.57 365.375L993.286 417.5H1061.86L1027.57 365.375Z" fill="#444444" fill-opacity="0.1"/>
<path d="M1027.57 365.375L1061.86 313.25H993.286L1027.57 365.375Z" fill="black" fill-opacity="0.1"/>
<path d="M1096.14 365.375L1130.43 313.25H1061.86L1096.14 365.375Z" fill="#AAAAAA" fill-opacity="0.1"/>
<path d="M1164.71 365.375L1130.43 417.5H1199L1164.71 365.375Z" fill="#DDDDDD" fill-opacity="0.1"/>
<path d="M1164.71 365.375L1199 313.25H1130.43L1164.71 365.375Z" fill="#999999" fill-opacity="0.1"/>
<path d="M1233.29 365.375L1199 417.5H1267.57L1233.29 365.375Z" fill="black" fill-opacity="0.1"/>
<path d="M1233.29 365.375L1267.57 313.25H1199L1233.29 365.375Z" fill="#DDDDDD" fill-opacity="0.1"/>
<path d="M1301.86 365.375L1267.57 417.5H1336.14L1301.86 365.375Z" fill="#444444" fill-opacity="0.1"/>
<path d="M1301.86 365.375L1336.14 313.25H1267.57L1301.86 365.375Z" fill="white" fill-opacity="0.1"/>
<path d="M1370.43 365.375L1336.14 417.5H1404.71L1370.43 365.375Z" fill="#DDDDDD" fill-opacity="0.1"/>
<path d="M1370.43 365.375L1404.71 313.25H1336.14L1370.43 365.375Z" fill="#444444" fill-opacity="0.1"/>
<path d="M1061.86 313.25L1027.57 365.375H1096.14L1061.86 313.25Z" fill="#999999" fill-opacity="0.1"/>
<path d="M1130.43 313.25L1096.14 365.375H1164.71L1130.43 313.25Z" fill="#444444" fill-opacity="0.1"/>
<path d="M1199 313.25L1164.71 365.375H1233.29L1199 313.25Z" fill="white" fill-opacity="0.1"/>
<path d="M1336.14 313.25L1301.86 365.375H1370.43L1336.14 313.25Z" fill="black" fill-opacity="0.1"/>
<path d="M993.286 417.5L1027.57 365.375H959L993.286 417.5Z" fill="white" fill-opacity="0.1"/>
<path d="M1061.86 417.5L1096.14 365.375H1027.57L1061.86 417.5Z" fill="#666666" fill-opacity="0.1"/>
<path d="M1130.43 417.5L1164.71 365.375H1096.14L1130.43 417.5Z" fill="white" fill-opacity="0.1"/>
<path d="M1199 417.5L1233.29 365.375H1164.71L1199 417.5Z" fill="#222222" fill-opacity="0.1"/>
<path d="M1267.57 417.5L1301.86 365.375H1233.29L1267.57 417.5Z" fill="#666666" fill-opacity="0.1"/>
<path d="M1336.14 417.5L1370.43 365.375H1301.86L1336.14 417.5Z" fill="#999999" fill-opacity="0.1"/>
<path d="M1404.71 417.5L1439 365.375H1370.43L1404.71 417.5Z" fill="white" fill-opacity="0.1"/>
</svg>
