<svg width="516" height="447" viewBox="0 0 516 447" fill="none" xmlns="http://www.w3.org/2000/svg">
<path d="M516 347.637H0V347.895H516V347.637Z" fill="#EBEBEB"/>
<path d="M464.297 364.241H430.117V364.499H464.297V364.241Z" fill="#EBEBEB"/>
<path d="M341.82 367.048H332.852V367.306H341.82V367.048Z" fill="#EBEBEB"/>
<path d="M429.085 354.665H409.281V354.923H429.085V354.665Z" fill="#EBEBEB"/>
<path d="M98.7127 356.398H54.1406V356.656H98.7127V356.398Z" fill="#EBEBEB"/>
<path d="M114.439 356.398H107.906V356.656H114.439V356.398Z" fill="#EBEBEB"/>
<path d="M232.354 360.753H135.676V361.011H232.354V360.753Z" fill="#EBEBEB"/>
<path d="M244.585 301.609H45.316C43.7549 301.607 42.2588 300.985 41.1559 299.88C40.053 298.775 39.4336 297.278 39.4336 295.717V15.6009C39.4472 14.0488 40.0726 12.5647 41.174 11.471C42.2754 10.3774 43.7638 9.76242 45.316 9.75977H244.585C246.148 9.75977 247.647 10.3806 248.752 11.4857C249.857 12.5908 250.478 14.0896 250.478 15.6525V295.717C250.478 297.279 249.857 298.778 248.752 299.883C247.647 300.989 246.148 301.609 244.585 301.609V301.609ZM45.316 9.96617C43.8234 9.9689 42.3928 10.5638 41.3383 11.6202C40.2838 12.6766 39.6916 14.1083 39.6916 15.6009V295.717C39.6916 297.209 40.2838 298.641 41.3383 299.697C42.3928 300.754 43.8234 301.349 45.316 301.351H244.585C246.078 301.349 247.51 300.754 248.566 299.698C249.622 298.642 250.217 297.21 250.22 295.717V15.6009C250.217 14.1073 249.622 12.6757 248.566 11.6195C247.51 10.5634 246.078 9.96889 244.585 9.96617H45.316Z" fill="#EBEBEB"/>
<path d="M467.816 301.609H268.537C266.975 301.607 265.478 300.985 264.373 299.88C263.269 298.776 262.647 297.279 262.645 295.717V15.6009C262.661 14.0478 263.289 12.5638 264.392 11.4704C265.495 10.377 266.984 9.7624 268.537 9.75977H467.816C469.367 9.76514 470.853 10.3813 471.952 11.4747C473.051 12.5681 473.675 14.0506 473.689 15.6009V295.717C473.689 297.276 473.071 298.772 471.97 299.876C470.869 300.981 469.376 301.604 467.816 301.609V301.609ZM268.537 9.96617C267.044 9.96889 265.612 10.5634 264.556 11.6195C263.5 12.6757 262.905 14.1073 262.903 15.6009V295.717C262.905 297.21 263.5 298.642 264.556 299.698C265.612 300.754 267.044 301.349 268.537 301.351H467.816C469.31 301.349 470.742 300.754 471.798 299.698C472.854 298.642 473.448 297.21 473.451 295.717V15.6009C473.448 14.1073 472.854 12.6757 471.798 11.6195C470.742 10.5634 469.31 9.96889 467.816 9.96617H268.537Z" fill="#EBEBEB"/>
<path d="M62.8064 156.19H138.473L138.473 31.0811L62.8064 31.0811L62.8064 156.19Z" fill="#F5F5F5"/>
<path d="M62.7972 31.0706H61.3008V156.18H62.7972V31.0706Z" fill="#E0E0E0"/>
<path d="M70.4843 150.679H130.805V36.5813L70.4843 36.5813L70.4843 150.679Z" fill="#FAFAFA"/>
<path d="M156.326 200.102H231.992L231.992 74.9927L156.326 74.9927V200.102Z" fill="#F5F5F5"/>
<path d="M156.328 75.0029H154.832V200.112H156.328V75.0029Z" fill="#E0E0E0"/>
<path d="M164.004 194.601H224.324V80.5032L164.004 80.5032V194.601Z" fill="#FAFAFA"/>
<path d="M107.536 315.304C109.414 281.248 104.44 226.552 99.0633 207.573C98.3512 205.066 97.5463 202.155 96.3182 201.774C92.8094 200.659 91.2304 206.16 91.6639 208.058C93.7279 217.202 95.6577 239.896 97.5463 279.37C98.4854 298.978 97.5463 312.476 100.064 315.314L107.536 315.304Z" fill="#E6E6E6"/>
<path d="M101.941 239.4C106.874 223.456 170.053 207.078 151.838 224.23C147.308 228.502 126.213 239.762 117.555 251.599C110.826 260.794 104.025 276.263 102.23 284.839C101.445 266.8 98.6591 250.03 101.941 239.4Z" fill="#E6E6E6"/>
<path d="M109.132 259.617C120.133 235.355 155.314 231 145.861 243.807C142.146 248.833 128.523 254.571 119.855 266.408C113.126 275.603 106.325 291.062 104.54 299.649C103.745 281.599 104.54 269.752 109.132 259.617Z" fill="#E6E6E6"/>
<path d="M95.3047 257.553C82.2809 226.345 35.232 223.858 47.7502 238.358C52.5077 243.879 69.1332 253.982 81.6927 267.006C91.4554 277.12 102.456 293.838 106.203 303.126C103.777 283.983 100.558 270.144 95.3047 257.553Z" fill="#E6E6E6"/>
<path d="M100.775 222.63C112.436 201.258 147.731 198.967 137.648 210.659C133.696 215.262 120.837 221.093 112.436 232.579C105.904 241.495 98.0606 253.136 96.3165 261.475C95.5529 243.951 95.6045 232.114 100.775 222.63Z" fill="#E6E6E6"/>
<path d="M90.6186 223.053C81.4235 209.761 40.2467 195.148 50.9382 207.181C62.1973 219.803 70.1953 217.635 80.8662 228.657C89.1222 237.223 98.4102 251.423 101.609 259.204C99.5351 242.992 97.2028 232.548 90.6186 223.053Z" fill="#E6E6E6"/>
<path d="M101.549 207.749C107.39 197.243 131.477 189.513 125.192 197.573C120.806 203.167 115.543 207.006 109.96 214.622C105.636 220.546 99.7534 227.986 98.6079 233.508C98.0919 221.898 98.0403 214.013 101.549 207.749Z" fill="#E6E6E6"/>
<path d="M92.0429 210.928C86.1605 204.405 54.6948 188.925 61.9188 198.863C64.7362 202.775 76.7383 212.279 84.8189 220.68C91.1038 227.182 97.9975 232.486 100.402 238.399C98.8128 226.108 97.9356 217.439 92.0429 210.928Z" fill="#E6E6E6"/>
<path d="M100.104 233.817C91.5073 224.302 28.834 212.042 44.9435 222.548C50.4544 226.139 74.6857 232.31 86.5021 244.56C95.6766 254.065 98.979 269.834 102.498 278.472C111.765 263.291 108.711 243.343 100.104 233.817Z" fill="#E6E6E6"/>
<path d="M89.3718 313.921L90.1768 342.394C90.2594 347.802 91.5184 347.637 93.0458 347.637H113.304C114.821 347.637 116.08 347.802 116.173 342.394L116.978 313.921C117.071 308.059 115.76 303.116 114.109 303.116H92.2408C90.5896 303.116 89.279 308.059 89.3718 313.921Z" fill="#F5F5F5"/>
<path d="M88.1652 308.307H118.186C118.383 308.319 118.578 308.26 118.735 308.14C118.892 308.021 119.001 307.85 119.043 307.657L119.755 302.208C119.76 302.096 119.741 301.984 119.699 301.88C119.657 301.776 119.593 301.683 119.512 301.605C119.431 301.528 119.334 301.469 119.228 301.432C119.122 301.396 119.01 301.382 118.898 301.393H87.4428C87.3316 301.384 87.2198 301.399 87.1147 301.436C87.0096 301.473 86.9135 301.532 86.8327 301.609C86.7519 301.686 86.6882 301.779 86.6458 301.882C86.6033 301.985 86.583 302.096 86.5863 302.208L87.2983 307.657C87.3421 307.85 87.4533 308.022 87.6122 308.141C87.771 308.261 87.9671 308.319 88.1652 308.307V308.307Z" fill="#F5F5F5"/>
<path d="M300.178 187.842H277.453V340.743H300.178V187.842Z" fill="#F0F0F0"/>
<path d="M454.082 340.743H281.82V347.636H454.082V340.743Z" fill="#F0F0F0"/>
<path d="M300.178 340.743H458.445V187.842L300.178 187.842V340.743Z" fill="#F5F5F5"/>
<path d="M297.824 181.825H274.594V187.842H297.824V181.825Z" fill="#F0F0F0"/>
<path d="M297.826 187.842L461.305 187.842V181.825L297.826 181.825V187.842Z" fill="#FAFAFA"/>
<path d="M450.158 260.03H308.465V200.577H450.158V260.03ZM309.806 258.73H448.858V201.877H309.765L309.806 258.73Z" fill="#E0E0E0"/>
<path d="M450.158 328.008H308.465V269.38H450.158V328.008ZM309.806 326.708H448.858V270.68H309.765L309.806 326.708Z" fill="#E0E0E0"/>
<path d="M406.898 212.269H351.727C351.079 212.266 350.459 212.008 350.001 211.55C349.543 211.092 349.284 210.471 349.281 209.823V209.823C349.284 209.175 349.543 208.555 350.001 208.097C350.459 207.639 351.079 207.38 351.727 207.377H406.898C407.546 207.38 408.166 207.639 408.624 208.097C409.082 208.555 409.341 209.175 409.344 209.823V209.823C409.341 210.471 409.082 211.092 408.624 211.55C408.166 212.008 407.546 212.266 406.898 212.269V212.269Z" fill="#E0E0E0"/>
<path d="M406.908 276.181H351.727C350.376 276.181 349.281 277.276 349.281 278.626C349.281 279.977 350.376 281.072 351.727 281.072H406.908C408.259 281.072 409.354 279.977 409.354 278.626C409.354 277.276 408.259 276.181 406.908 276.181Z" fill="#E0E0E0"/>
<path d="M371.941 181.763H437.577L442.902 123.238H377.267L371.941 181.763Z" fill="#E6E6E6"/>
<path d="M369.715 181.763H435.35L440.675 123.238H375.04L369.715 181.763Z" fill="#F0F0F0"/>
<path d="M429.455 175.282L433.603 129.719H380.93L376.781 175.282H429.455Z" fill="white"/>
<path d="M356.742 139.028L352.852 181.763H384.307L388.198 139.028H356.742Z" fill="#E6E6E6"/>
<path d="M355.109 139.028L351.219 181.763H382.674L386.565 139.028H355.109Z" fill="#F0F0F0"/>
<path d="M359.413 143.755L356.379 177.037H378.381L381.405 143.755H359.413Z" fill="white"/>
<path d="M258.001 394.242C368.51 394.242 458.095 389.012 458.095 382.56C458.095 376.108 368.51 370.877 258.001 370.877C147.492 370.877 57.9062 376.108 57.9062 382.56C57.9062 389.012 147.492 394.242 258.001 394.242Z" fill="#F5F5F5"/>
<path d="M305.804 70.3589C304.854 67.9528 303.428 65.7635 301.611 63.9224C299.794 62.0813 297.624 60.6264 295.23 59.6452C292.837 58.6639 290.27 58.1765 287.684 58.2123C285.097 58.248 282.545 58.8062 280.179 59.8532C271.387 63.7335 266.619 75.0133 269.932 84.0226C271.586 88.5715 274.906 92.3227 279.22 94.5181C281.014 95.3778 282.535 96.7172 283.616 98.3881L286.34 102.743C287.234 104.169 288.598 105.237 290.195 105.765C291.793 106.292 293.525 106.246 295.092 105.633L301.965 102.919C303.528 102.296 304.825 101.146 305.631 99.6692C306.438 98.192 306.703 96.4796 306.382 94.8277L305.35 89.6057C305.019 87.757 305.208 85.8526 305.897 84.1052C307.574 79.6705 307.541 74.7705 305.804 70.3589V70.3589Z" fill="#309700"/>
<path d="M295.998 114.322C295.558 114.321 295.122 114.23 294.718 114.054C294.329 113.889 293.977 113.648 293.683 113.345C293.389 113.042 293.158 112.683 293.005 112.289C292.704 111.502 292.724 110.627 293.062 109.855C293.4 109.083 294.028 108.474 294.811 108.161L303.924 104.559C304.711 104.255 305.586 104.274 306.36 104.612C307.133 104.951 307.741 105.581 308.052 106.365C308.215 106.754 308.299 107.172 308.299 107.594C308.299 108.015 308.215 108.433 308.052 108.822C307.712 109.603 307.078 110.219 306.287 110.535L297.216 114.095C296.829 114.252 296.415 114.329 295.998 114.322V114.322ZM305.1 105.333C304.828 105.332 304.558 105.385 304.306 105.488L295.152 109.09C294.75 109.245 294.403 109.517 294.156 109.87C293.909 110.223 293.773 110.642 293.765 111.073C293.757 111.504 293.878 111.927 294.112 112.289C294.346 112.651 294.683 112.935 295.08 113.104C295.344 113.217 295.628 113.275 295.915 113.275C296.203 113.275 296.487 113.217 296.751 113.104L305.864 109.513C306.129 109.407 306.371 109.249 306.574 109.049C306.778 108.849 306.94 108.61 307.051 108.347C307.166 108.085 307.225 107.802 307.225 107.516C307.225 107.23 307.166 106.947 307.051 106.685C306.886 106.274 306.601 105.921 306.233 105.674C305.864 105.428 305.43 105.298 304.987 105.303L305.1 105.333Z" fill="#263238"/>
<path d="M300.64 119.874C300.364 119.871 300.091 119.815 299.835 119.709C299.364 119.485 298.995 119.09 298.803 118.605L298.649 118.202C298.552 117.958 298.504 117.698 298.508 117.435C298.512 117.173 298.568 116.914 298.673 116.673C298.777 116.433 298.928 116.215 299.117 116.033C299.306 115.851 299.529 115.708 299.774 115.612L305.46 113.362C305.955 113.182 306.5 113.199 306.984 113.408C307.467 113.617 307.852 114.003 308.06 114.487L308.215 114.89C308.405 115.383 308.394 115.931 308.183 116.415C307.973 116.9 307.58 117.282 307.09 117.48L301.342 119.73C301.119 119.821 300.881 119.869 300.64 119.874V119.874ZM306.162 114.25C306.041 114.253 305.923 114.278 305.811 114.322L300.124 116.572C300.006 116.617 299.898 116.686 299.806 116.774C299.715 116.861 299.642 116.966 299.591 117.082C299.54 117.198 299.512 117.323 299.51 117.45C299.508 117.577 299.531 117.703 299.577 117.82L299.732 118.223C299.779 118.342 299.849 118.45 299.937 118.542C300.026 118.633 300.131 118.707 300.248 118.757C300.365 118.808 300.491 118.835 300.619 118.838C300.746 118.84 300.873 118.817 300.991 118.77L306.678 116.52C306.797 116.474 306.905 116.404 306.997 116.316C307.089 116.227 307.163 116.121 307.214 116.004C307.263 115.888 307.288 115.764 307.288 115.638C307.288 115.512 307.263 115.387 307.214 115.271L307.059 114.869C306.983 114.692 306.858 114.54 306.699 114.431C306.54 114.322 306.354 114.259 306.162 114.25V114.25Z" fill="#263238"/>
<path d="M283.705 88.6668C283.001 88.668 282.311 88.4774 281.707 88.1154C281.104 87.7534 280.61 87.2337 280.28 86.6122C279.95 85.9907 279.796 85.291 279.834 84.5883C279.872 83.8856 280.1 83.2066 280.495 82.6242C280.891 82.0418 281.437 81.5782 282.076 81.2832C282.715 80.9882 283.422 80.873 284.121 80.95C284.821 81.027 285.486 81.2932 286.046 81.7201C286.605 82.1469 287.038 82.7183 287.297 83.3726L288.721 86.9743L285.119 88.3881C284.67 88.5706 284.19 88.6652 283.705 88.6668ZM283.705 81.9588C283.285 81.9543 282.87 82.043 282.488 82.2186C282.107 82.3941 281.769 82.652 281.5 82.9738C281.23 83.2956 281.035 83.6732 280.929 84.0794C280.823 84.4856 280.808 84.9102 280.886 85.3228C280.964 85.7353 281.133 86.1254 281.379 86.4651C281.626 86.8047 281.945 87.0853 282.314 87.2867C282.682 87.4881 283.09 87.6053 283.509 87.6298C283.929 87.6543 284.348 87.5855 284.737 87.4283L287.379 86.3963L286.347 83.7648C286.134 83.2382 285.766 82.7881 285.293 82.4734C284.82 82.1586 284.263 81.9936 283.695 82L283.705 81.9588Z" fill="white"/>
<path d="M295.12 105.984L287.391 86.3861L294.501 83.5791L302.231 103.177L301.271 103.559L293.913 84.9207L288.722 86.9744L296.08 105.602L295.12 105.984Z" fill="white"/>
<path d="M293.912 84.9203L292.498 81.3187C292.216 80.6066 292.152 79.827 292.314 79.0785C292.475 78.3301 292.855 77.6463 293.405 77.1138C293.956 76.5813 294.652 76.2241 295.405 76.0872C296.158 75.9504 296.935 76.0401 297.638 76.345C298.34 76.65 298.936 77.1564 299.351 77.8003C299.765 78.4442 299.979 79.1965 299.966 79.9621C299.953 80.7278 299.713 81.4722 299.276 82.1013C298.839 82.7304 298.226 83.2158 297.514 83.4962L293.912 84.9203ZM296.089 77.0565C295.736 77.0613 295.386 77.1313 295.057 77.2629C294.71 77.3994 294.394 77.6032 294.126 77.8626C293.858 78.122 293.644 78.4319 293.496 78.7743C293.348 79.1167 293.27 79.485 293.265 79.8579C293.26 80.2308 293.329 80.601 293.468 80.9471L294.5 83.5787L297.132 82.5467C297.747 82.3054 298.258 81.857 298.578 81.2788C298.898 80.7006 299.006 80.0289 298.884 79.3796C298.762 78.7302 298.417 78.1439 297.908 77.7217C297.4 77.2995 296.76 77.0679 296.1 77.0668L296.089 77.0565Z" fill="white"/>
<path d="M309.94 134.105C306.064 134.111 302.195 133.797 298.371 133.166L298.547 132.134C302.299 132.754 306.096 133.064 309.899 133.063L309.94 134.105Z" fill="#309700"/>
<path d="M331.272 144.797L331.819 143.683C333.722 139.445 334.105 134.681 332.902 130.194C328.887 131.633 324.739 132.671 320.518 133.29L320.363 132.258C324.689 131.611 328.936 130.518 333.036 128.997L333.552 128.811L333.707 129.327C335.017 133.805 334.847 138.587 333.222 142.96C345.906 137.914 359.146 119.998 359.146 98.6564C359.146 79.7088 337.051 64.2908 309.889 64.2908C282.726 64.2908 260.642 79.7088 260.642 98.6564C260.642 112.434 272.376 124.849 290.57 130.277L290.27 131.309C271.694 125.746 259.641 112.95 259.641 98.6976C259.641 79.1825 282.2 63.3 309.92 63.3C337.639 63.3 360.209 79.1825 360.209 98.6976C360.209 121.133 345.761 139.885 332.448 144.395L331.272 144.797Z" fill="#309700"/>
<path d="M359.923 72.0141L325.544 78.1564C323.076 78.5975 321.432 80.9564 321.873 83.4251L325.532 103.906C325.973 106.375 328.332 108.018 330.801 107.577L365.179 101.435C367.648 100.994 369.292 98.635 368.851 96.1663L365.191 75.6855C364.75 73.2168 362.391 71.573 359.923 72.0141Z" fill="#309700"/>
<path d="M351.666 88.6976L339.488 84.3013L341.769 97.0362L351.666 88.6976Z" fill="white"/>
<path d="M222.147 259.164H134.468C132.65 259.164 131.176 260.637 131.176 262.456V267.131C131.176 268.949 132.65 270.423 134.468 270.423H222.147C223.965 270.423 225.439 268.949 225.439 267.131V262.456C225.439 260.637 223.965 259.164 222.147 259.164Z" fill="#309700"/>
<path d="M221.159 376.368H223.77L220.767 270.423H217.145L221.159 376.368Z" fill="#309700"/>
<path opacity="0.3" d="M221.159 376.368H223.77L220.767 270.423H217.145L221.159 376.368Z" fill="white"/>
<path d="M197.08 376.368H194.469L197.482 270.423H201.094L197.08 376.368Z" fill="#309700"/>
<path opacity="0.3" d="M197.08 376.368H194.469L197.482 270.423H201.094L197.08 376.368Z" fill="white"/>
<path d="M159.538 376.368H162.159L159.146 270.423H155.523L159.538 376.368Z" fill="#309700"/>
<path opacity="0.3" d="M159.538 376.368H162.159L159.146 270.423H155.523L159.538 376.368Z" fill="white"/>
<path d="M135.469 376.368H132.848L135.861 270.423H139.473L135.469 376.368Z" fill="#309700"/>
<path opacity="0.3" d="M135.469 376.368H132.848L135.861 270.423H139.473L135.469 376.368Z" fill="white"/>
<path d="M249.034 349.443L258.342 346.295L250.685 324.562L241.387 327.709L249.034 349.443Z" fill="#FFC3BD"/>
<path d="M257.649 342.704L247.453 347.224C247.369 347.254 247.292 347.301 247.227 347.364C247.163 347.426 247.113 347.501 247.081 347.584C247.048 347.668 247.035 347.757 247.04 347.846C247.045 347.936 247.07 348.023 247.112 348.101L250.982 355.965C251.225 356.377 251.607 356.689 252.06 356.842C252.513 356.996 253.006 356.981 253.449 356.801C256.968 355.181 258.547 354.242 263.036 352.271C265.802 351.063 271.364 348.906 274.811 346.688C278.258 344.469 275.554 341.27 273.862 341.909C269.847 343.437 263.17 343.375 259.517 342.591C258.898 342.435 258.245 342.474 257.649 342.704Z" fill="#263238"/>
<path opacity="0.2" d="M241.387 327.719L250.695 324.562L255.061 336.997L245.597 339.701L241.387 327.719Z" fill="#1D1D1D"/>
<path d="M183.099 229.772C183.099 229.772 229.539 238.152 233.285 253.405C240.643 283.56 257.238 330.723 257.238 330.723L239.57 335.883C239.57 335.883 214.306 281.796 211.128 263.591C185.07 263.591 153.336 265.655 149.208 254.633C145.586 244.85 146.876 229.814 146.876 229.814L183.099 229.772Z" fill="#263238"/>
<path d="M238.597 338.968L259.237 332.157L257.473 322.838L234.965 330.764L238.597 338.968Z" fill="#309700"/>
<path d="M208.576 352.745L218.855 353.53L212.818 328.163L203.23 330.33L208.576 352.745Z" fill="#FFC3BD"/>
<path d="M218.597 351.053L207.524 349.825C207.435 349.808 207.343 349.811 207.256 349.834C207.168 349.856 207.086 349.897 207.015 349.954C206.945 350.011 206.887 350.082 206.847 350.163C206.806 350.244 206.784 350.333 206.781 350.423L206.203 359.175C206.223 359.648 206.405 360.101 206.719 360.456C207.032 360.811 207.459 361.047 207.927 361.125C211.776 361.486 213.623 361.455 218.494 361.992C221.487 362.322 227.39 363.241 231.487 363.024C235.584 362.807 234.841 358.69 233.045 358.411C228.804 357.72 223.066 354.335 220.29 351.827C219.821 351.397 219.229 351.127 218.597 351.053V351.053Z" fill="#263238"/>
<path opacity="0.2" d="M203.23 330.341L212.818 328.173L215.862 340.991L206.172 342.694L203.23 330.341Z" fill="#1D1D1D"/>
<path d="M158.928 229.772C158.928 229.772 215.389 238.224 212.799 259.597C209.073 290.413 218.64 334.985 218.64 334.985L200.528 338.225C200.528 338.225 187.215 282.827 187.112 264.344C168.742 264.344 136.647 265.655 132.54 254.592C128.918 244.808 130.208 229.772 130.208 229.772H158.928Z" fill="#263238"/>
<path d="M199.279 341.239L220.528 336.615L219.743 327.172L196.523 332.694L199.279 341.239Z" fill="#309700"/>
<path d="M188.712 170.381C190.219 176.284 191.695 182.239 193.139 188.173C194.584 194.107 195.998 200.051 197.494 205.913L198.619 210.278L199.197 212.425L199.497 213.457V213.591V213.653C199.497 213.653 199.497 213.56 199.445 213.518C199.367 213.307 199.27 213.104 199.156 212.91L199.001 212.672L198.888 212.517L198.681 212.29C198.465 212.084 198.434 212.115 198.485 212.167C198.596 212.281 198.721 212.382 198.857 212.466C199.311 212.772 199.787 213.044 200.281 213.281C201.395 213.828 202.696 214.313 204.027 214.85C209.393 216.841 215.317 218.534 221.076 220.361L220.168 226.945C216.998 226.982 213.83 226.858 210.673 226.573C207.461 226.309 204.267 225.861 201.106 225.232C199.409 224.902 197.734 224.468 196.091 223.931C195.143 223.628 194.215 223.263 193.315 222.837C192.761 222.58 192.227 222.283 191.715 221.95C191.004 221.496 190.349 220.959 189.765 220.35C189.579 220.144 189.404 219.948 189.197 219.68L188.908 219.287L188.619 218.802C188.407 218.439 188.224 218.06 188.072 217.667L187.907 217.192L187.505 216.057L186.731 213.807C186.225 212.311 185.699 210.815 185.276 209.329C183.408 203.364 181.705 197.43 180.116 191.454C178.526 185.479 177.02 179.514 175.637 173.467L188.712 170.381Z" fill="#FFC3BD"/>
<path d="M174.202 163.239C179.867 156.923 188.846 161.34 192.633 175.479C194.47 182.352 193.892 185.943 193.892 185.943L174.346 191.97C170.146 182.682 166.493 171.846 174.202 163.239Z" fill="#309700"/>
<g opacity="0.2">
<path d="M174.202 163.239C179.867 156.923 188.846 161.34 192.633 175.479C194.47 182.352 193.892 185.943 193.892 185.943L174.346 191.97C170.146 182.682 166.493 171.846 174.202 163.239Z" fill="#1D1D1D"/>
</g>
<path d="M231.323 217.708L229.569 217.172C228.506 216.85 227.39 216.748 226.287 216.872L222.52 217.316C221.306 217.604 220.166 218.146 219.175 218.905C218.185 219.665 217.366 220.625 216.772 221.723L215.492 224.22C216.132 228.823 225.461 227.316 225.461 227.316H234.264L233.975 221.062C233.931 220.298 233.653 219.567 233.178 218.967C232.704 218.367 232.056 217.927 231.323 217.708Z" fill="#FFC3BD"/>
<path d="M237.361 207.636C237.11 209.331 236.396 210.924 235.297 212.239C234.357 213.611 233.387 214.973 232.407 216.367C230.436 219.06 228.423 221.712 226.215 224.241C226.118 224.35 225.985 224.42 225.84 224.438C225.695 224.456 225.549 224.421 225.429 224.338C225.308 224.256 225.222 224.132 225.186 223.991C225.15 223.849 225.168 223.7 225.235 223.57C226.762 220.577 228.485 217.729 230.25 214.901C231.138 213.491 232.046 212.091 232.975 210.701C233.776 209.181 234.979 207.911 236.452 207.027C236.561 206.96 236.687 206.926 236.815 206.927C236.943 206.928 237.067 206.965 237.175 207.034C237.283 207.103 237.369 207.201 237.423 207.316C237.478 207.432 237.499 207.56 237.484 207.687L237.361 207.636Z" fill="#263238"/>
<path d="M175.511 157.119L164.499 154.023L150.33 153.363C148.181 153.262 146.059 153.87 144.289 155.093C142.52 156.316 141.201 158.087 140.536 160.133C137.832 168.389 135.376 180.277 133.539 190.566C131.36 203.525 130.252 216.642 130.227 229.782H183.096C184.18 200.422 187.637 186.077 189.68 175.685C190.279 172.606 189.839 169.415 188.429 166.614C187.019 163.812 184.718 161.558 181.888 160.205L175.511 157.119Z" fill="#309700"/>
<path d="M160.746 159.184C162.088 162.63 167.279 169.999 173.316 172.878C176.67 170.453 177.392 165.159 177.898 162.682L160.746 159.184Z" fill="white"/>
<path d="M177.896 162.682C178.288 161.32 178.124 159.858 177.442 158.616C176.586 157.274 176.802 155.737 177.659 154.158C178.338 152.9 179.189 151.744 180.187 150.721L173.263 142.62L167.617 136.077C167.132 142.197 166.658 149.782 161.828 154.529C160.125 156.211 159.764 156.717 160.744 159.183C162.086 162.63 166.936 167.439 172.922 170.319C174.219 169.442 175.327 168.314 176.181 167.003C177.035 165.691 177.618 164.222 177.896 162.682V162.682Z" fill="#FFC3BD"/>
<path opacity="0.2" d="M178.061 149.328L174.149 142.981C174.077 143.146 173.984 143.322 173.891 143.507C173.539 144.293 173.256 145.108 173.045 145.943C172.333 148.76 174.727 152.785 177.349 154.704C177.462 154.529 177.555 154.343 177.658 154.158C178.326 152.966 179.118 151.848 180.021 150.824C180.073 150.785 180.128 150.75 180.187 150.721L178.061 149.328Z" fill="#1D1D1D"/>
<path d="M191.726 134.157C192.634 140.009 201.014 124.952 196.329 121.65C190.611 117.604 190.013 123.022 191.726 134.157Z" fill="#263238"/>
<path d="M167.875 126.521C167.338 136.025 166.523 141.547 170.888 147.037C177.452 155.293 190.053 152.568 193.531 143.476C196.627 135.282 197.008 121.123 187.875 116.108C178.742 111.092 168.412 117.026 167.875 126.521Z" fill="#FFC3BD"/>
<path d="M186.607 120.814C186.607 120.814 192.685 126.779 197.02 124.312C201.354 121.846 202.231 115.458 197.02 109.864C194.512 107.171 190.714 104.539 183.263 104.704C183.851 105.277 184.555 105.717 185.327 105.994C185.327 105.994 175.874 104.415 169.29 107.129C169.817 107.923 170.524 108.581 171.354 109.049C164.945 108.564 158.712 111.113 163.098 117.129C157.288 117.697 155.987 125.127 159.083 130.029C162.179 134.931 162.726 138.605 166.865 140.834C166.865 134.157 168.402 132.578 168.402 132.578C171.385 131.309 174.821 124.952 174.13 121.742C180.508 124.312 187.309 125.158 186.607 120.814Z" fill="#263238"/>
<path d="M164.624 116.913C162.602 115.471 161.031 113.485 160.093 111.185C159.35 114.508 162.787 118.296 162.787 118.296L164.624 116.913Z" fill="#263238"/>
<path d="M163.127 131.712C163.197 133.888 164.051 135.966 165.531 137.563C167.503 139.627 170.186 137.873 170.691 135.221C171.104 132.837 170.093 129.194 167.595 128.12C165.098 127.047 163.055 129.049 163.127 131.712Z" fill="#FFC3BD"/>
<path d="M183.437 131.423C183.282 132.207 183.561 132.94 184.067 133.064C184.572 133.187 185.099 132.651 185.274 131.866C185.45 131.082 185.15 130.349 184.645 130.226C184.139 130.102 183.592 130.649 183.437 131.423Z" fill="#263238"/>
<path d="M192.211 133.518C192.046 134.302 192.334 135.024 192.84 135.148C193.346 135.272 193.872 134.735 194.048 133.951C194.223 133.167 193.913 132.434 193.408 132.321C192.902 132.207 192.365 132.733 192.211 133.518Z" fill="#263238"/>
<path d="M189.29 133.456C189.518 135.704 190.046 137.911 190.859 140.019C189.414 140.752 187.598 139.648 187.598 139.648L189.29 133.456Z" fill="#ED847E"/>
<path d="M185.976 144.033C185.067 143.843 184.207 143.471 183.446 142.939C182.685 142.407 182.039 141.726 181.549 140.937C181.529 140.91 181.516 140.879 181.509 140.846C181.502 140.813 181.502 140.779 181.51 140.746C181.517 140.714 181.531 140.683 181.552 140.656C181.572 140.629 181.597 140.607 181.627 140.59C181.656 140.574 181.689 140.564 181.722 140.562C181.756 140.559 181.79 140.564 181.821 140.575C181.853 140.586 181.882 140.604 181.906 140.628C181.93 140.651 181.949 140.679 181.962 140.71C182.509 141.553 183.241 142.259 184.104 142.774C184.966 143.289 185.935 143.6 186.936 143.683C186.966 143.684 186.996 143.691 187.023 143.705C187.051 143.718 187.075 143.737 187.094 143.76C187.114 143.784 187.128 143.811 187.136 143.84C187.145 143.87 187.147 143.9 187.142 143.93C187.141 143.961 187.134 143.991 187.12 144.019C187.107 144.047 187.088 144.072 187.065 144.092C187.042 144.112 187.015 144.127 186.986 144.137C186.956 144.146 186.925 144.15 186.895 144.147C186.587 144.127 186.28 144.089 185.976 144.033V144.033Z" fill="#263238"/>
<path d="M182.284 128.265C182.212 128.236 182.148 128.19 182.098 128.131C182.02 128.034 181.983 127.911 181.994 127.788C182.006 127.664 182.065 127.55 182.16 127.47C182.718 126.988 183.387 126.651 184.107 126.489C184.827 126.327 185.576 126.345 186.288 126.541C186.405 126.581 186.503 126.666 186.558 126.777C186.613 126.888 186.622 127.017 186.582 127.135C186.542 127.252 186.457 127.35 186.346 127.405C186.235 127.46 186.106 127.469 185.988 127.429C185.428 127.287 184.842 127.282 184.28 127.415C183.718 127.548 183.196 127.815 182.758 128.193C182.693 128.247 182.615 128.282 182.531 128.295C182.447 128.307 182.362 128.297 182.284 128.265V128.265Z" fill="#263238"/>
<path d="M193.293 128.44C193.277 128.365 193.277 128.288 193.293 128.213C193.329 128.095 193.409 127.994 193.516 127.933C193.624 127.872 193.75 127.854 193.871 127.883C194.582 128.072 195.235 128.433 195.775 128.933C196.315 129.433 196.724 130.057 196.967 130.752C196.984 130.811 196.989 130.872 196.983 130.933C196.976 130.995 196.957 131.054 196.927 131.107C196.898 131.161 196.857 131.208 196.809 131.247C196.761 131.285 196.706 131.313 196.647 131.33C196.588 131.347 196.526 131.352 196.465 131.346C196.404 131.339 196.345 131.32 196.291 131.29C196.237 131.261 196.19 131.22 196.152 131.172C196.114 131.124 196.085 131.069 196.069 131.01C195.87 130.466 195.542 129.98 195.112 129.593C194.682 129.207 194.163 128.931 193.602 128.791C193.526 128.762 193.457 128.715 193.403 128.654C193.349 128.593 193.311 128.519 193.293 128.44Z" fill="#263238"/>
<path d="M152.541 167.532C150.559 173.187 148.578 179.08 146.813 184.859C145.915 187.749 145.1 190.649 144.367 193.508C143.657 196.253 143.106 199.037 142.716 201.846C142.716 202.156 142.634 202.496 142.623 202.796V203.25C142.623 203.394 142.623 203.611 142.623 203.539C142.623 203.466 142.541 203.6 142.623 203.817C142.885 204.606 143.31 205.33 143.872 205.943C145.645 207.906 147.655 209.639 149.858 211.103C154.827 214.454 160.016 217.467 165.389 220.123L163.181 226.48C159.983 225.782 156.829 224.893 153.738 223.817C150.588 222.738 147.513 221.452 144.532 219.968C141.264 218.374 138.24 216.32 135.554 213.869C133.847 212.296 132.472 210.398 131.509 208.286C130.908 206.929 130.558 205.474 130.477 203.993C130.477 203.528 130.477 203.363 130.477 203.115V202.393C130.477 201.908 130.477 201.464 130.477 201C130.654 197.564 131.085 194.145 131.767 190.773C132.386 187.512 133.16 184.354 133.996 181.216C135.67 174.985 137.671 168.847 139.992 162.826L152.541 167.532Z" fill="#FFC3BD"/>
<path d="M149.642 153.301C159.735 153.208 161.644 161.062 156.153 173.508C154.053 178.005 151.486 182.27 148.496 186.232L131.809 177.367C134.038 167.429 138.114 153.404 149.642 153.301Z" fill="#309700"/>
<path d="M177.506 219.132L173.811 217.068C173.207 216.737 172.513 216.607 171.83 216.697L167.392 217.316C164.41 217.625 162.232 219.906 160.612 221.888L158.723 224.199C158.63 228.864 170.416 227.77 170.416 227.77L180.736 227.636L180.416 223.57C180.334 222.648 180.026 221.76 179.518 220.985C179.01 220.211 178.319 219.575 177.506 219.132Z" fill="#FFC3BD"/>
<path d="M397.672 225.335H118.32V238.41H397.672V225.335Z" fill="#309700"/>
<path opacity="0.3" d="M208.93 225.335H118.32V238.41H208.93V225.335Z" fill="white"/>
<path d="M125.804 238.41H121.531V382.56H125.804V238.41Z" fill="#309700"/>
<path opacity="0.7" d="M125.804 238.41H121.531V382.56H125.804V238.41Z" fill="white"/>
<path d="M205.73 238.41H201.457V382.56H205.73V238.41Z" fill="#309700"/>
<path opacity="0.7" d="M205.73 238.41H201.457V382.56H205.73V238.41Z" fill="white"/>
<path d="M314.546 238.41H310.273V382.56H314.546V238.41Z" fill="#309700"/>
<path opacity="0.7" d="M314.546 238.41H310.273V382.56H314.546V238.41Z" fill="white"/>
<path d="M394.472 238.41H390.199V382.56H394.472V238.41Z" fill="#309700"/>
<path opacity="0.7" d="M394.472 238.41H390.199V382.56H394.472V238.41Z" fill="white"/>
<path d="M367.393 167.543H291.025C289.716 167.59 288.462 168.08 287.468 168.933C286.474 169.786 285.8 170.952 285.555 172.238L277.588 220.629C277.466 221.205 277.477 221.802 277.619 222.375C277.761 222.947 278.031 223.479 278.408 223.932C278.785 224.385 279.261 224.747 279.798 224.99C280.335 225.232 280.92 225.35 281.51 225.335H357.878C359.19 225.289 360.447 224.799 361.443 223.943C362.44 223.088 363.115 221.919 363.358 220.629L371.325 172.238C371.447 171.661 371.437 171.063 371.294 170.491C371.151 169.918 370.88 169.386 370.502 168.933C370.123 168.481 369.646 168.121 369.107 167.88C368.569 167.639 367.983 167.523 367.393 167.543V167.543Z" fill="#263238"/>
<path d="M318.901 222.177H247.001C246.528 222.177 246.145 222.56 246.145 223.033V224.478C246.145 224.951 246.528 225.335 247.001 225.335H318.901C319.374 225.335 319.757 224.951 319.757 224.478V223.033C319.757 222.56 319.374 222.177 318.901 222.177Z" fill="#263238"/>
<path opacity="0.2" d="M367.395 167.543H292.699C291.39 167.59 290.136 168.08 289.143 168.933C288.149 169.786 287.474 170.952 287.23 172.238L279.263 220.629C279.139 221.206 279.148 221.804 279.289 222.377C279.43 222.95 279.7 223.483 280.078 223.937C280.455 224.39 280.931 224.751 281.47 224.994C282.008 225.236 282.594 225.353 283.184 225.335H357.829C359.141 225.289 360.398 224.799 361.394 223.943C362.39 223.088 363.066 221.919 363.309 220.629L371.276 172.238C371.397 171.665 371.387 171.073 371.248 170.504C371.108 169.935 370.841 169.406 370.468 168.954C370.095 168.503 369.625 168.142 369.093 167.897C368.561 167.653 367.981 167.532 367.395 167.543V167.543Z" fill="white"/>
<path d="M169.723 222.176C169.723 222.176 194.315 225.84 206.183 221C211.735 223.673 231.508 224.994 238.392 222.176C236.266 224.643 231.271 225.334 231.271 225.334H179.392C174.408 225.334 170.6 223.157 169.723 222.176Z" fill="#309700"/>
<path opacity="0.7" d="M169.723 222.176C169.723 222.176 194.315 225.84 206.183 221C211.735 223.673 231.508 224.994 238.392 222.176C236.266 224.643 231.271 225.334 231.271 225.334H179.392C174.408 225.334 170.6 223.157 169.723 222.176Z" fill="white"/>
</svg>
