<svg width="47" height="32" viewBox="0 0 47 32" fill="none" xmlns="http://www.w3.org/2000/svg">
<g clip-path="url(#clip0_153_466)">
<path d="M29.1249 0C32.9762 0 36.469 1.56721 39.001 4.0877C41.5291 6.61583 43.0887 10.101 43.0887 13.96C43.0887 16.7779 42.2498 19.409 40.816 21.6015L46.8599 28.1868L42.6921 31.9962L36.858 25.5863C34.6463 27.062 31.9809 27.9199 29.1249 27.9199C25.9447 27.9199 23.0086 26.8522 20.6597 25.0601C19.1954 26.5358 17.796 27.939 16.6177 29.1173L8.5224 21.1211L2.83317 26.6463L0 23.8132L8.57197 15.4814C11.2488 18.1582 13.8951 20.8046 16.5987 23.4738L17.8532 22.2078C16.1602 19.897 15.1649 17.0524 15.1649 13.9638C15.1649 10.1125 16.7321 6.61964 19.2526 4.09152C21.7807 1.55577 25.266 0 29.1249 0ZM19.9962 20.0458L25.5748 14.4137L22.2536 11.0925L31.5958 11.0086V20.4347L28.4042 17.2431C26.8027 18.8637 24.7855 20.9037 22.7493 22.959C24.5529 24.2745 26.7798 25.0562 29.1821 25.0562C32.1983 25.0562 34.9361 23.8284 36.9113 21.8494C38.8904 19.8704 40.1182 17.1363 40.1182 14.1201C40.1182 11.1039 38.8904 8.36606 36.9113 6.39085C34.9323 4.41182 32.1983 3.18399 29.1821 3.18399C26.1659 3.18399 23.428 4.41182 21.4528 6.39085C19.4738 8.36988 18.2459 11.1039 18.2459 14.1201C18.2459 16.3012 18.8904 18.3375 19.9962 20.0458Z" fill="#309700"/>
</g>
<defs>
<clipPath id="clip0_153_466">
<rect width="46.8561" height="32" fill="white"/>
</clipPath>
</defs>
</svg>
