<svg width="16" height="16" viewBox="0 0 16 16" fill="none" xmlns="http://www.w3.org/2000/svg">
<path d="M3.99992 10.6666H9.33325V10.3C9.33325 9.81107 9.08881 9.41663 8.59992 9.11663C8.11103 8.81663 7.46659 8.66663 6.66659 8.66663C5.86659 8.66663 5.22214 8.81663 4.73325 9.11663C4.24436 9.41663 3.99992 9.81107 3.99992 10.3V10.6666ZM6.66659 7.99996C7.03325 7.99996 7.34725 7.86929 7.60859 7.60796C7.86992 7.34663 8.00036 7.03285 7.99992 6.66663C7.99992 6.29996 7.86925 5.98596 7.60792 5.72463C7.34659 5.46329 7.03281 5.33285 6.66659 5.33329C6.29992 5.33329 5.98592 5.46396 5.72459 5.72529C5.46325 5.98663 5.33281 6.3004 5.33325 6.66663C5.33325 7.03329 5.46392 7.34729 5.72525 7.60863C5.98659 7.86996 6.30036 8.0004 6.66659 7.99996ZM2.66659 13.3333C2.29992 13.3333 1.98592 13.2026 1.72459 12.9413C1.46325 12.68 1.33281 12.3662 1.33325 12V3.99996C1.33325 3.63329 1.46392 3.31929 1.72525 3.05796C1.98659 2.79663 2.30036 2.66618 2.66659 2.66663H10.6666C11.0333 2.66663 11.3473 2.79729 11.6086 3.05863C11.8699 3.31996 12.0004 3.63374 11.9999 3.99996V6.99996L14.6666 4.33329V11.6666L11.9999 8.99996V12C11.9999 12.3666 11.8693 12.6806 11.6079 12.942C11.3466 13.2033 11.0328 13.3337 10.6666 13.3333H2.66659Z" fill="white"/>
</svg>
