<svg width="26" height="20" viewBox="0 0 26 20" fill="none" xmlns="http://www.w3.org/2000/svg">
<path fill-rule="evenodd" clip-rule="evenodd" d="M10.7794 1.74604C6.6534 2.90419 3.96809 5.32583 3.30032 9.54018C3.11852 10.687 3.37243 9.82073 4.14075 9.23909C6.64934 7.34 11.5817 8.01208 12.2663 12.3508C13.6434 20.0314 4.15192 21.3611 1.3427 17.119C0.689147 16.133 0.25649 14.9821 0.100592 13.7181C-0.576322 8.22069 2.20801 3.3245 7.09926 1.02464C8.00419 0.599194 8.95786 0.266238 9.98415 0.0221737C10.4981 -0.0831595 10.8713 0.199956 11.0434 0.678322C11.1892 1.08681 11.239 1.53743 10.7794 1.74604V1.74604ZM24.3776 1.74604C20.2516 2.90419 17.5658 5.32583 16.8985 9.54018C16.7167 10.687 16.9706 9.82073 17.739 9.23909C20.2475 7.34 25.1799 8.01208 25.864 12.3508C27.2416 20.0314 17.7501 21.3611 14.9409 17.119C14.2873 16.133 13.8547 14.9821 13.6988 13.7181C13.0219 8.22069 15.8057 3.3245 20.6975 1.02464C21.6024 0.599194 22.5556 0.266238 23.5824 0.0221737C24.0963 -0.0831595 24.4695 0.199956 24.6416 0.678322C24.7874 1.08681 24.8372 1.53743 24.3776 1.74604V1.74604Z" fill="white"/>
</svg>
