<svg width="43" height="32" viewBox="0 0 43 32" fill="none" xmlns="http://www.w3.org/2000/svg">
<g clip-path="url(#clip0_153_498)">
<path fill-rule="evenodd" clip-rule="evenodd" d="M32.4892 24.8014H28.6418C28.318 25.2639 27.9711 25.7265 27.601 26.1891C27.216 26.6609 26.7997 27.1327 26.3591 27.6045C25.9185 28.0763 25.5126 28.4718 25.0512 28.9089C24.6765 29.2674 24.2868 29.6213 23.8821 29.9705L24.2047 29.9115C24.4267 29.8664 24.6522 29.8144 24.8777 29.7554C25.1032 29.6964 25.3287 29.6375 25.5507 29.5681C25.7728 29.4987 25.9879 29.4258 26.2099 29.3461C26.4319 29.2663 26.6435 29.1761 26.8552 29.0824C27.0668 28.9887 27.2923 28.8916 27.497 28.791C27.7017 28.6904 27.9133 28.5828 28.118 28.4718C28.3226 28.3608 28.5239 28.2498 28.7181 28.1249C28.9124 28 29.1102 27.8855 29.294 27.778C29.4779 27.6704 29.6618 27.5074 29.8352 27.3721C30.0087 27.2368 30.1821 27.098 30.366 26.9558C30.5499 26.8135 30.7129 26.6678 30.876 26.5152C31.039 26.3625 31.2229 26.2064 31.3686 26.0468C31.5143 25.8873 31.6149 25.7936 31.7155 25.6687C31.8161 25.5438 31.9514 25.412 32.0625 25.2801C32.1735 25.1483 32.2429 25.0685 32.3296 24.961L32.4579 24.8014H32.4892ZM5.55074 19.6878L3.70512 12.3122H6.3556L7.20209 16.8222H7.2576L8.19775 12.3122H10.7719L11.7537 16.7702H11.7953L12.6002 12.3122H15.2645L13.4224 19.6878H10.5603L9.51952 15.7294H9.4432L8.40244 19.6878H5.55074ZM17.3773 19.6878L15.5351 12.3122H18.1856L19.0286 16.8222H19.0807L20.0208 12.3122H22.595L23.5906 16.7702H23.6496L24.4545 12.3122H27.0945L25.2524 19.6878H22.3903L21.3495 15.7294H21.2732L20.2324 19.6878H17.3773ZM29.2073 19.6878L27.3651 12.3122H30.0156L30.8586 16.8222H30.9141L31.8578 12.3122H34.4319L35.4102 16.7702H35.4658L36.2741 12.3122H38.9246L37.0789 19.6878H34.2168L33.1761 15.7294H33.0998L32.059 19.6878H29.2073ZM3.28882 7.69818H7.63227C7.7641 7.48309 7.8994 7.26453 8.04164 7.05291C8.18388 6.84128 8.32611 6.6366 8.47876 6.43192C8.6314 6.22723 8.78405 6.02949 8.94363 5.83174C9.10322 5.634 9.27321 5.43972 9.44667 5.25239C9.62013 5.06505 9.79359 4.8673 9.9844 4.6869C10.1613 4.50304 10.3313 4.33998 10.5291 4.15958C10.7268 3.97918 10.9072 3.81266 11.105 3.66002L11.7086 3.19167C11.9167 3.03903 12.1249 2.89332 12.3296 2.75802C12.5343 2.62272 12.7598 2.47355 12.9783 2.34172C13.1969 2.20989 13.4224 2.08153 13.6722 1.95663C13.922 1.83174 14.1266 1.71726 14.366 1.60971C14.6054 1.50217 14.8413 1.38768 15.0772 1.28708C15.3235 1.17953 15.5698 1.08239 15.8127 0.995663C16.0555 0.908933 16.3053 0.787511 16.569 0.693842C16.8326 0.600173 17.0755 0.544666 17.3287 0.478751C17.582 0.412836 17.8352 0.357329 18.0989 0.301821C18.3868 0.26366 18.6297 0.21856 18.8899 0.17693C19.1501 0.135299 19.4276 0.107546 19.6808 0.0797919C19.9341 0.0520382 20.222 0.0346921 20.4926 0.0208153C20.7632 0.00693842 21.0442 0 21.3148 0C21.856 0 22.4042 0.0277537 22.9419 0.0797919C23.2125 0.107546 23.4796 0.138768 23.7398 0.17693C24 0.215091 24.2637 0.26366 24.5273 0.315698C24.791 0.367736 25.0373 0.423244 25.2906 0.489159C25.5438 0.555074 25.7936 0.620989 26.0434 0.697311C26.2932 0.773634 26.5395 0.860364 26.7788 0.947095C27.0182 1.03382 27.2611 1.13096 27.5004 1.23157L27.5733 1.26626C27.8023 1.3634 28.0278 1.46748 28.2671 1.57849C28.5065 1.68951 28.732 1.81093 28.961 1.92541C29.1865 2.0503 29.412 2.17866 29.6305 2.31049C29.8526 2.44579 30.0711 2.58456 30.2862 2.72333C30.5013 2.8621 30.6991 3.00781 30.9003 3.15698C31.1015 3.30616 31.3062 3.46574 31.5039 3.62533C31.7017 3.78491 31.8959 3.9549 32.0867 4.12836C32.2775 4.30182 32.4684 4.47528 32.6488 4.66262C32.8257 4.83955 32.9957 5.00954 33.1726 5.20729C33.3495 5.40503 33.5195 5.58543 33.6722 5.78317C33.8248 5.98092 33.9879 6.17866 34.1405 6.38682C34.2932 6.59497 34.4389 6.80312 34.5811 7.01474C34.7233 7.22984 34.8621 7.44493 34.9905 7.65655H39.3409C40.2128 7.65747 41.0488 8.00426 41.6654 8.62083C42.282 9.23741 42.6288 10.0734 42.6297 10.9454V20.9714C42.6265 21.8408 42.2798 22.6738 41.6652 23.2888V23.2888C41.0519 23.9038 40.2198 24.2506 39.3513 24.2533H35.0009C34.869 24.4718 34.7337 24.6869 34.5915 24.902C34.4493 25.1171 34.307 25.3183 34.1544 25.523C34.0017 25.7277 33.8491 25.9254 33.6895 26.1197C33.523 26.3209 33.3426 26.5152 33.1865 26.7025C33.013 26.8933 32.8396 27.0807 32.6592 27.2576C32.4834 27.438 32.303 27.6114 32.118 27.778C31.9306 27.948 31.7398 28.1249 31.5421 28.2775C31.3443 28.4302 31.1431 28.5932 30.9384 28.7459C30.7337 28.8985 30.5221 29.0442 30.3105 29.1865C30.0989 29.3287 29.8838 29.4675 29.6652 29.5993C29.4467 29.7311 29.2177 29.8595 28.9714 29.9844C28.7251 30.1093 28.5135 30.2272 28.2775 30.3313C28.0416 30.4354 27.8023 30.5533 27.5837 30.6574C27.3651 30.7615 27.0945 30.8586 26.8448 30.9523C26.595 31.046 26.3452 31.1258 26.0919 31.2056C25.8387 31.2853 25.5854 31.3547 25.3357 31.4206C25.0859 31.4866 24.8222 31.5421 24.5586 31.5976C24.2949 31.6531 24.0347 31.6982 23.7745 31.7363C23.5143 31.7745 23.2472 31.8057 22.9766 31.8335C22.4354 31.8855 21.8907 31.9133 21.3426 31.9133C21.072 31.9133 20.7979 31.9133 20.5239 31.8925C20.2498 31.8716 19.9861 31.8612 19.7155 31.8335C19.4449 31.8057 19.1778 31.7745 18.9176 31.7363C18.6574 31.6982 18.3972 31.6496 18.1301 31.5976C17.863 31.5455 17.5924 31.5698 17.3461 31.5143C17.0997 31.4588 16.843 31.379 16.5932 31.3027C16.3435 31.2264 16.1006 31.1431 15.8612 31.0564C15.6219 30.9696 15.3721 30.869 15.1327 30.765L15.0633 30.7337C14.8344 30.6366 14.6054 30.5325 14.3695 30.418C14.1336 30.3036 13.9115 30.1925 13.6756 30.0711C13.4397 29.9497 13.2246 29.8213 13.0061 29.686C12.7875 29.5507 12.5551 29.4085 12.34 29.2663C12.1249 29.124 11.9237 28.9818 11.719 28.8326C11.5143 28.6834 11.3166 28.5273 11.1188 28.3643C10.9211 28.2012 10.7268 28.0173 10.536 27.8578C10.3452 27.6982 10.1509 27.5108 9.97399 27.327C9.79359 27.15 9.62707 26.9801 9.45014 26.7823C9.27321 26.5846 9.10322 26.4042 8.95057 26.2064C8.79793 26.0087 8.63487 25.8075 8.48223 25.6028C8.32958 25.3981 8.18388 25.1865 8.04511 24.9748C7.90634 24.7632 7.77104 24.5377 7.63227 24.3192H3.28882C2.41441 24.3164 1.57686 23.9666 0.960191 23.3467C0.343518 22.7268 -0.00183593 21.8874 7.34088e-06 21.013V10.987C0.000925683 10.115 0.347719 9.27904 0.964292 8.66246C1.58087 8.04589 2.41685 7.6991 3.28882 7.69818ZM18.7615 29.9636C18.3556 29.6167 17.9671 29.2697 17.5924 28.902C17.1298 28.4695 16.695 28.0358 16.288 27.601C15.8474 27.1292 15.4311 26.6574 15.046 26.1856C14.6609 25.7138 14.3209 25.2663 14.0052 24.7979H10.1613L10.2862 24.9575L10.5568 25.2767C10.7823 25.5369 11.0217 25.7936 11.2507 26.0399C11.4102 26.1995 11.5733 26.3556 11.7398 26.5048C11.9063 26.6539 12.0867 26.8066 12.2498 26.9454C12.4128 27.0841 12.5967 27.2264 12.7806 27.3617C12.9644 27.497 13.1483 27.6253 13.3357 27.7537C13.523 27.882 13.7138 28 13.915 28.1214C14.1162 28.2428 14.307 28.3539 14.5048 28.4683C14.7025 28.5828 14.9211 28.6904 15.1327 28.7875C15.3443 28.8847 15.5559 28.9853 15.7745 29.0789L15.8196 29.1067C16.0312 29.1934 16.2394 29.2767 16.451 29.353C16.6626 29.4293 16.8777 29.5022 17.0997 29.5716C17.3148 29.6409 17.5369 29.7034 17.7589 29.7589C17.9809 29.8144 18.2099 29.8664 18.4354 29.9081L18.7337 29.9636H18.7615ZM10.144 7.19861H14.2238C14.5453 6.73605 14.8922 6.27927 15.2645 5.82827C15.6369 5.37728 16.0416 4.90546 16.4788 4.41284C16.8777 3.97572 17.3044 3.53513 17.752 3.09107C18.1197 2.74415 18.5048 2.36253 18.9003 1.99827L18.7337 2.02949L18.4493 2.08153C18.2272 2.12663 17.9983 2.17866 17.7554 2.23764C17.5126 2.29662 17.3044 2.35906 17.0859 2.42498C16.8673 2.49089 16.6453 2.57069 16.4233 2.65048C16.2012 2.73027 15.9896 2.817 15.778 2.91067C15.5664 3.00434 15.3409 3.10494 15.1327 3.20555C14.9246 3.30616 14.7164 3.41023 14.5117 3.52125C14.307 3.63226 14.1058 3.74675 13.9081 3.86817C13.7103 3.98959 13.523 4.10755 13.3391 4.21509C13.1553 4.32264 12.961 4.47181 12.7806 4.60711C12.6002 4.74241 12.4337 4.87771 12.2498 5.01995C12.0659 5.16219 11.9029 5.30789 11.7398 5.46401C11.5768 5.62012 11.3929 5.7693 11.2472 5.93235C11.1258 6.05377 11.0043 6.17866 10.9003 6.30356C10.7962 6.42845 10.6644 6.56028 10.5533 6.68864L10.2827 7.01127L10.1509 7.1778L10.144 7.19861ZM23.7398 2.01214C24.1388 2.35906 24.5239 2.73721 24.8881 3.10147C25.3357 3.53859 25.7554 3.97572 26.1544 4.41284C26.5533 4.84996 26.9905 5.35646 27.3686 5.82827C27.7468 6.30009 28.0625 6.74068 28.4094 7.19861H32.4788L32.3504 7.03903C32.2637 6.93148 32.1735 6.82394 32.0833 6.71986C31.9931 6.61579 31.8543 6.46314 31.7364 6.33478C31.6184 6.20642 31.5004 6.085 31.3686 5.95664C31.2368 5.82827 31.0217 5.634 30.876 5.48482C30.7303 5.33565 30.5291 5.183 30.366 5.04423C30.203 4.90546 30.0191 4.76323 29.8352 4.62793C29.6514 4.49263 29.4675 4.36427 29.2801 4.23591C29.0928 4.10755 28.902 3.98959 28.7043 3.87164C28.5065 3.75369 28.3088 3.6392 28.1076 3.52472C27.9063 3.41023 27.6982 3.30616 27.49 3.20902C27.2819 3.11188 27.0599 3.01821 26.8413 2.92108L26.7962 2.89332C26.5846 2.80659 26.3729 2.7268 26.1648 2.64701C25.9566 2.56722 25.7346 2.49783 25.5161 2.42845C25.2975 2.36253 25.0789 2.30009 24.8569 2.24111C24.6349 2.18213 24.4059 2.13703 24.1631 2.09193L23.8751 2.03643L23.7259 2.01214H23.7398ZM22.203 3.05984V7.19861H26.1683C25.922 6.88638 25.6652 6.57415 25.3946 6.26193C25.0801 5.89419 24.7459 5.52645 24.392 5.15872C24.0382 4.79098 23.6647 4.41631 23.2715 4.03469C22.9246 3.71206 22.5776 3.38595 22.2307 3.05984H22.203ZM22.203 24.8014V29.0165C22.5915 28.6904 22.9685 28.3608 23.3339 28.0278C23.7456 27.6485 24.1399 27.2703 24.5169 26.8933C24.8881 26.5152 25.242 26.1405 25.575 25.7624C25.8595 25.4432 26.1301 25.124 26.3868 24.8014H22.203ZM20.399 29.0165V24.8014H16.229C16.4857 25.124 16.7528 25.4467 17.0373 25.7658C17.3842 26.1405 17.7311 26.5152 18.0781 26.8899C18.425 27.2645 18.8482 27.6461 19.2645 28.0278C19.6115 28.3573 20.0069 28.6869 20.399 29.0165V29.0165ZM20.399 7.19861V3.05984C20.0347 3.38595 19.6843 3.70859 19.3582 4.03122C18.9627 4.41052 18.588 4.78635 18.2342 5.15872C17.8873 5.52645 17.5403 5.89419 17.2316 6.26193C16.961 6.57415 16.7043 6.88638 16.4614 7.19861H20.399ZM3.28882 9.16219H39.3409C39.8243 9.16401 40.2874 9.35686 40.6292 9.69868C40.971 10.0405 41.1638 10.5036 41.1657 10.987V21.013C41.1638 21.4964 40.971 21.9595 40.6292 22.3013C40.2874 22.6431 39.8243 22.836 39.3409 22.8378H3.28882C2.80541 22.836 2.34233 22.6431 2.00051 22.3013C1.65868 21.9595 1.46584 21.4964 1.46401 21.013V10.987C1.46584 10.5036 1.65868 10.0405 2.00051 9.69868C2.34233 9.35686 2.80541 9.16401 3.28882 9.16219V9.16219Z" fill="#E6A31C"/>
</g>
<defs>
<clipPath id="clip0_153_498">
<rect width="42.6297" height="32" fill="white"/>
</clipPath>
</defs>
</svg>
