<svg width="1439" height="626" viewBox="0 0 1439 626" fill="none" xmlns="http://www.w3.org/2000/svg">
<path d="M67.5714 52.1252L33.2856 104.25H101.857L67.5714 52.1252Z" fill="#444444" fill-opacity="0.1"/>
<path d="M67.5714 52.125L101.857 0H33.2856L67.5714 52.125Z" fill="black" fill-opacity="0.1"/>
<path d="M136.143 52.125L170.429 0H101.857L136.143 52.125Z" fill="#AAAAAA" fill-opacity="0.1"/>
<path d="M204.714 52.1252L170.429 104.25H239L204.714 52.1252Z" fill="#DDDDDD" fill-opacity="0.1"/>
<path d="M204.714 52.125L239 0H170.429L204.714 52.125Z" fill="#999999" fill-opacity="0.1"/>
<path d="M273.286 52.1252L239 104.25H307.571L273.286 52.1252Z" fill="black" fill-opacity="0.1"/>
<path d="M273.286 52.125L307.571 0H239L273.286 52.125Z" fill="#DDDDDD" fill-opacity="0.1"/>
<path d="M341.857 52.1252L307.571 104.25H376.143L341.857 52.1252Z" fill="#444444" fill-opacity="0.1"/>
<path d="M341.857 52.125L376.143 0H307.571L341.857 52.125Z" fill="white" fill-opacity="0.1"/>
<path d="M410.428 52.1252L376.143 104.25H444.714L410.428 52.1252Z" fill="#DDDDDD" fill-opacity="0.1"/>
<path d="M410.428 52.125L444.714 0H376.143L410.428 52.125Z" fill="#444444" fill-opacity="0.1"/>
<path d="M67.5714 156.375L33.2856 208.5H101.857L67.5714 156.375Z" fill="#DDDDDD" fill-opacity="0.1"/>
<path d="M67.5714 156.375L101.857 104.25H33.2856L67.5714 156.375Z" fill="black" fill-opacity="0.1"/>
<path d="M136.143 156.375L101.857 208.5H170.429L136.143 156.375Z" fill="#666666" fill-opacity="0.1"/>
<path d="M136.143 156.375L170.429 104.25H101.857L136.143 156.375Z" fill="#AAAAAA" fill-opacity="0.1"/>
<path d="M204.714 156.375L170.429 208.5H239L204.714 156.375Z" fill="#DDDDDD" fill-opacity="0.1"/>
<path d="M204.714 156.375L239 104.25H170.429L204.714 156.375Z" fill="#999999" fill-opacity="0.1"/>
<path d="M273.286 156.375L239 208.5H307.571L273.286 156.375Z" fill="#999999" fill-opacity="0.1"/>
<path d="M273.286 156.375L307.571 104.25H239L273.286 156.375Z" fill="white" fill-opacity="0.1"/>
<path d="M341.857 156.375L307.571 208.5H376.143L341.857 156.375Z" fill="black" fill-opacity="0.1"/>
<path d="M341.857 156.375L376.143 104.25H307.571L341.857 156.375Z" fill="#DDDDDD" fill-opacity="0.1"/>
<path d="M410.428 156.375L376.143 208.5H444.714L410.428 156.375Z" fill="#AAAAAA" fill-opacity="0.1"/>
<path d="M410.428 156.375L444.714 104.25H376.143L410.428 156.375Z" fill="#444444" fill-opacity="0.1"/>
<path d="M67.5714 260.625L33.2856 312.75H101.857L67.5714 260.625Z" fill="#222222" fill-opacity="0.1"/>
<path d="M136.143 260.625L101.857 312.75H170.429L136.143 260.625Z" fill="black" fill-opacity="0.1"/>
<path d="M136.143 260.625L170.429 208.5H101.857L136.143 260.625Z" fill="#DDDDDD" fill-opacity="0.1"/>
<path d="M204.714 260.625L239 208.5H170.429L204.714 260.625Z" fill="black" fill-opacity="0.1"/>
<path d="M273.286 260.625L239 312.75H307.571L273.286 260.625Z" fill="black" fill-opacity="0.1"/>
<path d="M273.286 260.625L307.571 208.5H239L273.286 260.625Z" fill="#444444" fill-opacity="0.1"/>
<path d="M341.857 260.625L307.571 312.75H376.143L341.857 260.625Z" fill="#AAAAAA" fill-opacity="0.1"/>
<path d="M341.857 260.625L376.143 208.5H307.571L341.857 260.625Z" fill="#666666" fill-opacity="0.1"/>
<path d="M410.428 260.625L376.143 312.75H444.714L410.428 260.625Z" fill="#999999" fill-opacity="0.1"/>
<path d="M101.857 0L67.5713 52.125H136.143L101.857 0Z" fill="#999999" fill-opacity="0.1"/>
<path d="M170.429 0L136.143 52.125H204.714L170.429 0Z" fill="#444444" fill-opacity="0.1"/>
<path d="M239 0L204.714 52.125H273.286L239 0Z" fill="white" fill-opacity="0.1"/>
<path d="M376.143 0L341.857 52.125H410.429L376.143 0Z" fill="black" fill-opacity="0.1"/>
<path d="M33.2857 104.25L-1 156.375H67.5714L33.2857 104.25Z" fill="#222222" fill-opacity="0.1"/>
<path d="M33.2857 104.25L67.5714 52.1252H-1L33.2857 104.25Z" fill="white" fill-opacity="0.1"/>
<path d="M101.857 104.25L67.5713 156.375H136.143L101.857 104.25Z" fill="white" fill-opacity="0.1"/>
<path d="M101.857 104.25L136.143 52.1252H67.5713L101.857 104.25Z" fill="#666666" fill-opacity="0.1"/>
<path d="M170.429 104.25L136.143 156.375H204.714L170.429 104.25Z" fill="#222222" fill-opacity="0.1"/>
<path d="M170.429 104.25L204.714 52.1252H136.143L170.429 104.25Z" fill="white" fill-opacity="0.1"/>
<path d="M239 104.25L204.714 156.375H273.286L239 104.25Z" fill="#444444" fill-opacity="0.1"/>
<path d="M239 104.25L273.286 52.1252H204.714L239 104.25Z" fill="#222222" fill-opacity="0.1"/>
<path d="M307.572 104.25L273.286 156.375H341.858L307.572 104.25Z" fill="#AAAAAA" fill-opacity="0.1"/>
<path d="M307.572 104.25L341.858 52.1252H273.286L307.572 104.25Z" fill="#666666" fill-opacity="0.1"/>
<path d="M376.143 104.25L341.857 156.375H410.429L376.143 104.25Z" fill="white" fill-opacity="0.1"/>
<path d="M376.143 104.25L410.429 52.1252H341.857L376.143 104.25Z" fill="#999999" fill-opacity="0.1"/>
<path d="M33.2857 208.5L-1 260.625H67.5714L33.2857 208.5Z" fill="black" fill-opacity="0.1"/>
<path d="M33.2857 208.5L67.5714 156.375H-1L33.2857 208.5Z" fill="#666666" fill-opacity="0.1"/>
<path d="M101.857 208.5L67.5713 260.625H136.143L101.857 208.5Z" fill="#AAAAAA" fill-opacity="0.1"/>
<path d="M101.857 208.5L136.143 156.375H67.5713L101.857 208.5Z" fill="#444444" fill-opacity="0.1"/>
<path d="M170.429 208.5L136.143 260.625H204.714L170.429 208.5Z" fill="#444444" fill-opacity="0.1"/>
<path d="M170.429 208.5L204.714 156.375H136.143L170.429 208.5Z" fill="#999999" fill-opacity="0.1"/>
<path d="M239 208.5L273.286 156.375H204.714L239 208.5Z" fill="#666666" fill-opacity="0.1"/>
<path d="M307.572 208.5L273.286 260.625H341.858L307.572 208.5Z" fill="#222222" fill-opacity="0.1"/>
<path d="M376.143 208.5L341.857 260.625H410.429L376.143 208.5Z" fill="white" fill-opacity="0.1"/>
<path d="M376.143 208.5L410.429 156.375H341.857L376.143 208.5Z" fill="#222222" fill-opacity="0.1"/>
<path d="M33.2857 312.75L67.5714 260.625H-1L33.2857 312.75Z" fill="#DDDDDD" fill-opacity="0.1"/>
<path d="M101.857 312.75L136.143 260.625H67.5713L101.857 312.75Z" fill="#444444" fill-opacity="0.1"/>
<path d="M170.429 312.75L204.714 260.625H136.143L170.429 312.75Z" fill="white" fill-opacity="0.1"/>
<path d="M239 312.75L273.286 260.625H204.714L239 312.75Z" fill="#AAAAAA" fill-opacity="0.1"/>
<path d="M307.572 312.75L341.858 260.625H273.286L307.572 312.75Z" fill="white" fill-opacity="0.1"/>
<path d="M376.143 312.75L410.429 260.625H341.857L376.143 312.75Z" fill="#222222" fill-opacity="0.1"/>
<path d="M444.714 104.25L410.429 156.375H479L444.714 104.25Z" fill="#222222" fill-opacity="0.1"/>
<path d="M444.714 104.25L479 52.1252H410.429L444.714 104.25Z" fill="white" fill-opacity="0.1"/>
<path d="M444.714 208.5L410.429 260.625H479L444.714 208.5Z" fill="black" fill-opacity="0.1"/>
<path d="M444.714 208.5L479 156.375H410.429L444.714 208.5Z" fill="#666666" fill-opacity="0.1"/>
<path d="M444.714 312.75L479 260.625H410.429L444.714 312.75Z" fill="#DDDDDD" fill-opacity="0.1"/>
<path d="M67.5714 364.875L33.2856 417H101.857L67.5714 364.875Z" fill="#444444" fill-opacity="0.1"/>
<path d="M67.5714 364.875L101.857 312.75H33.2856L67.5714 364.875Z" fill="black" fill-opacity="0.1"/>
<path d="M136.143 364.875L170.429 312.75H101.857L136.143 364.875Z" fill="#AAAAAA" fill-opacity="0.1"/>
<path d="M204.714 364.875L170.429 417H239L204.714 364.875Z" fill="#DDDDDD" fill-opacity="0.1"/>
<path d="M204.714 364.875L239 312.75H170.429L204.714 364.875Z" fill="#999999" fill-opacity="0.1"/>
<path d="M273.286 364.875L239 417H307.571L273.286 364.875Z" fill="black" fill-opacity="0.1"/>
<path d="M273.286 364.875L307.571 312.75H239L273.286 364.875Z" fill="#DDDDDD" fill-opacity="0.1"/>
<path d="M341.857 364.875L307.571 417H376.143L341.857 364.875Z" fill="#444444" fill-opacity="0.1"/>
<path d="M341.857 364.875L376.143 312.75H307.571L341.857 364.875Z" fill="white" fill-opacity="0.1"/>
<path d="M410.428 364.875L376.143 417H444.714L410.428 364.875Z" fill="#DDDDDD" fill-opacity="0.1"/>
<path d="M410.428 364.875L444.714 312.75H376.143L410.428 364.875Z" fill="#444444" fill-opacity="0.1"/>
<path d="M67.5714 469.125L33.2856 521.25H101.857L67.5714 469.125Z" fill="#DDDDDD" fill-opacity="0.1"/>
<path d="M67.5714 469.125L101.857 417H33.2856L67.5714 469.125Z" fill="black" fill-opacity="0.1"/>
<path d="M136.143 469.125L101.857 521.25H170.429L136.143 469.125Z" fill="#666666" fill-opacity="0.1"/>
<path d="M136.143 469.125L170.429 417H101.857L136.143 469.125Z" fill="#AAAAAA" fill-opacity="0.1"/>
<path d="M204.714 469.125L170.429 521.25H239L204.714 469.125Z" fill="#DDDDDD" fill-opacity="0.1"/>
<path d="M204.714 469.125L239 417H170.429L204.714 469.125Z" fill="#999999" fill-opacity="0.1"/>
<path d="M273.286 469.125L239 521.25H307.571L273.286 469.125Z" fill="#999999" fill-opacity="0.1"/>
<path d="M273.286 469.125L307.571 417H239L273.286 469.125Z" fill="white" fill-opacity="0.1"/>
<path d="M341.857 469.125L307.571 521.25H376.143L341.857 469.125Z" fill="black" fill-opacity="0.1"/>
<path d="M341.857 469.125L376.143 417H307.571L341.857 469.125Z" fill="#DDDDDD" fill-opacity="0.1"/>
<path d="M410.428 469.125L376.143 521.25H444.714L410.428 469.125Z" fill="#AAAAAA" fill-opacity="0.1"/>
<path d="M410.428 469.125L444.714 417H376.143L410.428 469.125Z" fill="#444444" fill-opacity="0.1"/>
<path d="M67.5714 573.375L33.2856 625.5H101.857L67.5714 573.375Z" fill="#222222" fill-opacity="0.1"/>
<path d="M136.143 573.375L101.857 625.5H170.429L136.143 573.375Z" fill="black" fill-opacity="0.1"/>
<path d="M136.143 573.375L170.429 521.25H101.857L136.143 573.375Z" fill="#DDDDDD" fill-opacity="0.1"/>
<path d="M204.714 573.375L239 521.25H170.429L204.714 573.375Z" fill="black" fill-opacity="0.1"/>
<path d="M273.286 573.375L239 625.5H307.571L273.286 573.375Z" fill="black" fill-opacity="0.1"/>
<path d="M273.286 573.375L307.571 521.25H239L273.286 573.375Z" fill="#444444" fill-opacity="0.1"/>
<path d="M341.857 573.375L307.571 625.5H376.143L341.857 573.375Z" fill="#AAAAAA" fill-opacity="0.1"/>
<path d="M341.857 573.375L376.143 521.25H307.571L341.857 573.375Z" fill="#666666" fill-opacity="0.1"/>
<path d="M410.428 573.375L376.143 625.5H444.714L410.428 573.375Z" fill="#999999" fill-opacity="0.1"/>
<path d="M101.857 312.75L67.5713 364.875H136.143L101.857 312.75Z" fill="#999999" fill-opacity="0.1"/>
<path d="M170.429 312.75L136.143 364.875H204.714L170.429 312.75Z" fill="#444444" fill-opacity="0.1"/>
<path d="M239 312.75L204.714 364.875H273.286L239 312.75Z" fill="white" fill-opacity="0.1"/>
<path d="M376.143 312.75L341.857 364.875H410.429L376.143 312.75Z" fill="black" fill-opacity="0.1"/>
<path d="M33.2857 417L-1 469.125H67.5714L33.2857 417Z" fill="#222222" fill-opacity="0.1"/>
<path d="M33.2857 417L67.5714 364.875H-1L33.2857 417Z" fill="white" fill-opacity="0.1"/>
<path d="M101.857 417L67.5713 469.125H136.143L101.857 417Z" fill="white" fill-opacity="0.1"/>
<path d="M101.857 417L136.143 364.875H67.5713L101.857 417Z" fill="#666666" fill-opacity="0.1"/>
<path d="M170.429 417L136.143 469.125H204.714L170.429 417Z" fill="#222222" fill-opacity="0.1"/>
<path d="M170.429 417L204.714 364.875H136.143L170.429 417Z" fill="white" fill-opacity="0.1"/>
<path d="M239 417L204.714 469.125H273.286L239 417Z" fill="#444444" fill-opacity="0.1"/>
<path d="M239 417L273.286 364.875H204.714L239 417Z" fill="#222222" fill-opacity="0.1"/>
<path d="M307.572 417L273.286 469.125H341.858L307.572 417Z" fill="#AAAAAA" fill-opacity="0.1"/>
<path d="M307.572 417L341.858 364.875H273.286L307.572 417Z" fill="#666666" fill-opacity="0.1"/>
<path d="M376.143 417L341.857 469.125H410.429L376.143 417Z" fill="white" fill-opacity="0.1"/>
<path d="M376.143 417L410.429 364.875H341.857L376.143 417Z" fill="#999999" fill-opacity="0.1"/>
<path d="M33.2857 521.25L-1 573.375H67.5714L33.2857 521.25Z" fill="black" fill-opacity="0.1"/>
<path d="M33.2857 521.25L67.5714 469.125H-1L33.2857 521.25Z" fill="#666666" fill-opacity="0.1"/>
<path d="M101.857 521.25L67.5713 573.375H136.143L101.857 521.25Z" fill="#AAAAAA" fill-opacity="0.1"/>
<path d="M101.857 521.25L136.143 469.125H67.5713L101.857 521.25Z" fill="#444444" fill-opacity="0.1"/>
<path d="M170.429 521.25L136.143 573.375H204.714L170.429 521.25Z" fill="#444444" fill-opacity="0.1"/>
<path d="M170.429 521.25L204.714 469.125H136.143L170.429 521.25Z" fill="#999999" fill-opacity="0.1"/>
<path d="M239 521.25L273.286 469.125H204.714L239 521.25Z" fill="#666666" fill-opacity="0.1"/>
<path d="M307.572 521.25L273.286 573.375H341.858L307.572 521.25Z" fill="#222222" fill-opacity="0.1"/>
<path d="M376.143 521.25L341.857 573.375H410.429L376.143 521.25Z" fill="white" fill-opacity="0.1"/>
<path d="M376.143 521.25L410.429 469.125H341.857L376.143 521.25Z" fill="#222222" fill-opacity="0.1"/>
<path d="M33.2857 625.5L67.5714 573.375H-1L33.2857 625.5Z" fill="#DDDDDD" fill-opacity="0.1"/>
<path d="M101.857 625.5L136.143 573.375H67.5713L101.857 625.5Z" fill="#444444" fill-opacity="0.1"/>
<path d="M170.429 625.5L204.714 573.375H136.143L170.429 625.5Z" fill="white" fill-opacity="0.1"/>
<path d="M239 625.5L273.286 573.375H204.714L239 625.5Z" fill="#AAAAAA" fill-opacity="0.1"/>
<path d="M307.572 625.5L341.858 573.375H273.286L307.572 625.5Z" fill="white" fill-opacity="0.1"/>
<path d="M376.143 625.5L410.429 573.375H341.857L376.143 625.5Z" fill="#222222" fill-opacity="0.1"/>
<path d="M444.714 417L410.429 469.125H479L444.714 417Z" fill="#222222" fill-opacity="0.1"/>
<path d="M444.714 417L479 364.875H410.429L444.714 417Z" fill="white" fill-opacity="0.1"/>
<path d="M444.714 521.25L410.429 573.375H479L444.714 521.25Z" fill="black" fill-opacity="0.1"/>
<path d="M444.714 521.25L479 469.125H410.429L444.714 521.25Z" fill="#666666" fill-opacity="0.1"/>
<path d="M444.714 625.5L479 573.375H410.429L444.714 625.5Z" fill="#DDDDDD" fill-opacity="0.1"/>
<path d="M547.571 52.1252L513.286 104.25H581.857L547.571 52.1252Z" fill="#444444" fill-opacity="0.1"/>
<path d="M547.572 52.125L581.857 0H513.286L547.572 52.125Z" fill="black" fill-opacity="0.1"/>
<path d="M616.143 52.125L650.429 0H581.857L616.143 52.125Z" fill="#AAAAAA" fill-opacity="0.1"/>
<path d="M684.715 52.1252L650.429 104.25H719L684.715 52.1252Z" fill="#DDDDDD" fill-opacity="0.1"/>
<path d="M684.715 52.125L719 0H650.429L684.715 52.125Z" fill="#999999" fill-opacity="0.1"/>
<path d="M753.286 52.1252L719 104.25H787.572L753.286 52.1252Z" fill="black" fill-opacity="0.1"/>
<path d="M753.286 52.125L787.572 0H719L753.286 52.125Z" fill="#DDDDDD" fill-opacity="0.1"/>
<path d="M821.857 52.1252L787.571 104.25H856.143L821.857 52.1252Z" fill="#444444" fill-opacity="0.1"/>
<path d="M821.857 52.125L856.143 0H787.571L821.857 52.125Z" fill="white" fill-opacity="0.1"/>
<path d="M890.429 52.1252L856.143 104.25H924.714L890.429 52.1252Z" fill="#DDDDDD" fill-opacity="0.1"/>
<path d="M890.429 52.125L924.714 0H856.143L890.429 52.125Z" fill="#444444" fill-opacity="0.1"/>
<path d="M547.571 156.375L513.286 208.5H581.857L547.571 156.375Z" fill="#DDDDDD" fill-opacity="0.1"/>
<path d="M547.571 156.375L581.857 104.25H513.286L547.571 156.375Z" fill="black" fill-opacity="0.1"/>
<path d="M616.143 156.375L581.857 208.5H650.428L616.143 156.375Z" fill="#666666" fill-opacity="0.1"/>
<path d="M616.143 156.375L650.428 104.25H581.857L616.143 156.375Z" fill="#AAAAAA" fill-opacity="0.1"/>
<path d="M684.715 156.375L650.429 208.5H719L684.715 156.375Z" fill="#DDDDDD" fill-opacity="0.1"/>
<path d="M684.715 156.375L719 104.25H650.429L684.715 156.375Z" fill="#999999" fill-opacity="0.1"/>
<path d="M753.286 156.375L719 208.5H787.572L753.286 156.375Z" fill="#999999" fill-opacity="0.1"/>
<path d="M753.286 156.375L787.572 104.25H719L753.286 156.375Z" fill="white" fill-opacity="0.1"/>
<path d="M821.857 156.375L787.571 208.5H856.143L821.857 156.375Z" fill="black" fill-opacity="0.1"/>
<path d="M821.857 156.375L856.143 104.25H787.571L821.857 156.375Z" fill="#DDDDDD" fill-opacity="0.1"/>
<path d="M890.429 156.375L856.143 208.5H924.714L890.429 156.375Z" fill="#AAAAAA" fill-opacity="0.1"/>
<path d="M890.429 156.375L924.714 104.25H856.143L890.429 156.375Z" fill="#444444" fill-opacity="0.1"/>
<path d="M547.571 260.625L513.286 312.75H581.857L547.571 260.625Z" fill="#222222" fill-opacity="0.1"/>
<path d="M616.143 260.625L581.857 312.75H650.428L616.143 260.625Z" fill="black" fill-opacity="0.1"/>
<path d="M616.143 260.625L650.428 208.5H581.857L616.143 260.625Z" fill="#DDDDDD" fill-opacity="0.1"/>
<path d="M684.715 260.625L719 208.5H650.429L684.715 260.625Z" fill="black" fill-opacity="0.1"/>
<path d="M753.286 260.625L719 312.75H787.572L753.286 260.625Z" fill="black" fill-opacity="0.1"/>
<path d="M753.286 260.625L787.572 208.5H719L753.286 260.625Z" fill="#444444" fill-opacity="0.1"/>
<path d="M821.857 260.625L787.571 312.75H856.143L821.857 260.625Z" fill="#AAAAAA" fill-opacity="0.1"/>
<path d="M821.857 260.625L856.143 208.5H787.571L821.857 260.625Z" fill="#666666" fill-opacity="0.1"/>
<path d="M890.429 260.625L856.143 312.75H924.714L890.429 260.625Z" fill="#999999" fill-opacity="0.1"/>
<path d="M581.857 0L547.572 52.125H616.143L581.857 0Z" fill="#999999" fill-opacity="0.1"/>
<path d="M650.429 0L616.143 52.125H684.714L650.429 0Z" fill="#444444" fill-opacity="0.1"/>
<path d="M719 0L684.714 52.125H753.286L719 0Z" fill="white" fill-opacity="0.1"/>
<path d="M856.143 0L821.857 52.125H890.429L856.143 0Z" fill="black" fill-opacity="0.1"/>
<path d="M513.286 104.25L479 156.375H547.572L513.286 104.25Z" fill="#222222" fill-opacity="0.1"/>
<path d="M513.286 104.25L547.572 52.1252H479L513.286 104.25Z" fill="white" fill-opacity="0.1"/>
<path d="M581.857 104.25L547.571 156.375H616.143L581.857 104.25Z" fill="white" fill-opacity="0.1"/>
<path d="M581.857 104.25L616.143 52.1252H547.571L581.857 104.25Z" fill="#666666" fill-opacity="0.1"/>
<path d="M650.428 104.25L616.143 156.375H684.714L650.428 104.25Z" fill="#222222" fill-opacity="0.1"/>
<path d="M650.428 104.25L684.714 52.1252H616.143L650.428 104.25Z" fill="white" fill-opacity="0.1"/>
<path d="M719 104.25L684.714 156.375H753.286L719 104.25Z" fill="#444444" fill-opacity="0.1"/>
<path d="M719 104.25L753.286 52.1252H684.714L719 104.25Z" fill="#222222" fill-opacity="0.1"/>
<path d="M787.571 104.25L753.286 156.375H821.857L787.571 104.25Z" fill="#AAAAAA" fill-opacity="0.1"/>
<path d="M787.571 104.25L821.857 52.1252H753.286L787.571 104.25Z" fill="#666666" fill-opacity="0.1"/>
<path d="M856.143 104.25L821.857 156.375H890.429L856.143 104.25Z" fill="white" fill-opacity="0.1"/>
<path d="M856.143 104.25L890.429 52.1252H821.857L856.143 104.25Z" fill="#999999" fill-opacity="0.1"/>
<path d="M513.286 208.5L479 260.625H547.572L513.286 208.5Z" fill="black" fill-opacity="0.1"/>
<path d="M513.286 208.5L547.572 156.375H479L513.286 208.5Z" fill="#666666" fill-opacity="0.1"/>
<path d="M581.857 208.5L547.571 260.625H616.143L581.857 208.5Z" fill="#AAAAAA" fill-opacity="0.1"/>
<path d="M581.857 208.5L616.143 156.375H547.571L581.857 208.5Z" fill="#444444" fill-opacity="0.1"/>
<path d="M650.428 208.5L616.143 260.625H684.714L650.428 208.5Z" fill="#444444" fill-opacity="0.1"/>
<path d="M650.428 208.5L684.714 156.375H616.143L650.428 208.5Z" fill="#999999" fill-opacity="0.1"/>
<path d="M719 208.5L753.286 156.375H684.714L719 208.5Z" fill="#666666" fill-opacity="0.1"/>
<path d="M787.571 208.5L753.286 260.625H821.857L787.571 208.5Z" fill="#222222" fill-opacity="0.1"/>
<path d="M856.143 208.5L821.857 260.625H890.429L856.143 208.5Z" fill="white" fill-opacity="0.1"/>
<path d="M856.143 208.5L890.429 156.375H821.857L856.143 208.5Z" fill="#222222" fill-opacity="0.1"/>
<path d="M513.286 312.75L547.572 260.625H479L513.286 312.75Z" fill="#DDDDDD" fill-opacity="0.1"/>
<path d="M581.857 312.75L616.143 260.625H547.571L581.857 312.75Z" fill="#444444" fill-opacity="0.1"/>
<path d="M650.428 312.75L684.714 260.625H616.143L650.428 312.75Z" fill="white" fill-opacity="0.1"/>
<path d="M719 312.75L753.286 260.625H684.714L719 312.75Z" fill="#AAAAAA" fill-opacity="0.1"/>
<path d="M787.571 312.75L821.857 260.625H753.286L787.571 312.75Z" fill="white" fill-opacity="0.1"/>
<path d="M856.143 312.75L890.429 260.625H821.857L856.143 312.75Z" fill="#222222" fill-opacity="0.1"/>
<path d="M924.714 104.25L890.429 156.375H959L924.714 104.25Z" fill="#222222" fill-opacity="0.1"/>
<path d="M924.714 104.25L959 52.1252H890.429L924.714 104.25Z" fill="white" fill-opacity="0.1"/>
<path d="M924.714 208.5L890.429 260.625H959L924.714 208.5Z" fill="black" fill-opacity="0.1"/>
<path d="M924.714 208.5L959 156.375H890.429L924.714 208.5Z" fill="#666666" fill-opacity="0.1"/>
<path d="M924.714 312.75L959 260.625H890.429L924.714 312.75Z" fill="#DDDDDD" fill-opacity="0.1"/>
<path d="M547.571 364.875L513.286 417H581.857L547.571 364.875Z" fill="#444444" fill-opacity="0.1"/>
<path d="M547.571 364.875L581.857 312.75H513.286L547.571 364.875Z" fill="black" fill-opacity="0.1"/>
<path d="M616.143 364.875L650.428 312.75H581.857L616.143 364.875Z" fill="#AAAAAA" fill-opacity="0.1"/>
<path d="M684.714 364.875L650.429 417H719L684.714 364.875Z" fill="#DDDDDD" fill-opacity="0.1"/>
<path d="M684.714 364.875L719 312.75H650.429L684.714 364.875Z" fill="#999999" fill-opacity="0.1"/>
<path d="M753.286 364.875L719 417H787.571L753.286 364.875Z" fill="black" fill-opacity="0.1"/>
<path d="M753.286 364.875L787.571 312.75H719L753.286 364.875Z" fill="#DDDDDD" fill-opacity="0.1"/>
<path d="M821.857 364.875L787.571 417H856.143L821.857 364.875Z" fill="#444444" fill-opacity="0.1"/>
<path d="M821.857 364.875L856.143 312.75H787.571L821.857 364.875Z" fill="white" fill-opacity="0.1"/>
<path d="M890.429 364.875L856.143 417H924.714L890.429 364.875Z" fill="#DDDDDD" fill-opacity="0.1"/>
<path d="M890.429 364.875L924.714 312.75H856.143L890.429 364.875Z" fill="#444444" fill-opacity="0.1"/>
<path d="M547.571 469.125L513.286 521.25H581.857L547.571 469.125Z" fill="#DDDDDD" fill-opacity="0.1"/>
<path d="M547.571 469.125L581.857 417H513.286L547.571 469.125Z" fill="black" fill-opacity="0.1"/>
<path d="M616.143 469.125L581.857 521.25H650.428L616.143 469.125Z" fill="#666666" fill-opacity="0.1"/>
<path d="M616.143 469.125L650.428 417H581.857L616.143 469.125Z" fill="#AAAAAA" fill-opacity="0.1"/>
<path d="M684.714 469.125L650.429 521.25H719L684.714 469.125Z" fill="#DDDDDD" fill-opacity="0.1"/>
<path d="M684.714 469.125L719 417H650.429L684.714 469.125Z" fill="#999999" fill-opacity="0.1"/>
<path d="M753.286 469.125L719 521.25H787.571L753.286 469.125Z" fill="#999999" fill-opacity="0.1"/>
<path d="M753.286 469.125L787.571 417H719L753.286 469.125Z" fill="white" fill-opacity="0.1"/>
<path d="M821.857 469.125L787.571 521.25H856.143L821.857 469.125Z" fill="black" fill-opacity="0.1"/>
<path d="M821.857 469.125L856.143 417H787.571L821.857 469.125Z" fill="#DDDDDD" fill-opacity="0.1"/>
<path d="M890.429 469.125L856.143 521.25H924.714L890.429 469.125Z" fill="#AAAAAA" fill-opacity="0.1"/>
<path d="M890.429 469.125L924.714 417H856.143L890.429 469.125Z" fill="#444444" fill-opacity="0.1"/>
<path d="M547.571 573.375L513.286 625.5H581.857L547.571 573.375Z" fill="#222222" fill-opacity="0.1"/>
<path d="M616.143 573.375L581.857 625.5H650.428L616.143 573.375Z" fill="black" fill-opacity="0.1"/>
<path d="M616.143 573.375L650.428 521.25H581.857L616.143 573.375Z" fill="#DDDDDD" fill-opacity="0.1"/>
<path d="M684.714 573.375L719 521.25H650.429L684.714 573.375Z" fill="black" fill-opacity="0.1"/>
<path d="M753.286 573.375L719 625.5H787.571L753.286 573.375Z" fill="black" fill-opacity="0.1"/>
<path d="M753.286 573.375L787.571 521.25H719L753.286 573.375Z" fill="#444444" fill-opacity="0.1"/>
<path d="M821.857 573.375L787.571 625.5H856.143L821.857 573.375Z" fill="#AAAAAA" fill-opacity="0.1"/>
<path d="M821.857 573.375L856.143 521.25H787.571L821.857 573.375Z" fill="#666666" fill-opacity="0.1"/>
<path d="M890.429 573.375L856.143 625.5H924.714L890.429 573.375Z" fill="#999999" fill-opacity="0.1"/>
<path d="M581.857 312.75L547.571 364.875H616.143L581.857 312.75Z" fill="#999999" fill-opacity="0.1"/>
<path d="M650.428 312.75L616.143 364.875H684.714L650.428 312.75Z" fill="#444444" fill-opacity="0.1"/>
<path d="M719 312.75L684.714 364.875H753.286L719 312.75Z" fill="white" fill-opacity="0.1"/>
<path d="M856.143 312.75L821.857 364.875H890.429L856.143 312.75Z" fill="black" fill-opacity="0.1"/>
<path d="M513.286 417L479 469.125H547.571L513.286 417Z" fill="#222222" fill-opacity="0.1"/>
<path d="M513.286 417L547.571 364.875H479L513.286 417Z" fill="white" fill-opacity="0.1"/>
<path d="M581.857 417L547.571 469.125H616.143L581.857 417Z" fill="white" fill-opacity="0.1"/>
<path d="M581.857 417L616.143 364.875H547.571L581.857 417Z" fill="#666666" fill-opacity="0.1"/>
<path d="M650.428 417L616.143 469.125H684.714L650.428 417Z" fill="#222222" fill-opacity="0.1"/>
<path d="M650.428 417L684.714 364.875H616.143L650.428 417Z" fill="white" fill-opacity="0.1"/>
<path d="M719 417L684.714 469.125H753.286L719 417Z" fill="#444444" fill-opacity="0.1"/>
<path d="M719 417L753.286 364.875H684.714L719 417Z" fill="#222222" fill-opacity="0.1"/>
<path d="M787.571 417L753.286 469.125H821.857L787.571 417Z" fill="#AAAAAA" fill-opacity="0.1"/>
<path d="M787.571 417L821.857 364.875H753.286L787.571 417Z" fill="#666666" fill-opacity="0.1"/>
<path d="M856.143 417L821.857 469.125H890.429L856.143 417Z" fill="white" fill-opacity="0.1"/>
<path d="M856.143 417L890.429 364.875H821.857L856.143 417Z" fill="#999999" fill-opacity="0.1"/>
<path d="M513.286 521.25L479 573.375H547.571L513.286 521.25Z" fill="black" fill-opacity="0.1"/>
<path d="M513.286 521.25L547.571 469.125H479L513.286 521.25Z" fill="#666666" fill-opacity="0.1"/>
<path d="M581.857 521.25L547.571 573.375H616.143L581.857 521.25Z" fill="#AAAAAA" fill-opacity="0.1"/>
<path d="M581.857 521.25L616.143 469.125H547.571L581.857 521.25Z" fill="#444444" fill-opacity="0.1"/>
<path d="M650.428 521.25L616.143 573.375H684.714L650.428 521.25Z" fill="#444444" fill-opacity="0.1"/>
<path d="M650.428 521.25L684.714 469.125H616.143L650.428 521.25Z" fill="#999999" fill-opacity="0.1"/>
<path d="M719 521.25L753.286 469.125H684.714L719 521.25Z" fill="#666666" fill-opacity="0.1"/>
<path d="M787.571 521.25L753.286 573.375H821.857L787.571 521.25Z" fill="#222222" fill-opacity="0.1"/>
<path d="M856.143 521.25L821.857 573.375H890.429L856.143 521.25Z" fill="white" fill-opacity="0.1"/>
<path d="M856.143 521.25L890.429 469.125H821.857L856.143 521.25Z" fill="#222222" fill-opacity="0.1"/>
<path d="M513.286 625.5L547.571 573.375H479L513.286 625.5Z" fill="#DDDDDD" fill-opacity="0.1"/>
<path d="M581.857 625.5L616.143 573.375H547.571L581.857 625.5Z" fill="#444444" fill-opacity="0.1"/>
<path d="M650.428 625.5L684.714 573.375H616.143L650.428 625.5Z" fill="white" fill-opacity="0.1"/>
<path d="M719 625.5L753.286 573.375H684.714L719 625.5Z" fill="#AAAAAA" fill-opacity="0.1"/>
<path d="M787.571 625.5L821.857 573.375H753.286L787.571 625.5Z" fill="white" fill-opacity="0.1"/>
<path d="M856.143 625.5L890.429 573.375H821.857L856.143 625.5Z" fill="#222222" fill-opacity="0.1"/>
<path d="M924.714 417L890.429 469.125H959L924.714 417Z" fill="#222222" fill-opacity="0.1"/>
<path d="M924.714 417L959 364.875H890.429L924.714 417Z" fill="white" fill-opacity="0.1"/>
<path d="M924.714 521.25L890.429 573.375H959L924.714 521.25Z" fill="black" fill-opacity="0.1"/>
<path d="M924.714 521.25L959 469.125H890.429L924.714 521.25Z" fill="#666666" fill-opacity="0.1"/>
<path d="M924.714 625.5L959 573.375H890.429L924.714 625.5Z" fill="#DDDDDD" fill-opacity="0.1"/>
<path d="M1027.57 52.1252L993.286 104.25H1061.86L1027.57 52.1252Z" fill="#444444" fill-opacity="0.1"/>
<path d="M1027.57 52.125L1061.86 0H993.286L1027.57 52.125Z" fill="black" fill-opacity="0.1"/>
<path d="M1096.14 52.125L1130.43 0H1061.86L1096.14 52.125Z" fill="#AAAAAA" fill-opacity="0.1"/>
<path d="M1164.71 52.1252L1130.43 104.25H1199L1164.71 52.1252Z" fill="#DDDDDD" fill-opacity="0.1"/>
<path d="M1164.71 52.125L1199 0H1130.43L1164.71 52.125Z" fill="#999999" fill-opacity="0.1"/>
<path d="M1233.29 52.1252L1199 104.25H1267.57L1233.29 52.1252Z" fill="black" fill-opacity="0.1"/>
<path d="M1233.29 52.125L1267.57 0H1199L1233.29 52.125Z" fill="#DDDDDD" fill-opacity="0.1"/>
<path d="M1301.86 52.1252L1267.57 104.25H1336.14L1301.86 52.1252Z" fill="#444444" fill-opacity="0.1"/>
<path d="M1301.86 52.125L1336.14 0H1267.57L1301.86 52.125Z" fill="white" fill-opacity="0.1"/>
<path d="M1370.43 52.1252L1336.14 104.25H1404.71L1370.43 52.1252Z" fill="#DDDDDD" fill-opacity="0.1"/>
<path d="M1370.43 52.125L1404.71 0H1336.14L1370.43 52.125Z" fill="#444444" fill-opacity="0.1"/>
<path d="M1027.57 156.375L993.286 208.5H1061.86L1027.57 156.375Z" fill="#DDDDDD" fill-opacity="0.1"/>
<path d="M1027.57 156.375L1061.86 104.25H993.286L1027.57 156.375Z" fill="black" fill-opacity="0.1"/>
<path d="M1096.14 156.375L1061.86 208.5H1130.43L1096.14 156.375Z" fill="#666666" fill-opacity="0.1"/>
<path d="M1096.14 156.375L1130.43 104.25H1061.86L1096.14 156.375Z" fill="#AAAAAA" fill-opacity="0.1"/>
<path d="M1164.71 156.375L1130.43 208.5H1199L1164.71 156.375Z" fill="#DDDDDD" fill-opacity="0.1"/>
<path d="M1164.71 156.375L1199 104.25H1130.43L1164.71 156.375Z" fill="#999999" fill-opacity="0.1"/>
<path d="M1233.29 156.375L1199 208.5H1267.57L1233.29 156.375Z" fill="#999999" fill-opacity="0.1"/>
<path d="M1233.29 156.375L1267.57 104.25H1199L1233.29 156.375Z" fill="white" fill-opacity="0.1"/>
<path d="M1301.86 156.375L1267.57 208.5H1336.14L1301.86 156.375Z" fill="black" fill-opacity="0.1"/>
<path d="M1301.86 156.375L1336.14 104.25H1267.57L1301.86 156.375Z" fill="#DDDDDD" fill-opacity="0.1"/>
<path d="M1370.43 156.375L1336.14 208.5H1404.71L1370.43 156.375Z" fill="#AAAAAA" fill-opacity="0.1"/>
<path d="M1370.43 156.375L1404.71 104.25H1336.14L1370.43 156.375Z" fill="#444444" fill-opacity="0.1"/>
<path d="M1027.57 260.625L993.286 312.75H1061.86L1027.57 260.625Z" fill="#222222" fill-opacity="0.1"/>
<path d="M1096.14 260.625L1061.86 312.75H1130.43L1096.14 260.625Z" fill="black" fill-opacity="0.1"/>
<path d="M1096.14 260.625L1130.43 208.5H1061.86L1096.14 260.625Z" fill="#DDDDDD" fill-opacity="0.1"/>
<path d="M1164.71 260.625L1199 208.5H1130.43L1164.71 260.625Z" fill="black" fill-opacity="0.1"/>
<path d="M1233.29 260.625L1199 312.75H1267.57L1233.29 260.625Z" fill="black" fill-opacity="0.1"/>
<path d="M1233.29 260.625L1267.57 208.5H1199L1233.29 260.625Z" fill="#444444" fill-opacity="0.1"/>
<path d="M1301.86 260.625L1267.57 312.75H1336.14L1301.86 260.625Z" fill="#AAAAAA" fill-opacity="0.1"/>
<path d="M1301.86 260.625L1336.14 208.5H1267.57L1301.86 260.625Z" fill="#666666" fill-opacity="0.1"/>
<path d="M1370.43 260.625L1336.14 312.75H1404.71L1370.43 260.625Z" fill="#999999" fill-opacity="0.1"/>
<path d="M1061.86 0L1027.57 52.125H1096.14L1061.86 0Z" fill="#999999" fill-opacity="0.1"/>
<path d="M1130.43 0L1096.14 52.125H1164.71L1130.43 0Z" fill="#444444" fill-opacity="0.1"/>
<path d="M1199 0L1164.71 52.125H1233.29L1199 0Z" fill="white" fill-opacity="0.1"/>
<path d="M1336.14 0L1301.86 52.125H1370.43L1336.14 0Z" fill="black" fill-opacity="0.1"/>
<path d="M993.286 104.25L959 156.375H1027.57L993.286 104.25Z" fill="#222222" fill-opacity="0.1"/>
<path d="M993.286 104.25L1027.57 52.1252H959L993.286 104.25Z" fill="white" fill-opacity="0.1"/>
<path d="M1061.86 104.25L1027.57 156.375H1096.14L1061.86 104.25Z" fill="white" fill-opacity="0.1"/>
<path d="M1061.86 104.25L1096.14 52.1252H1027.57L1061.86 104.25Z" fill="#666666" fill-opacity="0.1"/>
<path d="M1130.43 104.25L1096.14 156.375H1164.71L1130.43 104.25Z" fill="#222222" fill-opacity="0.1"/>
<path d="M1130.43 104.25L1164.71 52.1252H1096.14L1130.43 104.25Z" fill="white" fill-opacity="0.1"/>
<path d="M1199 104.25L1164.71 156.375H1233.29L1199 104.25Z" fill="#444444" fill-opacity="0.1"/>
<path d="M1199 104.25L1233.29 52.1252H1164.71L1199 104.25Z" fill="#222222" fill-opacity="0.1"/>
<path d="M1267.57 104.25L1233.29 156.375H1301.86L1267.57 104.25Z" fill="#AAAAAA" fill-opacity="0.1"/>
<path d="M1267.57 104.25L1301.86 52.1252H1233.29L1267.57 104.25Z" fill="#666666" fill-opacity="0.1"/>
<path d="M1336.14 104.25L1301.86 156.375H1370.43L1336.14 104.25Z" fill="white" fill-opacity="0.1"/>
<path d="M1336.14 104.25L1370.43 52.1252H1301.86L1336.14 104.25Z" fill="#999999" fill-opacity="0.1"/>
<path d="M993.286 208.5L959 260.625H1027.57L993.286 208.5Z" fill="black" fill-opacity="0.1"/>
<path d="M993.286 208.5L1027.57 156.375H959L993.286 208.5Z" fill="#666666" fill-opacity="0.1"/>
<path d="M1061.86 208.5L1027.57 260.625H1096.14L1061.86 208.5Z" fill="#AAAAAA" fill-opacity="0.1"/>
<path d="M1061.86 208.5L1096.14 156.375H1027.57L1061.86 208.5Z" fill="#444444" fill-opacity="0.1"/>
<path d="M1130.43 208.5L1096.14 260.625H1164.71L1130.43 208.5Z" fill="#444444" fill-opacity="0.1"/>
<path d="M1130.43 208.5L1164.71 156.375H1096.14L1130.43 208.5Z" fill="#999999" fill-opacity="0.1"/>
<path d="M1199 208.5L1233.29 156.375H1164.71L1199 208.5Z" fill="#666666" fill-opacity="0.1"/>
<path d="M1267.57 208.5L1233.29 260.625H1301.86L1267.57 208.5Z" fill="#222222" fill-opacity="0.1"/>
<path d="M1336.14 208.5L1301.86 260.625H1370.43L1336.14 208.5Z" fill="white" fill-opacity="0.1"/>
<path d="M1336.14 208.5L1370.43 156.375H1301.86L1336.14 208.5Z" fill="#222222" fill-opacity="0.1"/>
<path d="M993.286 312.75L1027.57 260.625H959L993.286 312.75Z" fill="#DDDDDD" fill-opacity="0.1"/>
<path d="M1061.86 312.75L1096.14 260.625H1027.57L1061.86 312.75Z" fill="#444444" fill-opacity="0.1"/>
<path d="M1130.43 312.75L1164.71 260.625H1096.14L1130.43 312.75Z" fill="white" fill-opacity="0.1"/>
<path d="M1199 312.75L1233.29 260.625H1164.71L1199 312.75Z" fill="#AAAAAA" fill-opacity="0.1"/>
<path d="M1267.57 312.75L1301.86 260.625H1233.29L1267.57 312.75Z" fill="white" fill-opacity="0.1"/>
<path d="M1336.14 312.75L1370.43 260.625H1301.86L1336.14 312.75Z" fill="#222222" fill-opacity="0.1"/>
<path d="M1404.71 104.25L1370.43 156.375H1439L1404.71 104.25Z" fill="#222222" fill-opacity="0.1"/>
<path d="M1404.71 104.25L1439 52.1252H1370.43L1404.71 104.25Z" fill="white" fill-opacity="0.1"/>
<path d="M1404.71 208.5L1370.43 260.625H1439L1404.71 208.5Z" fill="black" fill-opacity="0.1"/>
<path d="M1404.71 208.5L1439 156.375H1370.43L1404.71 208.5Z" fill="#666666" fill-opacity="0.1"/>
<path d="M1404.71 312.75L1439 260.625H1370.43L1404.71 312.75Z" fill="#DDDDDD" fill-opacity="0.1"/>
<path d="M1027.57 364.875L993.286 417H1061.86L1027.57 364.875Z" fill="#444444" fill-opacity="0.1"/>
<path d="M1027.57 364.875L1061.86 312.75H993.286L1027.57 364.875Z" fill="black" fill-opacity="0.1"/>
<path d="M1096.14 364.875L1130.43 312.75H1061.86L1096.14 364.875Z" fill="#AAAAAA" fill-opacity="0.1"/>
<path d="M1164.71 364.875L1130.43 417H1199L1164.71 364.875Z" fill="#DDDDDD" fill-opacity="0.1"/>
<path d="M1164.71 364.875L1199 312.75H1130.43L1164.71 364.875Z" fill="#999999" fill-opacity="0.1"/>
<path d="M1233.29 364.875L1199 417H1267.57L1233.29 364.875Z" fill="black" fill-opacity="0.1"/>
<path d="M1233.29 364.875L1267.57 312.75H1199L1233.29 364.875Z" fill="#DDDDDD" fill-opacity="0.1"/>
<path d="M1301.86 364.875L1267.57 417H1336.14L1301.86 364.875Z" fill="#444444" fill-opacity="0.1"/>
<path d="M1301.86 364.875L1336.14 312.75H1267.57L1301.86 364.875Z" fill="white" fill-opacity="0.1"/>
<path d="M1370.43 364.875L1336.14 417H1404.71L1370.43 364.875Z" fill="#DDDDDD" fill-opacity="0.1"/>
<path d="M1370.43 364.875L1404.71 312.75H1336.14L1370.43 364.875Z" fill="#444444" fill-opacity="0.1"/>
<path d="M1027.57 469.125L993.286 521.25H1061.86L1027.57 469.125Z" fill="#DDDDDD" fill-opacity="0.1"/>
<path d="M1027.57 469.125L1061.86 417H993.286L1027.57 469.125Z" fill="black" fill-opacity="0.1"/>
<path d="M1096.14 469.125L1061.86 521.25H1130.43L1096.14 469.125Z" fill="#666666" fill-opacity="0.1"/>
<path d="M1096.14 469.125L1130.43 417H1061.86L1096.14 469.125Z" fill="#AAAAAA" fill-opacity="0.1"/>
<path d="M1164.71 469.125L1130.43 521.25H1199L1164.71 469.125Z" fill="#DDDDDD" fill-opacity="0.1"/>
<path d="M1164.71 469.125L1199 417H1130.43L1164.71 469.125Z" fill="#999999" fill-opacity="0.1"/>
<path d="M1233.29 469.125L1199 521.25H1267.57L1233.29 469.125Z" fill="#999999" fill-opacity="0.1"/>
<path d="M1233.29 469.125L1267.57 417H1199L1233.29 469.125Z" fill="white" fill-opacity="0.1"/>
<path d="M1301.86 469.125L1267.57 521.25H1336.14L1301.86 469.125Z" fill="black" fill-opacity="0.1"/>
<path d="M1301.86 469.125L1336.14 417H1267.57L1301.86 469.125Z" fill="#DDDDDD" fill-opacity="0.1"/>
<path d="M1370.43 469.125L1336.14 521.25H1404.71L1370.43 469.125Z" fill="#AAAAAA" fill-opacity="0.1"/>
<path d="M1370.43 469.125L1404.71 417H1336.14L1370.43 469.125Z" fill="#444444" fill-opacity="0.1"/>
<path d="M1027.57 573.375L993.286 625.5H1061.86L1027.57 573.375Z" fill="#222222" fill-opacity="0.1"/>
<path d="M1096.14 573.375L1061.86 625.5H1130.43L1096.14 573.375Z" fill="black" fill-opacity="0.1"/>
<path d="M1096.14 573.375L1130.43 521.25H1061.86L1096.14 573.375Z" fill="#DDDDDD" fill-opacity="0.1"/>
<path d="M1164.71 573.375L1199 521.25H1130.43L1164.71 573.375Z" fill="black" fill-opacity="0.1"/>
<path d="M1233.29 573.375L1199 625.5H1267.57L1233.29 573.375Z" fill="black" fill-opacity="0.1"/>
<path d="M1233.29 573.375L1267.57 521.25H1199L1233.29 573.375Z" fill="#444444" fill-opacity="0.1"/>
<path d="M1301.86 573.375L1267.57 625.5H1336.14L1301.86 573.375Z" fill="#AAAAAA" fill-opacity="0.1"/>
<path d="M1301.86 573.375L1336.14 521.25H1267.57L1301.86 573.375Z" fill="#666666" fill-opacity="0.1"/>
<path d="M1370.43 573.375L1336.14 625.5H1404.71L1370.43 573.375Z" fill="#999999" fill-opacity="0.1"/>
<path d="M1061.86 312.75L1027.57 364.875H1096.14L1061.86 312.75Z" fill="#999999" fill-opacity="0.1"/>
<path d="M1130.43 312.75L1096.14 364.875H1164.71L1130.43 312.75Z" fill="#444444" fill-opacity="0.1"/>
<path d="M1199 312.75L1164.71 364.875H1233.29L1199 312.75Z" fill="white" fill-opacity="0.1"/>
<path d="M1336.14 312.75L1301.86 364.875H1370.43L1336.14 312.75Z" fill="black" fill-opacity="0.1"/>
<path d="M993.286 417L959 469.125H1027.57L993.286 417Z" fill="#222222" fill-opacity="0.1"/>
<path d="M993.286 417L1027.57 364.875H959L993.286 417Z" fill="white" fill-opacity="0.1"/>
<path d="M1061.86 417L1027.57 469.125H1096.14L1061.86 417Z" fill="white" fill-opacity="0.1"/>
<path d="M1061.86 417L1096.14 364.875H1027.57L1061.86 417Z" fill="#666666" fill-opacity="0.1"/>
<path d="M1130.43 417L1096.14 469.125H1164.71L1130.43 417Z" fill="#222222" fill-opacity="0.1"/>
<path d="M1130.43 417L1164.71 364.875H1096.14L1130.43 417Z" fill="white" fill-opacity="0.1"/>
<path d="M1199 417L1164.71 469.125H1233.29L1199 417Z" fill="#444444" fill-opacity="0.1"/>
<path d="M1199 417L1233.29 364.875H1164.71L1199 417Z" fill="#222222" fill-opacity="0.1"/>
<path d="M1267.57 417L1233.29 469.125H1301.86L1267.57 417Z" fill="#AAAAAA" fill-opacity="0.1"/>
<path d="M1267.57 417L1301.86 364.875H1233.29L1267.57 417Z" fill="#666666" fill-opacity="0.1"/>
<path d="M1336.14 417L1301.86 469.125H1370.43L1336.14 417Z" fill="white" fill-opacity="0.1"/>
<path d="M1336.14 417L1370.43 364.875H1301.86L1336.14 417Z" fill="#999999" fill-opacity="0.1"/>
<path d="M993.286 521.25L959 573.375H1027.57L993.286 521.25Z" fill="black" fill-opacity="0.1"/>
<path d="M993.286 521.25L1027.57 469.125H959L993.286 521.25Z" fill="#666666" fill-opacity="0.1"/>
<path d="M1061.86 521.25L1027.57 573.375H1096.14L1061.86 521.25Z" fill="#AAAAAA" fill-opacity="0.1"/>
<path d="M1061.86 521.25L1096.14 469.125H1027.57L1061.86 521.25Z" fill="#444444" fill-opacity="0.1"/>
<path d="M1130.43 521.25L1096.14 573.375H1164.71L1130.43 521.25Z" fill="#444444" fill-opacity="0.1"/>
<path d="M1130.43 521.25L1164.71 469.125H1096.14L1130.43 521.25Z" fill="#999999" fill-opacity="0.1"/>
<path d="M1199 521.25L1233.29 469.125H1164.71L1199 521.25Z" fill="#666666" fill-opacity="0.1"/>
<path d="M1267.57 521.25L1233.29 573.375H1301.86L1267.57 521.25Z" fill="#222222" fill-opacity="0.1"/>
<path d="M1336.14 521.25L1301.86 573.375H1370.43L1336.14 521.25Z" fill="white" fill-opacity="0.1"/>
<path d="M1336.14 521.25L1370.43 469.125H1301.86L1336.14 521.25Z" fill="#222222" fill-opacity="0.1"/>
<path d="M993.286 625.5L1027.57 573.375H959L993.286 625.5Z" fill="#DDDDDD" fill-opacity="0.1"/>
<path d="M1061.86 625.5L1096.14 573.375H1027.57L1061.86 625.5Z" fill="#444444" fill-opacity="0.1"/>
<path d="M1130.43 625.5L1164.71 573.375H1096.14L1130.43 625.5Z" fill="white" fill-opacity="0.1"/>
<path d="M1199 625.5L1233.29 573.375H1164.71L1199 625.5Z" fill="#AAAAAA" fill-opacity="0.1"/>
<path d="M1267.57 625.5L1301.86 573.375H1233.29L1267.57 625.5Z" fill="white" fill-opacity="0.1"/>
<path d="M1336.14 625.5L1370.43 573.375H1301.86L1336.14 625.5Z" fill="#222222" fill-opacity="0.1"/>
<path d="M1404.71 417L1370.43 469.125H1439L1404.71 417Z" fill="#222222" fill-opacity="0.1"/>
<path d="M1404.71 417L1439 364.875H1370.43L1404.71 417Z" fill="white" fill-opacity="0.1"/>
<path d="M1404.71 521.25L1370.43 573.375H1439L1404.71 521.25Z" fill="black" fill-opacity="0.1"/>
<path d="M1404.71 521.25L1439 469.125H1370.43L1404.71 521.25Z" fill="#666666" fill-opacity="0.1"/>
<path d="M1404.71 625.5L1439 573.375H1370.43L1404.71 625.5Z" fill="#DDDDDD" fill-opacity="0.1"/>
</svg>
