<svg id="Group_92" data-name="Group 92" xmlns="http://www.w3.org/2000/svg" xmlns:xlink="http://www.w3.org/1999/xlink" width="412" height="314.934" viewBox="0 0 412 314.934">
  <defs>
    <clipPath id="clip-path">
      <path id="Path_28" data-name="Path 28" d="M460.6,594.661c-1.968-33.086-1.437-63.675,1.14-69.87,2.643-3.847,18.517-13.309,34.149-20.323l-8.786-19.6c-10.972,4.917-37.22,17.6-43.973,29.188-2.851,4.889-5.586,14.436-4.25,48.173.7,17.67,1.562,31.513,1.562,31.513Z" transform="translate(-438.529 -484.871)" fill="none"/>
    </clipPath>
  </defs>
  <g id="Group_90" data-name="Group 90" transform="translate(8.181 0)">
    <g id="Group_85" data-name="Group 85">
      <g id="Group_83" data-name="Group 83">
        <path id="Path_1" data-name="Path 1" d="M101.813,716.95H492.782a5.619,5.619,0,0,0,5.6-5.6h0a5.62,5.62,0,0,0-5.6-5.6H101.813a5.62,5.62,0,0,0-5.6,5.6h0A5.619,5.619,0,0,0,101.813,716.95Z" transform="translate(-94.566 -402.167)" fill="#968eab"/>
        <g id="Group_10" data-name="Group 10" transform="translate(32.284 62.398)">
          <g id="Group_7" data-name="Group 7" transform="translate(48.622 6.933)">
            <g id="Group_6" data-name="Group 6" transform="translate(0)">
              <path id="Path_2" data-name="Path 2" d="M652.776,304.442h0a7.043,7.043,0,0,0-.537-10.205l-.348-.3a7.7,7.7,0,0,0-10.591.517h0a7.042,7.042,0,0,0,.537,10.205l.348.3A7.7,7.7,0,0,0,652.776,304.442Z" transform="translate(-639.366 -292.07)" fill="#0e254a"/>
              <path id="Path_3" data-name="Path 3" d="M608.78,319.409l7.3,6.357,20.736-22.115-7.3-6.357a15.927,15.927,0,0,0-17.95-1.933,15.324,15.324,0,0,0-3.894,3,14.515,14.515,0,0,0,1.108,21.047Z" transform="translate(-601.266 -292.669)" fill="#f66438"/>
              <path id="Path_4" data-name="Path 4" d="M608.78,312.373l7.3,6.357,14.138-15.078-7.3-6.357a15.927,15.927,0,0,0-17.95-1.933,14.4,14.4,0,0,0-1.27,6.709A14.664,14.664,0,0,0,608.78,312.373Z" transform="translate(-594.668 -292.669)" fill="#ffac3d"/>
            </g>
            <path id="Path_5" data-name="Path 5" d="M603.126,333.194c2.2,1.967,8.714-1.319,14.541-7.354s8.774-12.523,6.567-14.5c-1.737-1.559-6.173.17-10.839,3.946a42.467,42.467,0,0,0-3.7,3.4,40.208,40.208,0,0,0-3.718,4.428C602.736,327.626,601.461,331.7,603.126,333.194Z" transform="translate(-588.687 -300.182)" fill="#323966"/>
            <path id="Path_6" data-name="Path 6" d="M618.806,326.583a5.684,5.684,0,0,0,6.883,1.123,5.235,5.235,0,0,0,2.092-7.269,5.308,5.308,0,0,0-1.562-1.686,42.466,42.466,0,0,0-3.7,3.4A40.219,40.219,0,0,0,618.806,326.583Z" transform="translate(-601.512 -303.643)" fill="#fff"/>
          </g>
          <path id="Path_7" data-name="Path 7" d="M678.369,373.846l-18.93-61.1,38.334-25.536,8.045,6.84" transform="translate(-653.217 -283.028)" fill="none" stroke="#0e254a" stroke-miterlimit="10" stroke-width="5.229"/>
          <g id="Group_8" data-name="Group 8" transform="translate(40.346)">
            <ellipse id="Ellipse_1" data-name="Ellipse 1" cx="4.713" cy="4.541" rx="4.713" ry="4.541" transform="translate(0)" fill="#0e254a"/>
            <path id="Path_8" data-name="Path 8" d="M668.6,286.108a2.358,2.358,0,1,0,2.357-2.271A2.315,2.315,0,0,0,668.6,286.108Z" transform="translate(-666.238 -281.567)" fill="#323966"/>
          </g>
          <path id="Path_9" data-name="Path 9" d="M655.443,446.459H704.21a9.689,9.689,0,0,0-9.689-9.689h-29.39a9.689,9.689,0,0,0-9.689,9.689Z" transform="translate(-649.347 -347.9)" fill="#ffac3d"/>
          <rect id="Rectangle_1" data-name="Rectangle 1" width="8.798" height="2.664" transform="translate(36.01 86.448)" fill="#0e254a"/>
          <g id="Group_9" data-name="Group 9" transform="translate(0 23.979)">
            <ellipse id="Ellipse_2" data-name="Ellipse 2" cx="6.599" cy="6.358" rx="6.599" ry="6.358" fill="#0e254a"/>
            <ellipse id="Ellipse_3" data-name="Ellipse 3" cx="3.299" cy="3.179" rx="3.299" ry="3.179" transform="translate(3.299 3.179)" fill="#323966"/>
          </g>
        </g>
        <g id="Group_18" data-name="Group 18" transform="translate(0 103.921)">
          <g id="Group_11" data-name="Group 11" transform="translate(7.257 27.384)">
            <path id="Rectangle_2" data-name="Rectangle 2" d="M6.046,0H48.152a0,0,0,0,1,0,0V15.474a0,0,0,0,1,0,0H6.046A6.046,6.046,0,0,1,0,9.428V6.046A6.046,6.046,0,0,1,6.046,0Z" transform="translate(0)" fill="#5e1f3f"/>
            <path id="Rectangle_3" data-name="Rectangle 3" d="M6.046,0H48.152a0,0,0,0,1,0,0V15.474a0,0,0,0,1,0,0H6.046A6.046,6.046,0,0,1,0,9.428V6.046A6.046,6.046,0,0,1,6.046,0Z" transform="translate(16.288)" fill="#5e1f3f"/>
            <path id="Rectangle_4" data-name="Rectangle 4" d="M5.179,0H45.448a0,0,0,0,1,0,0V11.805a0,0,0,0,1,0,0H5.179A5.179,5.179,0,0,1,0,6.626V5.179A5.179,5.179,0,0,1,5.179,0Z" transform="translate(18.992 1.543)" fill="#e8eaec"/>
            <rect id="Rectangle_5" data-name="Rectangle 5" width="10.18" height="1.12" transform="translate(2.749 6.108)" fill="#fff"/>
            <rect id="Rectangle_6" data-name="Rectangle 6" width="10.18" height="1.12" transform="translate(2.749 8.507)" fill="#fff"/>
          </g>
          <g id="Group_12" data-name="Group 12" transform="translate(0)">
            <path id="Rectangle_7" data-name="Rectangle 7" d="M6.046,0H48.153a0,0,0,0,1,0,0V15.474a0,0,0,0,1,0,0H6.046A6.046,6.046,0,0,1,0,9.428V6.046A6.046,6.046,0,0,1,6.046,0Z" transform="translate(0)" fill="#5e1f3f"/>
            <path id="Rectangle_8" data-name="Rectangle 8" d="M6.046,0H48.152a0,0,0,0,1,0,0V15.474a0,0,0,0,1,0,0H6.046A6.046,6.046,0,0,1,0,9.428V6.046A6.046,6.046,0,0,1,6.046,0Z" transform="translate(16.288)" fill="#5e1f3f"/>
            <path id="Rectangle_9" data-name="Rectangle 9" d="M5.179,0H46.015a0,0,0,0,1,0,0V12.371a0,0,0,0,1,0,0H5.179A5.179,5.179,0,0,1,0,7.192V5.179A5.179,5.179,0,0,1,5.179,0Z" transform="translate(18.426 1.543)" fill="#e8eaec"/>
            <rect id="Rectangle_10" data-name="Rectangle 10" width="12.453" height="5.497" transform="translate(1.689 4.887)" fill="#e8eaec"/>
            <rect id="Rectangle_11" data-name="Rectangle 11" width="10.18" height="1.12" transform="translate(2.749 6.108)" fill="#0e254a"/>
            <rect id="Rectangle_12" data-name="Rectangle 12" width="10.18" height="1.12" transform="translate(2.749 7.941)" fill="#0e254a"/>
          </g>
          <g id="Group_13" data-name="Group 13" transform="translate(3.999 42.043)">
            <path id="Rectangle_13" data-name="Rectangle 13" d="M6.046,0H48.152a0,0,0,0,1,0,0V15.474a0,0,0,0,1,0,0H6.046A6.046,6.046,0,0,1,0,9.428V6.046A6.046,6.046,0,0,1,6.046,0Z" transform="translate(0)" fill="#0e254a"/>
            <path id="Rectangle_14" data-name="Rectangle 14" d="M6.046,0H48.152a0,0,0,0,1,0,0V15.474a0,0,0,0,1,0,0H6.046A6.046,6.046,0,0,1,0,9.428V6.046A6.046,6.046,0,0,1,6.046,0Z" transform="translate(16.288)" fill="#0e254a"/>
            <path id="Rectangle_15" data-name="Rectangle 15" d="M5.179,0H45.448a0,0,0,0,1,0,0V11.239a0,0,0,0,1,0,0H5.179A5.179,5.179,0,0,1,0,6.06v-.88A5.179,5.179,0,0,1,5.179,0Z" transform="translate(18.993 2.109)" fill="#e8eaec"/>
            <rect id="Rectangle_16" data-name="Rectangle 16" width="12.453" height="5.497" transform="translate(1.688 4.886)" fill="#e8eaec"/>
            <rect id="Rectangle_17" data-name="Rectangle 17" width="10.18" height="1.12" transform="translate(2.749 6.108)" fill="#0e254a"/>
            <rect id="Rectangle_18" data-name="Rectangle 18" width="10.18" height="1.12" transform="translate(2.749 7.941)" fill="#0e254a"/>
          </g>
          <g id="Group_14" data-name="Group 14" transform="translate(3.83 15.362)">
            <path id="Path_10" data-name="Path 10" d="M758.6,380.287V392.32H707.2a6.016,6.016,0,1,1,0-12.033Z" transform="translate(-701.183 -380.287)" fill="#d04234"/>
            <path id="Path_11" data-name="Path 11" d="M739.907,380.287V392.32H696.651a6.016,6.016,0,1,1,0-12.033Z" transform="translate(-676.518 -380.287)" fill="#fa7c50"/>
            <path id="Path_12" data-name="Path 12" d="M736.125,383.93v7.715H694.492a3.857,3.857,0,1,1,0-7.715Z" transform="translate(-672.736 -381.867)" fill="#e8eaec"/>
          </g>
          <g id="Group_15" data-name="Group 15" transform="translate(19.919 3.358)">
            <line id="Line_1" data-name="Line 1" x1="44.526" fill="none" stroke="#968eab" stroke-miterlimit="10" stroke-width="1.438"/>
            <line id="Line_2" data-name="Line 2" x1="44.526" transform="translate(0 2.579)" fill="none" stroke="#968eab" stroke-miterlimit="10" stroke-width="1.438"/>
            <line id="Line_3" data-name="Line 3" x1="44.526" transform="translate(0 5.158)" fill="none" stroke="#968eab" stroke-miterlimit="10" stroke-width="1.438"/>
            <line id="Line_4" data-name="Line 4" x1="44.526" transform="translate(0 7.737)" fill="none" stroke="#968eab" stroke-miterlimit="10" stroke-width="1.438"/>
          </g>
          <g id="Group_16" data-name="Group 16" transform="translate(26.938 31.184)">
            <line id="Line_5" data-name="Line 5" x1="44.793" fill="none" stroke="#968eab" stroke-miterlimit="10" stroke-width="1.438"/>
            <line id="Line_6" data-name="Line 6" x1="44.793" transform="translate(0 2.579)" fill="none" stroke="#968eab" stroke-miterlimit="10" stroke-width="1.438"/>
            <line id="Line_7" data-name="Line 7" x1="44.793" transform="translate(0 5.158)" fill="none" stroke="#968eab" stroke-miterlimit="10" stroke-width="1.438"/>
            <line id="Line_8" data-name="Line 8" x1="44.793" transform="translate(0 7.737)" fill="none" stroke="#968eab" stroke-miterlimit="10" stroke-width="1.438"/>
          </g>
          <g id="Group_17" data-name="Group 17" transform="translate(23.545 45.98)">
            <line id="Line_9" data-name="Line 9" x1="44.793" fill="none" stroke="#968eab" stroke-miterlimit="10" stroke-width="1.438"/>
            <line id="Line_10" data-name="Line 10" x1="44.793" transform="translate(0 2.579)" fill="none" stroke="#968eab" stroke-miterlimit="10" stroke-width="1.438"/>
            <line id="Line_11" data-name="Line 11" x1="44.793" transform="translate(0 4.592)" fill="none" stroke="#968eab" stroke-miterlimit="10" stroke-width="1.438"/>
            <line id="Line_12" data-name="Line 12" x1="44.793" transform="translate(0 7.171)" fill="none" stroke="#968eab" stroke-miterlimit="10" stroke-width="1.438"/>
          </g>
        </g>
        <rect id="Rectangle_19" data-name="Rectangle 19" width="13.031" height="141.166" transform="translate(307.37 173.767)" fill="#122f51"/>
        <g id="Group_25" data-name="Group 25" transform="translate(178.171 110.738)">
          <path id="Path_13" data-name="Path 13" d="M307.766,469.321l77.777,5.837,21.582-109.539-52.241-.183a30.888,30.888,0,0,0-30.328,24.5Z" transform="translate(-301.273 -365.299)" fill="#65354d"/>
          <path id="Path_14" data-name="Path 14" d="M310.573,469.929l12.937-95.852a7.857,7.857,0,0,0-6.716-8.812h0a7.858,7.858,0,0,0-8.812,6.716l-12.937,95.852a7.857,7.857,0,0,0,6.716,8.812h0A7.858,7.858,0,0,0,310.573,469.929Z" transform="translate(-210.486 -365.195)" fill="#d04234"/>
          <g id="Group_24" data-name="Group 24" transform="translate(0 96.96)">
            <g id="Group_19" data-name="Group 19" transform="translate(46.668 20.904)">
              <rect id="Rectangle_20" data-name="Rectangle 20" width="9.113" height="53.752" transform="translate(0)" fill="#4e567a"/>
              <path id="Path_15" data-name="Path 15" d="M396.189,578.866v12.147l9.113-3.526v-8.224C403.022,579.155,398.632,578.973,396.189,578.866Z" transform="translate(-396.189 -575.737)" fill="#0e254a"/>
            </g>
            <path id="Path_16" data-name="Path 16" d="M366.491,574.778h40.721a4.084,4.084,0,0,0,4.072-4.072h0a4.084,4.084,0,0,0-4.072-4.072H366.491a4.084,4.084,0,0,0-4.072,4.072h0A4.084,4.084,0,0,0,366.491,574.778Z" transform="translate(-336.38 -549.528)" fill="#283154"/>
            <path id="Path_17" data-name="Path 17" d="M386.264,556.789h46.8a10.212,10.212,0,0,0,10.182-10.182h0a10.212,10.212,0,0,0-10.182-10.182h-46.8a10.212,10.212,0,0,0-10.182,10.182h0A10.212,10.212,0,0,0,386.264,556.789Z" transform="translate(-376.082 -536.425)" fill="#65354d"/>
            <rect id="Rectangle_21" data-name="Rectangle 21" width="57.801" height="20.364" rx="10.182" transform="translate(41.128 0.271)" fill="#d04234"/>
            <g id="Group_21" data-name="Group 21" transform="translate(12.602 65.971)">
              <g id="Group_20" data-name="Group 20" transform="translate(0 8.552)">
                <path id="Path_18" data-name="Path 18" d="M335.332,686.083h5.7a12.366,12.366,0,0,1,12.352-12.352H394.92a12.366,12.366,0,0,1,12.352,12.352h5.7A18.073,18.073,0,0,0,394.92,668.03H353.384A18.073,18.073,0,0,0,335.332,686.083Z" transform="translate(-335.332 -668.03)" fill="#0e254a"/>
              </g>
              <rect id="Rectangle_22" data-name="Rectangle 22" width="13.302" height="8.687" transform="translate(32.034)" fill="#0e254a"/>
            </g>
            <g id="Group_22" data-name="Group 22" transform="translate(8.355 90)">
              <ellipse id="Ellipse_4" data-name="Ellipse 4" cx="4.736" cy="4.735" rx="4.736" ry="4.735" transform="translate(75.733 13.785) rotate(-103.282)" fill="#0e254a"/>
              <path id="Rectangle_23" data-name="Rectangle 23" d="M6.48,0h0a6.48,6.48,0,0,1,6.48,6.48V7.67a0,0,0,0,1,0,0H0a0,0,0,0,1,0,0V6.48A6.48,6.48,0,0,1,6.48,0Z" transform="translate(72.425)" fill="#323966"/>
              <ellipse id="Ellipse_5" data-name="Ellipse 5" cx="4.736" cy="4.735" rx="4.736" ry="4.735" transform="translate(3.308 13.785) rotate(-103.282)" fill="#0e254a"/>
              <path id="Rectangle_24" data-name="Rectangle 24" d="M6.48,0h0a6.48,6.48,0,0,1,6.48,6.48V7.67a0,0,0,0,1,0,0H0a0,0,0,0,1,0,0V6.48A6.48,6.48,0,0,1,6.48,0Z" transform="translate(0)" fill="#323966"/>
            </g>
            <rect id="Rectangle_25" data-name="Rectangle 25" width="7.546" height="17.103" transform="translate(47.245 76.287)" fill="#0e254a"/>
            <g id="Group_23" data-name="Group 23" transform="translate(44.03 90)">
              <ellipse id="Ellipse_6" data-name="Ellipse 6" cx="4.736" cy="4.735" rx="4.736" ry="4.735" transform="translate(3.308 13.785) rotate(-103.282)" fill="#0e254a"/>
              <path id="Rectangle_26" data-name="Rectangle 26" d="M6.48,0h0a6.48,6.48,0,0,1,6.48,6.48V7.67a0,0,0,0,1,0,0H0a0,0,0,0,1,0,0V6.48A6.48,6.48,0,0,1,6.48,0Z" transform="translate(0)" fill="#323966"/>
            </g>
          </g>
        </g>
        <g id="Group_51" data-name="Group 51" transform="translate(60.823)">
          <g id="Group_28" data-name="Group 28" transform="translate(56.074 137.436)">
            <g id="Group_27" data-name="Group 27" transform="translate(0)">
              <g id="Group_26" data-name="Group 26">
                <path id="Path_19" data-name="Path 19" d="M587.194,415.843l-12.918,3.7a1.79,1.79,0,0,1-2.207-1.224h0a1.789,1.789,0,0,1,1.223-2.207l12.917-3.7a1.79,1.79,0,0,1,2.207,1.223h0A1.79,1.79,0,0,1,587.194,415.843Z" transform="translate(-570.985 -412.343)" fill="#ffa280"/>
                <path id="Path_20" data-name="Path 20" d="M590.938,423.4l-10.372,2.973a1.789,1.789,0,0,1-2.207-1.223h0a1.789,1.789,0,0,1,1.223-2.207l10.372-2.974a1.79,1.79,0,0,1,2.207,1.224h0A1.789,1.789,0,0,1,590.938,423.4Z" transform="translate(-578.29 -415.621)" fill="#ffa280"/>
                <path id="Path_21" data-name="Path 21" d="M587.637,427.653l-12.277,3.519a1.789,1.789,0,0,1-2.207-1.224h0a1.789,1.789,0,0,1,1.224-2.207l12.276-3.519a1.789,1.789,0,0,1,2.207,1.224h0A1.789,1.789,0,0,1,587.637,427.653Z" transform="translate(-572.042 -417.466)" fill="#ffa280"/>
                <path id="Path_22" data-name="Path 22" d="M570.061,429.233l-13.179,2.626a1.79,1.79,0,0,1-2.1-1.4h0a1.79,1.79,0,0,1,1.4-2.1l13.179-2.626a1.789,1.789,0,0,1,2.1,1.4h0A1.79,1.79,0,0,1,570.061,429.233Z" transform="translate(-544.226 -418.136)" fill="#ffa280"/>
              </g>
              <path id="Path_23" data-name="Path 23" d="M558.761,421.514c.136-.045,1.6-.755,3.186-1.529a19.2,19.2,0,0,1,8.8-1.943l5.832.113s1.12,9.671.712,9.569-12.827,2.138-12.827,2.138Z" transform="translate(-552.38 -414.813)" fill="#ffa280"/>
            </g>
            <rect id="Rectangle_27" data-name="Rectangle 27" width="5.565" height="14.911" transform="translate(22.16 2.389)" fill="#e8eaec"/>
          </g>
          <g id="Group_29" data-name="Group 29" transform="translate(74.633 286.659)">
            <path id="Path_24" data-name="Path 24" d="M540.637,689.522l-33.9-1.273a3.663,3.663,0,0,1-3.522-3.8h0a3.663,3.663,0,0,1,2.584-3.363l16.991-5.22L541.108,677Z" transform="translate(-503.216 -675.868)" fill="#968eab"/>
            <path id="Path_25" data-name="Path 25" d="M506.743,697.381l34.3,1.544.111-2.459L504.4,694.812h0A2.461,2.461,0,0,0,506.743,697.381Z" transform="translate(-503.933 -684.085)" fill="#0e254a"/>
          </g>
          <g id="Group_30" data-name="Group 30" transform="translate(84.303 287.201)">
            <line id="Line_13" data-name="Line 13" x1="3.788" y1="4.432" transform="translate(6.311)" fill="none" stroke="#0e254a" stroke-linecap="round" stroke-miterlimit="10" stroke-width="1.438"/>
            <line id="Line_14" data-name="Line 14" x1="3.788" y1="4.432" transform="translate(3.341 1.098)" fill="none" stroke="#0e254a" stroke-linecap="round" stroke-miterlimit="10" stroke-width="1.438"/>
            <line id="Line_15" data-name="Line 15" x1="4.263" y1="5.024" transform="translate(0 2.027)" fill="none" stroke="#0e254a" stroke-linecap="round" stroke-miterlimit="10" stroke-width="1.438"/>
          </g>
          <g id="Group_33" data-name="Group 33" transform="translate(91.797 178.505)">
            <g id="Group_32" data-name="Group 32" transform="translate(0)" clip-path="url(#clip-path)">
              <g id="Group_31" data-name="Group 31">
                <path id="Path_26" data-name="Path 26" d="M460.6,594.661c-1.968-33.086-1.437-63.675,1.14-69.87,2.643-3.847,18.517-13.309,34.149-20.323l-8.786-19.6c-10.972,4.917-37.22,17.6-43.973,29.188-2.851,4.889-5.586,14.436-4.25,48.173.7,17.67,1.562,31.513,1.562,31.513Z" transform="translate(-438.529 -484.871)" fill="#0e254a"/>
              </g>
              <path id="Path_27" data-name="Path 27" d="M463.421,498.332s-39.906,14.388-44.522,25.79-2.986,75.2-2.986,75.2l13.3.543,44.25-103.7Z" transform="translate(-403.143 -489.767)" fill="#0e254a"/>
            </g>
          </g>
          <path id="Path_29" data-name="Path 29" d="M509.659,334.365,492.587,378a18.2,18.2,0,0,1-16.7,10.564l-29.363-.291" transform="translate(-365.031 -241.085)" fill="none" stroke="#0c203a" stroke-miterlimit="10" stroke-width="31.641"/>
          <rect id="Rectangle_28" data-name="Rectangle 28" width="17.584" height="32.591" rx="8.792" transform="translate(153.568 47.885)" fill="#ffa280"/>
          <path id="Path_30" data-name="Path 30" d="M377.618,200.572q.045.643.117,1.284a28.9,28.9,0,0,0,18.115,23.586,28.755,28.755,0,0,0,12.622,1.934c7.205-.506,13.432,2.3,18.17-2.428a28.635,28.635,0,0,0,4.032-5.019c.451-.717.874-1.441,1.261-2.189,2.36-4.56,3.727-15.726,3.341-21.217a28.914,28.914,0,0,0-29.541-26.878q-.657.02-1.313.066a28.856,28.856,0,0,0-22.659,13.8l-.009.01a28.859,28.859,0,0,0-4.135,17.056Z" transform="translate(-251.652 -169.635)" fill="#613241"/>
          <g id="Group_34" data-name="Group 34" transform="translate(128.295 9.957)">
            <path id="Path_31" data-name="Path 31" d="M393.837,230.061a4.667,4.667,0,0,0,.416,1.71,5.362,5.362,0,0,0,1.221,1.784,5.02,5.02,0,0,0,3.575,1.368l2.94-.155,2.256-.114-.334-6.694H403.9l-.057-1.238-.049-.961-.049-.879-.008-.228h-.008l-5.188.268a4.952,4.952,0,0,0-4.463,3.4A4.459,4.459,0,0,0,393.837,230.061Z" transform="translate(-358.075 -203.455)" fill="#ffc7be"/>
            <path id="Path_32" data-name="Path 32" d="M393.6,210.982l.554,10.823.082,1.621a22.178,22.178,0,0,0,.383,3.144,22.733,22.733,0,0,0,19.522,18.1,8.263,8.263,0,0,0,.887.089,21.593,21.593,0,0,0,3.168.065,23.18,23.18,0,0,0,8.608-2.158.025.025,0,0,0,.016-.008,22.727,22.727,0,0,0,13.047-19.725c.008-.26.016-.513.008-.774a8.639,8.639,0,0,0-.016-.92v-.163l-.032-.733-.106-1.93-.326-6.629-.009-.065v-.008l-.065-1.23-.049-.961-.049-.879-.016-.228a18.256,18.256,0,0,0-.847-4.43,24.609,24.609,0,0,0-1.091-2.891c-.057-.155-.114-.285-.18-.424a20.827,20.827,0,0,0-1.173-2.24.03.03,0,0,0-.008-.016,22.836,22.836,0,0,0-6.45-6.939c-.522-.366-1.059-.716-1.6-1.042A23.176,23.176,0,0,0,399,194.717a21.942,21.942,0,0,0-4.5,8,16.7,16.7,0,0,0-.782,3.51A27.086,27.086,0,0,0,393.6,210.982Z" transform="translate(-393.545 -187.218)" fill="#ffc7ac"/>
            <path id="Path_33" data-name="Path 33" d="M384.613,230.573l.342,6.719.236,4.536,1.784-.089a2.976,2.976,0,0,0,.383-.041,5.859,5.859,0,0,0,5.066-6.051,5.388,5.388,0,0,0-1.882-3.811,5.533,5.533,0,0,0-3.665-1.352h-.008a2.2,2.2,0,0,0-.464,0Z" transform="translate(-341.04 -205.979)" fill="#ffc7be"/>
          </g>
          <path id="Path_34" data-name="Path 34" d="M460.039,241.131h0a1.021,1.021,0,0,0,1.018-1.018v-3.258a1.021,1.021,0,0,0-1.018-1.018h0a1.021,1.021,0,0,0-1.018,1.018v3.258A1.021,1.021,0,0,0,460.039,241.131Z" transform="translate(-323.507 -198.35)" fill="#0e254a"/>
          <path id="Path_35" data-name="Path 35" d="M433.671,241.131h0a1.021,1.021,0,0,0,1.018-1.018v-3.258a1.021,1.021,0,0,0-1.018-1.018h0a1.021,1.021,0,0,0-1.018,1.018v3.258A1.021,1.021,0,0,0,433.671,241.131Z" transform="translate(-282.207 -198.35)" fill="#0e254a"/>
          <path id="Path_36" data-name="Path 36" d="M384.613,256.654a15.147,15.147,0,0,0,7.981-2.076.025.025,0,0,0,.016-.009,22.726,22.726,0,0,0,13.047-19.725,5.859,5.859,0,0,0,5.066-6.051,5.388,5.388,0,0,0-1.882-3.811,5.533,5.533,0,0,0-3.665-1.352v-.008l-.065-1.23-.049-.961-.049-.879-.008-.228H405a18.256,18.256,0,0,0-.847-4.43c-3.079-1.719-6.214-2.044-8,1.808,0,0,.18,1.743.334,4.4.122,1.987.236,4.48.253,7.126.049,5.441-.277,11.524-1.678,15.213C392.081,252.313,384.613,256.654,384.613,256.654Z" transform="translate(-231.045 -189.168)" fill="#ffa280"/>
          <path id="Path_37" data-name="Path 37" d="M408.666,194.763H445.38a4.4,4.4,0,0,0,4.383-4.383h0A4.4,4.4,0,0,0,445.38,186H408.666a4.4,4.4,0,0,0-4.383,4.383h0A4.4,4.4,0,0,0,408.666,194.763Z" transform="translate(-281.217 -176.731)" fill="#613241"/>
          <path id="Path_38" data-name="Path 38" d="M392,204.129a5.781,5.781,0,0,0,5.672,6.809h33.477a8.693,8.693,0,0,1,8.694,8.693v5.412a3.276,3.276,0,0,0,3.266,3.266h.773a3.266,3.266,0,0,0,3.266-3.266v-16.3a2.793,2.793,0,0,0-.024-.375,5.685,5.685,0,0,0,.977-3.192,5.784,5.784,0,0,0-5.766-5.774H397.906A5.941,5.941,0,0,0,392,204.129Z" transform="translate(-272.541 -182.544)" fill="#613241"/>
          <g id="Group_36" data-name="Group 36" transform="translate(128.999 31.923)">
            <path id="Path_39" data-name="Path 39" d="M457.195,228.589h7.194a1.293,1.293,0,0,0,1.289-1.289h0a1.293,1.293,0,0,0-1.289-1.289h-7.194a1.294,1.294,0,0,0-1.29,1.289h0A1.293,1.293,0,0,0,457.195,228.589Z" transform="translate(-455.362 -226.01)" fill="#65354d"/>
            <path id="Path_40" data-name="Path 40" d="M426.271,228.589h7.194a1.293,1.293,0,0,0,1.29-1.289h0a1.294,1.294,0,0,0-1.29-1.289h-7.194a1.293,1.293,0,0,0-1.289,1.289h0A1.293,1.293,0,0,0,426.271,228.589Z" transform="translate(-406.929 -226.01)" fill="#65354d"/>
            <g id="Group_35" data-name="Group 35" transform="translate(0 5.158)" opacity="0.49">
              <path id="Path_41" data-name="Path 41" d="M441.5,235.119l-3.393,6.651-2.579-.271,3.529-6.38Z" transform="translate(-419.648 -235.119)" fill="#fff"/>
              <path id="Path_42" data-name="Path 42" d="M469.548,235.119l-3.393,6.651-2.579-.271,3.529-6.38Z" transform="translate(-463.575 -235.119)" fill="#fff"/>
            </g>
            <rect id="Rectangle_29" data-name="Rectangle 29" width="10.767" height="7.33" rx="2.741" transform="translate(0.174 4.853)" fill="none" stroke="#0e254a" stroke-miterlimit="10" stroke-width="1.297"/>
            <rect id="Rectangle_30" data-name="Rectangle 30" width="11.641" height="7.33" rx="2.85" transform="translate(15.085 4.853)" fill="none" stroke="#0e254a" stroke-miterlimit="10" stroke-width="1.349"/>
            <path id="Path_43" data-name="Path 43" d="M438.362,262.978a6.628,6.628,0,0,0,5.128,1.871,6.84,6.84,0,0,0,4.339-1.761" transform="translate(-427.579 -242.045)" fill="none" stroke="#fa7c50" stroke-miterlimit="10" stroke-width="1.438"/>
            <path id="Path_44" data-name="Path 44" d="M449.013,247.15c0,.035.139,0,.139,0,.034,1.157,1.036,2.075,3.518,2l.292-9.116C450.315,243.393,449.195,245.258,449.013,247.15Z" transform="translate(-438.743 -232.092)" fill="#ffa280"/>
            <line id="Line_16" data-name="Line 16" x1="4.344" y2="0.136" transform="translate(10.587 8.551)" fill="none" stroke="#0e254a" stroke-miterlimit="10" stroke-width="1.349"/>
          </g>
          <path id="Path_45" data-name="Path 45" d="M355.055,329.32v82.289l59.817,6.54,2.942-88.828a26.869,26.869,0,0,0-22.176-26.444,27.493,27.493,0,0,0-4.667-.4H381.9A26.847,26.847,0,0,0,355.055,329.32Z" transform="translate(-221.392 -227.253)" fill="#0e254a"/>
          <path id="Path_46" data-name="Path 46" d="M357.946,501.333a15.321,15.321,0,0,0,15.319,15.311h25.744a14.572,14.572,0,0,0,2.248-.171,14.949,14.949,0,0,0,5.261-1.8c.285-.155.562-.326.831-.505a15.294,15.294,0,0,0,6.971-12.835l-.472-8.169-55.454-.48Z" transform="translate(-219.535 -309.754)" fill="#0e254a"/>
          <g id="Group_37" data-name="Group 37" transform="translate(149.903 73.594)">
            <rect id="Rectangle_31" data-name="Rectangle 31" width="20.692" height="96.491" transform="translate(0)" fill="#e8eaec"/>
          </g>
          <path id="Path_47" data-name="Path 47" d="M415.539,312.84l6.035-8.593-5.559-3.326-6.51,3.326Z" transform="translate(-255.983 -226.579)" fill="#0e254a"/>
          <path id="Path_48" data-name="Path 48" d="M418.294,405.036l6.739-9.1-2.706-81.116-4.184.4-6.118,80.383Z" transform="translate(-260.872 -232.61)" fill="#0e254a"/>
          <path id="Path_49" data-name="Path 49" d="M399.25,307.373l9.706-6.645,11.343,6.645.8-8.178H399.25Z" transform="translate(-249.705 -225.83)" fill="#fff"/>
          <g id="Group_38" data-name="Group 38" transform="translate(117.721 282.764)">
            <path id="Path_50" data-name="Path 50" d="M465.945,680.7l-31.719,12.02A3.663,3.663,0,0,1,429.5,690.6h0a3.661,3.661,0,0,1,1.071-4.1l13.619-11.421,17.312-6.082Z" transform="translate(-429.265 -668.99)" fill="#968eab"/>
            <path id="Path_51" data-name="Path 51" d="M432.112,701.98l32.2-11.929-.855-2.308-34.507,12.784h0A2.461,2.461,0,0,0,432.112,701.98Z" transform="translate(-427.453 -677.124)" fill="#0e254a"/>
          </g>
          <g id="Group_39" data-name="Group 39" transform="translate(128.146 190.997)">
            <path id="Path_52" data-name="Path 52" d="M370.254,570.68c.448,17.518,2,33.537,2.06,34.205l11.369-1.108,10-.969c-2.9-29.865-2.769-59.909.253-66.318,3.5-3.3,17.111-9.309,29.767-13.837,1.783-.635,3.55-1.238,5.261-1.8.3-.106.6-.2.9-.3l-.073-.2S419.3,501.918,397.2,508.26c-4.659,1.336-8.483,5.761-13.3,9a33.97,33.97,0,0,0-6.165,5.09C373.324,527.206,369.366,536.416,370.254,570.68Z" transform="translate(-370.128 -506.932)" fill="#122f51"/>
          </g>
          <g id="Group_40" data-name="Group 40" transform="translate(125.674 289.822)">
            <line id="Line_17" data-name="Line 17" x1="5.294" y1="2.443" transform="translate(4.886)" fill="none" stroke="#0e254a" stroke-linecap="round" stroke-miterlimit="10" stroke-width="1.438"/>
            <line id="Line_18" data-name="Line 18" x1="5.294" y1="2.443" transform="translate(2.647 2.24)" fill="none" stroke="#0e254a" stroke-linecap="round" stroke-miterlimit="10" stroke-width="1.438"/>
            <line id="Line_19" data-name="Line 19" x1="5.972" y1="2.783" transform="translate(0 4.479)" fill="none" stroke="#0e254a" stroke-linecap="round" stroke-miterlimit="10" stroke-width="1.438"/>
          </g>
          <path id="Path_53" data-name="Path 53" d="M355.055,339.977l23.17-9.5v-.855a26.869,26.869,0,0,0-22.176-26.444c-.057.049-.122.1-.18.147Z" transform="translate(-181.803 -227.559)" fill="#122f51"/>
          <path id="Path_54" data-name="Path 54" d="M359.632,597.965l10-.969c-2.9-29.865-2.769-59.909.253-66.318,3.5-3.3,17.111-9.309,29.767-13.837a14.948,14.948,0,0,0,5.261-1.8c.3-.106.6-.2.9-.3l-.073-.2a15.294,15.294,0,0,0,6.971-12.835l-.472-8.169-8.844,1.214c.211.635,1.409,6.873-.774,10.62a5.307,5.307,0,0,1-2.761,2.411c-3.462,1.319-16.631,4.544-27.112,9.235-6.776,3.038-12.436,6.695-13.608,10.856C356.391,537.641,359.184,589.976,359.632,597.965Z" transform="translate(-217.931 -310.122)" fill="#0e254a"/>
          <g id="Group_45" data-name="Group 45" transform="translate(0 108.139)">
            <g id="Group_44" data-name="Group 44">
              <path id="Path_55" data-name="Path 55" d="M577.846,412.728h53.318a4.762,4.762,0,0,0,4.312-6.784l-18.6-39.671a9.848,9.848,0,0,0-8.917-5.668H558.876a3.473,3.473,0,0,0-3.145,4.947Z" transform="translate(-552.957 -360.605)" fill="#afaac4"/>
              <g id="Group_43" data-name="Group 43" transform="translate(75.218 46.676)">
                <g id="Group_41" data-name="Group 41" transform="translate(0)">
                  <path id="Path_56" data-name="Path 56" d="M494.892,448.616H532.91a2.8,2.8,0,0,0,2.792-2.792h0a2.8,2.8,0,0,0-2.792-2.792H494.892a2.8,2.8,0,0,0-2.792,2.792h0A2.8,2.8,0,0,0,494.892,448.616Z" transform="translate(-492.1 -443.033)" fill="#afaac4"/>
                </g>
                <g id="Group_42" data-name="Group 42" transform="translate(16.454 1.85)">
                  <rect id="Rectangle_32" data-name="Rectangle 32" width="5.429" height="1.629" transform="translate(0)" fill="#0e254a"/>
                  <rect id="Rectangle_33" data-name="Rectangle 33" width="3.936" height="1.629" transform="translate(7.058)" fill="#0e254a"/>
                </g>
              </g>
              <path id="Path_57" data-name="Path 57" d="M583.242,412.728h53.443A2.62,2.62,0,0,0,639.057,409L619.03,366.273a9.848,9.848,0,0,0-8.917-5.668H561.026a3.473,3.473,0,0,0-3.144,4.947l20.736,44.237A5.107,5.107,0,0,0,583.242,412.728Z" transform="translate(-557.55 -360.605)" fill="#827c91"/>
            </g>
            <path id="Path_58" data-name="Path 58" d="M624.766,406.8c1.267,2.964,3.635,4.794,5.289,4.087s1.968-3.683.7-6.647-3.635-4.793-5.289-4.087S623.5,403.834,624.766,406.8Z" transform="translate(-587.398 -377.692)" fill="#fff"/>
          </g>
          <g id="Group_48" data-name="Group 48" transform="translate(104.343 142.283)">
            <g id="Group_47" data-name="Group 47">
              <g id="Group_46" data-name="Group 46" transform="translate(0)">
                <path id="Path_59" data-name="Path 59" d="M499.857,426.569l-13.269-2.121a1.79,1.79,0,0,1-1.48-2.044h0a1.789,1.789,0,0,1,2.044-1.48l13.269,2.121a1.79,1.79,0,0,1,1.48,2.044h0A1.789,1.789,0,0,1,499.857,426.569Z" transform="translate(-483.475 -420.902)" fill="#ffa280"/>
                <path id="Path_60" data-name="Path 60" d="M504.7,433.225l-10.654-1.7a1.79,1.79,0,0,1-1.481-2.044h0a1.789,1.789,0,0,1,2.044-1.48l10.655,1.7a1.79,1.79,0,0,1,1.48,2.044h0A1.79,1.79,0,0,1,504.7,433.225Z" transform="translate(-492.547 -423.971)" fill="#ffa280"/>
                <path id="Path_61" data-name="Path 61" d="M502.31,441.2,489.7,439.187a1.79,1.79,0,0,1-1.48-2.044h0a1.789,1.789,0,0,1,2.044-1.48l12.611,2.015a1.79,1.79,0,0,1,1.48,2.044h0A1.789,1.789,0,0,1,502.31,441.2Z" transform="translate(-487.689 -427.295)" fill="#ffa280"/>
              </g>
              <path id="Path_62" data-name="Path 62" d="M467.838,424.822c.142.017,1.77-.005,3.533-.035a19.2,19.2,0,0,1,8.793,1.969l5.234,2.574s-3,8.895-3.411,8.97c-10.091,1.824-13.552-2.757-13.552-2.757Z" transform="translate(-457.184 -422.587)" fill="#ffa280"/>
            </g>
            <rect id="Rectangle_34" data-name="Rectangle 34" width="4.479" height="14.558" transform="translate(18.467 2.201)" fill="#e8eaec"/>
          </g>
          <g id="Group_49" data-name="Group 49" transform="translate(127.01 96.596)">
            <path id="Path_63" data-name="Path 63" d="M386.6,404.246a27.2,27.2,0,0,0,24.653-15.765l.219-.474L425.3,345.8l-17.027-5.576L394.8,381.355a9.258,9.258,0,0,1-8.288,4.973l-29.363-.291-.177,17.916,29.363.291Z" transform="translate(-356.972 -340.221)" fill="#122f51"/>
          </g>
          <g id="Group_50" data-name="Group 50" transform="translate(151.464 178.382)">
            <rect id="Rectangle_35" data-name="Rectangle 35" width="14.931" height="5.142" transform="translate(0)" fill="#968eab"/>
          </g>
        </g>
        <rect id="Rectangle_36" data-name="Rectangle 36" width="13.031" height="141.166" transform="translate(243.845 173.767)" fill="#827c91"/>
        <rect id="Rectangle_37" data-name="Rectangle 37" width="13.03" height="141.168" transform="translate(77.16 173.765)" fill="#827c91"/>
        <rect id="Rectangle_38" data-name="Rectangle 38" width="13.03" height="141.168" transform="translate(13.637 173.765)" fill="#827c91"/>
        <path id="Path_64" data-name="Path 64" d="M663.1,476.5H650.07v46.563l13.03,6.467Z" transform="translate(-572.91 -302.735)" fill="#323966"/>
        <path id="Path_65" data-name="Path 65" d="M762.25,476.5v15.04l13.03,6.467V476.5Z" transform="translate(-748.613 -302.735)" fill="#323966"/>
        <path id="Path_66" data-name="Path 66" d="M355.6,476.009v15.234l13.2,6.55V476.009Z" transform="translate(-111.867 -302.522)" fill="#323966"/>
        <g id="Group_52" data-name="Group 52" transform="translate(40.141 160.379)">
          <path id="Rectangle_39" data-name="Rectangle 39" d="M10.136,0H282.361A10.136,10.136,0,0,1,292.5,10.136V17.6a0,0,0,0,1,0,0H0a0,0,0,0,1,0,0V10.136A10.136,10.136,0,0,1,10.136,0Z" transform="translate(0 0)" fill="#323966"/>
        </g>
        <g id="Group_54" data-name="Group 54" transform="translate(225.789 147.185)">
          <rect id="Rectangle_40" data-name="Rectangle 40" width="63.88" height="13.591" transform="translate(0.169 0.154)" fill="#c4c4c9"/>
          <rect id="Rectangle_41" data-name="Rectangle 41" width="29.542" height="13.9" transform="translate(0)" fill="#e8eaec"/>
          <g id="Group_53" data-name="Group 53" transform="translate(0.056 2.656)">
            <line id="Line_20" data-name="Line 20" x1="63.937" fill="none" stroke="#968eab" stroke-miterlimit="10" stroke-width="1.769"/>
            <line id="Line_21" data-name="Line 21" x1="63.937" transform="translate(0 2.734)" fill="none" stroke="#968eab" stroke-miterlimit="10" stroke-width="1.769"/>
            <line id="Line_22" data-name="Line 22" x1="63.937" transform="translate(0 5.467)" fill="none" stroke="#968eab" stroke-miterlimit="10" stroke-width="1.769"/>
            <line id="Line_23" data-name="Line 23" x1="63.937" transform="translate(0 8.201)" fill="none" stroke="#968eab" stroke-miterlimit="10" stroke-width="1.769"/>
          </g>
        </g>
        <g id="Group_57" data-name="Group 57" transform="translate(266.958 200.007)">
          <rect id="Rectangle_42" data-name="Rectangle 42" width="89.69" height="114.906" transform="translate(38.994)" fill="#65354d"/>
          <rect id="Rectangle_43" data-name="Rectangle 43" width="95.353" height="114.906" transform="translate(0)" fill="#65354d"/>
          <g id="Group_55" data-name="Group 55" transform="translate(5.64 8.416)">
            <rect id="Rectangle_44" data-name="Rectangle 44" width="83.614" height="30.405" fill="#fa7c50"/>
            <rect id="Rectangle_45" data-name="Rectangle 45" width="83.614" height="30.405" transform="translate(0 35.679)" fill="#fa7c50"/>
            <rect id="Rectangle_46" data-name="Rectangle 46" width="83.614" height="30.405" transform="translate(0 71.357)" fill="#fa7c50"/>
          </g>
          <g id="Group_56" data-name="Group 56" transform="translate(30.367 21.989)">
            <path id="Path_67" data-name="Path 67" d="M241.8,564.933h20.9a1.634,1.634,0,0,0,1.629-1.629h0a1.634,1.634,0,0,0-1.629-1.629H241.8a1.633,1.633,0,0,0-1.629,1.629h0A1.634,1.634,0,0,0,241.8,564.933Z" transform="translate(-239.354 -561.675)" fill="#fff"/>
            <path id="Path_68" data-name="Path 68" d="M243.235,627.5h20.9a1.634,1.634,0,0,0,1.629-1.629h0a1.634,1.634,0,0,0-1.629-1.629h-20.9a1.634,1.634,0,0,0-1.629,1.629h0A1.633,1.633,0,0,0,243.235,627.5Z" transform="translate(-241.606 -588.811)" fill="#fff"/>
            <path id="Path_69" data-name="Path 69" d="M243.235,690.06h20.9a1.634,1.634,0,0,0,1.629-1.629h0a1.634,1.634,0,0,0-1.629-1.629h-20.9a1.633,1.633,0,0,0-1.629,1.629h0A1.633,1.633,0,0,0,243.235,690.06Z" transform="translate(-241.606 -615.948)" fill="#fff"/>
          </g>
        </g>
        <g id="Group_60" data-name="Group 60" transform="translate(191.315 139.969)">
          <g id="Group_59" data-name="Group 59" transform="translate(0)">
            <path id="Path_70" data-name="Path 70" d="M442,418.413V438.4h16.7V418.413a1.6,1.6,0,0,0-1.6-1.6H443.6A1.6,1.6,0,0,0,442,418.413Z" transform="translate(-442.002 -416.817)" fill="#ffac3d"/>
            <g id="Group_58" data-name="Group 58" transform="translate(15.273 4.066)">
              <path id="Path_71" data-name="Path 71" d="M433.294,438.093c.218-.125,5.343-3.127,5.8-8.385a4.82,4.82,0,0,0-1.251-3.936c-1.834-1.895-4.883-1.785-5.224-1.767l.133,2.439a4.958,4.958,0,0,1,3.34,1.032,2.45,2.45,0,0,1,.568,2.02c-.348,4-4.541,6.454-4.583,6.478Z" transform="translate(-432.077 -423.998)" fill="#f66438"/>
            </g>
            <path id="Path_72" data-name="Path 72" d="M453.454,434.688h4.784a3,3,0,0,0,3-3h0a3,3,0,0,0-3-3h-4.784a3,3,0,0,0-3,3h0A3,3,0,0,0,453.454,434.688Z" transform="translate(-449.331 -421.963)" fill="#d04234"/>
          </g>
          <path id="Path_73" data-name="Path 73" d="M442,438.4H450.9V418.413a1.6,1.6,0,0,0-1.6-1.6h-.538c-.024,1.042-.309,9.015-2.549,14.757C444.266,436.574,442.531,438.048,442,438.4Z" transform="translate(-434.199 -416.817)" fill="#f66438"/>
        </g>
        <g id="Group_61" data-name="Group 61" transform="translate(23.545 149.901)">
          <line id="Line_24" data-name="Line 24" x1="44.793" fill="none" stroke="#968eab" stroke-miterlimit="10" stroke-width="1.438"/>
          <line id="Line_25" data-name="Line 25" x1="44.793" transform="translate(0 2.579)" fill="none" stroke="#968eab" stroke-miterlimit="10" stroke-width="1.438"/>
          <line id="Line_26" data-name="Line 26" x1="44.793" transform="translate(0 4.592)" fill="none" stroke="#968eab" stroke-miterlimit="10" stroke-width="1.438"/>
          <line id="Line_27" data-name="Line 27" x1="44.793" transform="translate(0 7.171)" fill="none" stroke="#968eab" stroke-miterlimit="10" stroke-width="1.438"/>
        </g>
        <g id="Group_70" data-name="Group 70" transform="translate(240.316 124.495)">
          <g id="Group_67" data-name="Group 67" transform="translate(0 0)">
            <g id="Group_62" data-name="Group 62">
              <path id="Path_74" data-name="Path 74" d="M368.628,412.565,357.9,389.49l-10.587,22.8Z" transform="translate(-347.317 -389.49)" fill="#fff"/>
              <rect id="Rectangle_47" data-name="Rectangle 47" width="19.275" height="22.261" transform="translate(10.587 0.136)" fill="#fff"/>
              <path id="Path_75" data-name="Path 75" d="M335.078,412.773l-9.773-22.8-10.587,22.8Z" transform="translate(-295.307 -389.698)" fill="#323966"/>
            </g>
            <g id="Group_66" data-name="Group 66" transform="translate(4.208 2.986)">
              <g id="Group_63" data-name="Group 63" transform="translate(8.144)">
                <rect id="Rectangle_48" data-name="Rectangle 48" width="9.637" height="0.95" fill="#968eab"/>
              </g>
              <g id="Group_64" data-name="Group 64" transform="translate(7.33 1.9)">
                <rect id="Rectangle_49" data-name="Rectangle 49" width="9.637" height="0.95" fill="#968eab"/>
              </g>
              <g id="Group_65" data-name="Group 65" transform="translate(0 5.097)">
                <path id="Path_76" data-name="Path 76" d="M359.488,415.946l5.167-12.181-11.247.044-5.548,11.809Zm3.947-11.39L358.96,415.1l-9.823-.239,4.774-10.231Z" transform="translate(-347.86 -403.765)" fill="#968eab"/>
              </g>
            </g>
          </g>
          <g id="Group_68" data-name="Group 68" transform="translate(6.04 10.621)">
            <line id="Line_28" data-name="Line 28" x1="10.296" transform="translate(2.837)" fill="none" stroke="#968eab" stroke-miterlimit="10" stroke-width="1.461"/>
            <line id="Line_29" data-name="Line 29" x1="10.296" transform="translate(1.944 2.223)" fill="none" stroke="#968eab" stroke-miterlimit="10" stroke-width="1.461"/>
            <line id="Line_30" data-name="Line 30" x1="10.296" transform="translate(1.208 4.445)" fill="none" stroke="#968eab" stroke-miterlimit="10" stroke-width="1.461"/>
            <line id="Line_31" data-name="Line 31" x1="10.296" transform="translate(0 6.668)" fill="none" stroke="#968eab" stroke-miterlimit="10" stroke-width="1.461"/>
          </g>
          <g id="Group_69" data-name="Group 69" transform="translate(7.16 8.587)">
            <line id="Line_32" data-name="Line 32" x1="4.785" y2="10.638" transform="translate(0 0.151)" fill="none" stroke="#968eab" stroke-miterlimit="10" stroke-width="1.461"/>
            <line id="Line_33" data-name="Line 33" x1="4.785" y2="10.638" transform="translate(2.85 0.202)" fill="none" stroke="#968eab" stroke-miterlimit="10" stroke-width="1.461"/>
            <line id="Line_34" data-name="Line 34" x1="4.736" y2="11.044" transform="translate(5.701)" fill="none" stroke="#968eab" stroke-miterlimit="10" stroke-width="1.461"/>
          </g>
        </g>
        <g id="Group_75" data-name="Group 75" transform="translate(15.351 106.883)">
          <g id="Group_71" data-name="Group 71" transform="translate(0 0)">
            <rect id="Rectangle_50" data-name="Rectangle 50" width="2.715" height="37.463" transform="translate(10.17 37.944) rotate(169.964)" fill="#4257a4"/>
            <rect id="Rectangle_51" data-name="Rectangle 51" width="4.208" height="11.266" transform="matrix(-0.985, 0.174, -0.174, -0.985, 6.107, 11.094)" fill="#4257a4"/>
          </g>
          <g id="Group_72" data-name="Group 72" transform="translate(8.822 3.18)">
            <path id="Path_77" data-name="Path 77" d="M759.479,403.95l2.705-.227-3.131-37.332L757.417,364l-1.069,2.615Z" transform="translate(-756.348 -364.003)" fill="#65354d"/>
          </g>
          <g id="Group_73" data-name="Group 73" transform="translate(15.713 6.037)">
            <path id="Path_78" data-name="Path 78" d="M737.137,408.046l2.665.519,7.159-36.773-.924-2.744-1.741,2.225Z" transform="translate(-737.137 -369.048)" fill="#122f51"/>
          </g>
          <g id="Group_74" data-name="Group 74" transform="translate(1.543 22.872)">
            <path id="Path_79" data-name="Path 79" d="M741.661,429.495h11.6l3.8-30.716H737.857Z" transform="translate(-733.482 -398.779)" fill="#f66438"/>
            <path id="Path_80" data-name="Path 80" d="M753.082,429.495h11.6l1.712-30.716H749.278Z" transform="translate(-749.278 -398.779)" fill="#ffac3d"/>
          </g>
        </g>
        <g id="Group_79" data-name="Group 79" transform="translate(278.734 154.753)">
          <g id="Group_76" data-name="Group 76" transform="translate(9.246 30.165)">
            <path id="Path_81" data-name="Path 81" d="M172.733,496.2v15.176h47.109a7.588,7.588,0,1,0,0-15.176Z" transform="translate(-154.928 -496.197)" fill="#4257a4"/>
            <path id="Path_82" data-name="Path 82" d="M173.51,514.1v5.037h29.359a7.6,7.6,0,0,0,7.151-5.037Z" transform="translate(-137.955 -503.963)" fill="#31477d"/>
            <path id="Path_83" data-name="Path 83" d="M204.18,496.2v15.18h47.109a7.59,7.59,0,1,0,0-15.18Z" transform="translate(-204.18 -496.195)" fill="#0e254a"/>
            <path id="Path_84" data-name="Path 84" d="M212.605,500.791v9.732h45.062a4.866,4.866,0,1,0,0-9.732Z" transform="translate(-212.605 -498.188)" fill="#e8eaec"/>
          </g>
          <g id="Group_77" data-name="Group 77" transform="translate(9.246)">
            <path id="Path_85" data-name="Path 85" d="M174.546,442.925v15.18h47.109a7.59,7.59,0,1,0,0-15.18Z" transform="translate(-157.765 -442.925)" fill="#ffac3d"/>
            <path id="Path_86" data-name="Path 86" d="M175.057,448.016v-5.037h29.36a7.6,7.6,0,0,1,7.151,5.037Z" transform="translate(-140.378 -442.948)" fill="#ffd533"/>
            <path id="Path_87" data-name="Path 87" d="M204.18,442.926v15.18h47.109a7.59,7.59,0,1,0,0-15.18Z" transform="translate(-204.18 -442.925)" fill="#fa7c50"/>
            <path id="Path_88" data-name="Path 88" d="M212.605,447.521v9.732h45.062a4.866,4.866,0,1,0,0-9.732Z" transform="translate(-212.605 -444.918)" fill="#e8eaec"/>
          </g>
          <g id="Group_78" data-name="Group 78" transform="translate(0 15.267)">
            <path id="Path_89" data-name="Path 89" d="M179.39,469.887V485.07H226.5a7.6,7.6,0,0,0,6.7-11.157,7.847,7.847,0,0,0-1.334-1.806,7.584,7.584,0,0,0-5.365-2.22Z" transform="translate(-156.101 -469.887)" fill="#a1cf3a"/>
            <path id="Path_90" data-name="Path 90" d="M180.955,469.887v4.026h46.519a7.847,7.847,0,0,0-1.334-1.806,7.584,7.584,0,0,0-5.365-2.22Z" transform="translate(-150.377 -469.887)" fill="#709d2b"/>
            <path id="Path_91" data-name="Path 91" d="M180.955,493.626V489.6h46.519a7.835,7.835,0,0,1-1.334,1.806,7.585,7.585,0,0,1-5.365,2.22Z" transform="translate(-150.377 -478.438)" fill="#709d2b"/>
            <path id="Path_92" data-name="Path 92" d="M220.509,469.888v15.18h47.109a7.59,7.59,0,1,0,0-15.18Z" transform="translate(-220.509 -469.887)" fill="#4e8530"/>
            <path id="Path_93" data-name="Path 93" d="M228.934,474.483v9.732H274a4.866,4.866,0,1,0,0-9.732Z" transform="translate(-228.934 -471.88)" fill="#e8eaec"/>
          </g>
        </g>
        <g id="Group_82" data-name="Group 82" transform="translate(346.769 132.45)">
          <g id="Group_80" data-name="Group 80" transform="translate(0)">
            <path id="Path_94" data-name="Path 94" d="M159.368,436.089c6.3,8.583,18.946,10.007,18.946,10.007s2.425-12.491-3.877-21.073-18.946-10.007-18.946-10.007S153.065,427.507,159.368,436.089Z" transform="translate(-155.032 -408.517)" fill="#53803a"/>
            <path id="Path_95" data-name="Path 95" d="M120.721,439.148c-5.778,5.694-5.462,15.382-5.462,15.382s9.682.456,15.46-5.238,5.463-15.382,5.463-15.382S126.5,433.453,120.721,439.148Z" transform="translate(-89.92 -416.708)" fill="#3d6a3a"/>
            <path id="Path_96" data-name="Path 96" d="M134.949,421.671c-1.174,10.583,7.166,20.193,7.166,20.193s10.243-7.549,11.416-18.133-7.166-20.193-7.166-20.193S136.123,411.088,134.949,421.671Z" transform="translate(-118.468 -403.539)" fill="#63b259"/>
          </g>
          <g id="Group_81" data-name="Group 81" transform="translate(1.804 35.567)">
            <path id="Path_97" data-name="Path 97" d="M122.232,498.347h21.932l7.191-32H115.041Z" transform="translate(-106.772 -466.349)" fill="#65354d"/>
            <path id="Path_98" data-name="Path 98" d="M143.82,498.347h21.932l3.236-32H136.629Z" transform="translate(-136.629 -466.349)" fill="#a0533b"/>
          </g>
        </g>
      </g>
    </g>
  </g>
  <g id="Group_91" data-name="Group 91" transform="translate(0 160.379)">
    <path id="Rectangle_52" data-name="Rectangle 52" d="M10.136,0H266.073a10.136,10.136,0,0,1,10.136,10.136V17.6a0,0,0,0,1,0,0H0a0,0,0,0,1,0,0V10.136A10.136,10.136,0,0,1,10.136,0Z" transform="translate(0 0)" fill="#4c79c1"/>
  </g>
</svg>
